<svg xmlns="http://www.w3.org/2000/svg" width="45" height="46" fill="none" viewBox="0 0 45 46"><g clip-path="url(#clip0_70_22)"><path stroke="#D39D63" stroke-miterlimit="10" stroke-width="2.322" d="M30.413 10.4634C30.413 5.8475 26.6711 2.10561 22.0552 2.10561C17.4393 2.10561 13.6974 5.8475 13.6974 10.4634V35.5366C13.6974 40.1525 17.4393 43.8944 22.0552 43.8944C26.6711 43.8944 30.413 40.1525 30.413 35.5366V10.4634Z"/><path stroke="#D39D63" stroke-miterlimit="10" stroke-width="2.322" d="M34.5918 31.3578C39.2077 31.3578 42.9496 27.6159 42.9496 23C42.9496 18.3841 39.2077 14.6422 34.5918 14.6422L9.51856 14.6422C4.90269 14.6422 1.1608 18.3841 1.1608 23C1.1608 27.6159 4.90269 31.3578 9.51856 31.3578L34.5918 31.3578Z"/><path stroke="#D39D63" stroke-miterlimit="10" stroke-width="2.322" d="M25.0123 37.7746C28.2762 41.0385 33.568 41.0385 36.8319 37.7746C40.0958 34.5107 40.0958 29.2188 36.8319 25.9549L19.1025 8.22544C15.8385 4.96153 10.5467 4.96153 7.2828 8.22544C4.01889 11.4893 4.01889 16.7812 7.2828 20.0451L25.0123 37.7746Z"/><path stroke="#D39D63" stroke-miterlimit="10" stroke-width="2.322" d="M7.28066 25.9572C4.01676 29.2211 4.01676 34.5129 7.28066 37.7768C10.5446 41.0407 15.8364 41.0407 19.1003 37.7768L36.8298 20.0473C40.0937 16.7834 40.0937 11.4916 36.8298 8.22769C33.5659 4.96378 28.2741 4.96378 25.0101 8.22769L7.28066 25.9572Z"/></g><defs><clipPath id="clip0_70_22"><rect width="44.11" height="44.11" fill="#fff" transform="translate(0 0.944824)"/></clipPath></defs></svg>