<svg xmlns="http://www.w3.org/2000/svg" width="384" height="569" fill="none" viewBox="0 0 384 569"><rect width="383.247" height="569" x=".753" fill="#D39D63"/><g clip-path="url(#clip0_143_6)"><path fill="#3A3027" d="M190.798 456.125C237.768 456.125 275.845 451.275 275.845 445.292C275.845 439.309 237.768 434.458 190.798 434.458C143.828 434.458 105.751 439.309 105.751 445.292C105.751 451.275 143.828 456.125 190.798 456.125Z" opacity=".3"/><path fill="#C0A48C" stroke="#3A3027" stroke-linejoin="round" stroke-width="7.855" d="M219.812 341.682H240.327V367.402C240.327 377.181 232.388 385.116 222.613 385.116H219.817V341.682H219.812Z"/><path fill="#fff" stroke="#3A3027" stroke-linejoin="round" stroke-width="7.855" d="M240.345 342.926H219.83L219.812 306.582L231.343 311.774C236.811 314.237 240.323 319.673 240.323 325.666L240.34 342.926H240.345Z"/><path fill="#C0A48C" stroke="#3A3027" stroke-linejoin="round" stroke-width="7.855" d="M161.713 385.117H158.917C149.137 385.117 141.202 377.177 141.202 367.402V341.682H161.717V385.117H161.713Z"/><path fill="#fff" stroke="#3A3027" stroke-linejoin="round" stroke-width="7.855" d="M141.18 342.926H161.695L161.713 306.582L150.182 311.774C144.714 314.237 141.202 319.673 141.202 325.666L141.184 342.926H141.18Z"/><path fill="#D3C5BC" stroke="#3A3027" stroke-linejoin="round" stroke-width="7.855" d="M167.838 367.3H213.687C216.861 367.3 219.439 369.878 219.439 373.052V432.663H162.086V373.052C162.086 369.878 164.664 367.3 167.838 367.3Z"/><path fill="#fff" stroke="#3A3027" stroke-linejoin="round" stroke-width="6.73" d="M238.98 443.794H190.762V432.045H227.231C233.717 432.045 238.98 437.308 238.98 443.794Z"/><path fill="#fff" stroke="#3A3027" stroke-linejoin="round" stroke-width="6.73" d="M154.293 432.044H190.762V443.793H142.545C142.545 437.308 147.808 432.044 154.293 432.044Z"/><path fill="#fff" stroke="#3A3027" stroke-linejoin="round" stroke-width="7.855" d="M219.812 306.493L191.291 293.18L161.713 306.493V361.877C161.713 364.855 164.126 367.269 167.105 367.269H214.42C217.398 367.269 219.812 364.855 219.812 361.877V306.493Z"/><path fill="#C0A48C" stroke="#3A3027" stroke-linejoin="round" stroke-width="2.805" d="M204.107 301.483L190.763 288.134L177.413 301.483L190.763 318.122L204.107 301.483Z"/><path fill="#B09077" stroke="#3A3027" stroke-linejoin="round" stroke-width="7.855" d="M253.863 235.85C251.987 243.118 244.95 247.998 238.153 246.749C231.352 245.5 227.365 238.597 229.241 231.329C231.116 224.061 238.153 219.18 244.95 220.429C251.751 221.678 255.739 228.582 253.863 235.85Z"/><path fill="#D1B59E" stroke="#3A3027" stroke-linejoin="round" stroke-width="7.855" d="M127.551 235.116C128.996 242.482 135.73 247.767 142.594 246.922C149.457 246.078 153.845 239.419 152.4 232.053C150.955 224.687 144.221 219.402 137.357 220.246C130.494 221.091 126.106 227.75 127.551 235.116Z"/><path fill="#B09077" d="M238.98 183.253V244.037C238.98 252.261 236.535 260.303 231.961 267.135L217.016 289.45C211.411 297.816 202.004 302.839 191.931 302.839H189.593C179.52 302.839 170.114 297.816 164.509 289.45L149.564 267.135C144.985 260.303 142.545 252.261 142.545 244.037V183.253C142.545 168.957 154.133 157.364 168.434 157.364H213.091C227.387 157.364 238.98 168.953 238.98 183.253Z"/><path fill="#D1B59E" d="M165.896 157.364H189.593V302.839L164.509 289.45L142.545 254.506V180.715C142.545 167.819 153 157.364 165.896 157.364Z"/><path fill="#3A3027" d="M238.98 233.733L227.823 220.353V160.978L238.98 174.953V233.733Z" opacity=".7"/><path fill="#3A3027" d="M142.545 233.733L153.702 220.353V161.782L142.545 174.536V233.733Z" opacity=".7"/><path fill="#C0A48C" d="M213.42 251.319C221.374 251.319 227.823 244.871 227.823 236.916C227.823 228.962 221.374 222.514 213.42 222.514C205.466 222.514 199.017 228.962 199.017 236.916C199.017 244.871 205.466 251.319 213.42 251.319Z"/><path fill="#C0A48C" d="M168.1 251.319C176.055 251.319 182.503 244.871 182.503 236.916C182.503 228.962 176.055 222.514 168.1 222.514C160.146 222.514 153.698 228.962 153.698 236.916C153.698 244.871 160.146 251.319 168.1 251.319Z"/><path fill="#C0A48C" d="M222.288 177.27V243.855C222.288 260.681 217.292 277.124 207.926 291.104C204.263 296.576 198.111 299.857 191.527 299.857H189.998C183.415 299.857 177.262 296.572 173.599 291.104C164.238 277.124 159.237 260.681 159.237 243.855V177.27C159.237 167.921 166.816 160.342 176.164 160.342H205.361C214.709 160.342 222.288 167.921 222.288 177.27Z"/><path fill="#8A715D" d="M182.761 278.092C186.388 274.283 192.367 273.732 196.764 276.461C197.43 276.888 198.097 277.368 198.764 278.092V278.484C196.172 278.63 193.35 278.666 190.762 278.679C188.833 278.666 186.699 278.644 184.761 278.581L182.761 278.484V278.092Z"/><path fill="#72594B" d="M234.966 261.849C234.095 263.672 233.095 265.441 231.961 267.135L217.012 289.45C211.406 297.82 202 302.843 191.927 302.843H189.593C179.52 302.843 170.114 297.816 164.509 289.45L149.559 267.135C148.91 266.161 148.297 265.161 147.737 264.138C155.023 253.99 172.226 246.869 192.278 246.869C210.788 246.869 226.871 252.936 234.966 261.849Z" opacity=".2"/><path stroke="#3A3027" stroke-linejoin="round" stroke-width="9.446" d="M238.98 183.253V244.037C238.98 250.225 237.602 256.306 234.97 261.845C234.099 263.668 233.099 265.437 231.965 267.13L217.016 289.446C211.411 297.816 202.004 302.839 191.932 302.839H189.598C179.525 302.839 170.119 297.812 164.513 289.446L149.564 267.13C148.915 266.157 148.301 265.157 147.741 264.134C144.341 258.004 142.549 251.088 142.549 244.037V183.253C142.549 168.957 154.138 157.364 168.434 157.364H213.095C227.391 157.364 238.98 168.957 238.98 183.253Z"/><path fill="#3A3027" d="M202.293 224.758C207.023 221.002 214.549 220.975 219.274 224.758C214.549 228.537 207.028 228.515 202.293 224.758Z"/><path fill="#3A3027" d="M179.227 224.758C174.497 228.514 166.972 228.541 162.246 224.758C166.972 220.98 174.493 221.002 179.227 224.758Z"/><path fill="#3A3027" d="M219.274 224.758C218.003 219.646 209.712 219.188 205.716 221.033C204.107 221.749 202.676 222.927 202.293 224.758C201.924 222.767 203.449 220.851 205.089 219.868C208.521 217.828 213.042 217.833 216.474 219.868C218.114 220.851 219.639 222.767 219.27 224.758H219.274Z"/><path fill="#3A3027" d="M162.246 224.758C161.882 222.767 163.402 220.851 165.042 219.868C168.474 217.833 172.995 217.828 176.426 219.868C178.067 220.851 179.591 222.771 179.223 224.758C178.836 222.927 177.409 221.749 175.8 221.033C171.808 219.193 163.517 219.646 162.242 224.758H162.246Z"/><path stroke="#3A3027" stroke-linejoin="round" stroke-width="4.485" d="M200.453 214.094L222.288 213.743"/><path stroke="#3A3027" stroke-linejoin="round" stroke-width="4.485" d="M182.254 214.094L160.744 213.743"/><path fill="#3A3027" d="M184.912 235.498C182.072 236.134 180.236 238.485 180.516 241.152C180.721 243.335 182.757 245.14 184.864 245.006L187.802 244.931C189.278 244.904 192.252 244.904 193.727 244.931L196.666 245.002C197.995 245.06 199.377 244.411 200.218 243.219C202.271 240.255 200.253 236.218 196.612 235.498C199.929 234.742 203.365 237.601 203.587 241.135C203.978 245.02 200.689 248.638 196.715 248.723C193.967 248.838 190.558 248.834 187.802 248.803C186.904 248.767 185.717 248.776 184.815 248.718C179.351 248.572 175.933 242.268 179.183 237.832C180.538 235.929 182.939 235.049 184.917 235.494L184.912 235.498Z"/><path fill="#3A3027" d="M171.657 264.054C175.035 264.219 178.173 263.636 180.987 262.356C181.796 262.001 182.561 261.574 183.321 261.134C184.197 260.654 185.192 260.431 186.193 260.471C187.024 260.489 187.846 260.751 188.589 261.125C189.269 261.418 189.989 261.921 190.758 261.889C191.527 261.921 192.247 261.414 192.927 261.12C193.67 260.747 194.492 260.485 195.328 260.463C196.328 260.423 197.328 260.649 198.204 261.125C198.964 261.565 199.728 261.992 200.537 262.347C203.351 263.623 206.485 264.21 209.868 264.05C205.921 266.05 201.115 265.748 197.137 263.93C196.643 263.694 196.083 263.565 195.541 263.645C195.132 263.69 194.754 263.859 194.403 264.059C194.127 264.205 193.576 264.499 193.296 264.637C191.523 265.566 189.349 265.375 187.66 264.348L187.113 264.054C186.379 263.592 185.45 263.476 184.637 263.81C180.596 265.703 175.689 266.09 171.652 264.041L171.657 264.054Z"/><path fill="#3A3027" d="M179.227 267.152C180.16 270.393 196.915 269.668 199.88 268.704C200.809 268.419 201.916 268.179 202.293 267.152C202.378 267.419 202.338 267.735 202.24 268.019C201.36 269.904 199.173 270.735 197.355 271.371C193.056 272.656 188.469 272.647 184.17 271.371C182.481 270.82 178.902 269.357 179.231 267.152H179.227Z"/><path fill="#3A3027" d="M202.293 238.09C206.321 241.162 210.108 244.482 213.864 247.856L217.572 251.274C218.91 252.568 219.834 254.288 220.11 256.124C220.555 258.854 219.443 261.681 217.51 263.539L215.803 265.401C214.647 266.628 213.496 267.855 212.286 269.038C213.207 267.62 214.189 266.251 215.162 264.877C215.949 263.712 217.385 262.054 217.963 260.841C218.608 259.445 218.825 257.871 218.536 256.387C218.265 254.897 217.51 253.524 216.416 252.497L212.775 249.016C209.166 245.482 205.614 241.913 202.293 238.09Z"/><circle cx="190.762" cy="324.412" r="1.683" fill="#3A3027"/><path stroke="#3A3027" stroke-linecap="round" stroke-linejoin="round" stroke-width="3.365" d="M190.762 331.817V335.52"/><circle cx="190.762" cy="339.223" r="1.683" fill="#3A3027"/><path fill="#3A3027" d="M217.554 307.982L195.399 320.651L215.696 305.177L217.554 307.982Z"/><path fill="#3A3027" d="M165.829 305.177L186.126 320.651L163.971 307.982L165.829 305.177Z"/><path fill="#3A3027" d="M186.837 432.045L190.762 387.166L194.688 432.045H186.837Z"/><path stroke="#fff" stroke-miterlimit="10" stroke-width="2.245" d="M184.837 369.891H195.265C196.048 369.891 196.684 369.255 196.684 368.473V366.13C196.684 365.348 196.048 364.712 195.265 364.712H184.837"/><path fill="#3A3027" d="M238.282 181.386H142.545V204.866C198.764 204.866 216.625 208.2 238.282 228.101V181.381V181.386Z" opacity=".3"/><path fill="#36383A" d="M212.566 139.925H168.954C153.956 139.925 141.802 152.083 141.802 167.076V197.082L165.776 186.88C181.739 180.088 199.777 180.088 215.74 186.88L239.714 197.082V167.076C239.714 152.078 227.556 139.925 212.562 139.925H212.566Z"/><mask id="mask0_143_6" style="mask-type:luminance" width="99" height="59" x="141" y="139" maskUnits="userSpaceOnUse"><path fill="#fff" d="M212.566 139.925H168.954C153.956 139.925 141.802 152.083 141.802 167.076V197.082L165.776 186.88C181.739 180.088 199.777 180.088 215.74 186.88L239.714 197.082V167.076C239.714 152.078 227.556 139.925 212.562 139.925H212.566Z"/></mask><g mask="url(#mask0_143_6)"><path fill="#595A5B" d="M190.762 140.832H139.513V201.278H190.762V140.832Z"/><path fill="#414344" d="M181.227 140.832H200.298C212.14 140.832 221.759 150.447 221.759 162.293V196.179H159.766V162.293C159.766 150.451 169.381 140.832 181.227 140.832Z"/></g><path stroke="#3A3027" stroke-linejoin="round" stroke-width="7.855" d="M212.566 139.925H168.954C153.956 139.925 141.802 152.083 141.802 167.076V197.082L165.776 186.88C181.739 180.088 199.777 180.088 215.74 186.88L239.714 197.082V167.076C239.714 152.078 227.556 139.925 212.562 139.925H212.566Z"/><path fill="#414344" d="M246.061 198.607C214.065 172.055 167.456 172.055 135.459 198.607C131.983 201.487 131.316 206.052 133.717 208.368C136.121 210.693 140.256 210.324 143.172 207.924C170.71 185.075 210.819 185.075 238.353 207.924C241.265 210.329 245.404 210.693 247.808 208.368C250.209 206.057 249.542 201.487 246.066 198.607H246.061Z"/><path stroke="#3A3027" stroke-linejoin="round" stroke-width="5.61" d="M246.061 198.607C214.065 172.055 167.456 172.055 135.459 198.607C131.983 201.487 131.316 206.052 133.717 208.368C136.121 210.693 140.256 210.324 143.172 207.924C170.71 185.075 210.819 185.075 238.353 207.924C241.265 210.329 245.404 210.693 247.808 208.368C250.209 206.057 249.542 201.487 246.066 198.607H246.061Z"/><path fill="#fff" d="M205.041 160.605C199.973 162.663 194.376 164.81 189.216 166.681C187.402 167.33 185.606 168.148 183.775 168.762C183.37 168.908 182.908 169.002 182.481 169.082C178.84 169.611 175.417 165.934 176.635 162.378C176.893 161.565 177.444 160.902 178.027 160.444C178.102 160.382 178.214 160.396 178.276 160.476C178.311 160.52 178.32 160.578 178.307 160.631C177.973 161.907 178.062 163.107 178.743 164.138C179.583 165.405 181.09 165.948 182.499 165.499C182.654 165.454 183.099 165.334 183.263 165.29C184.966 164.859 186.731 164.539 188.429 164.107C190.469 163.587 194.608 162.587 196.661 162.116C199.422 161.507 202.169 160.853 204.943 160.284C205.036 160.267 205.125 160.324 205.143 160.418C205.161 160.498 205.116 160.578 205.041 160.609V160.605Z"/></g><defs><clipPath id="clip0_143_6"><rect width="170.098" height="320.125" fill="#fff" transform="translate(105.751 136)"/></clipPath></defs></svg>