<svg width="142" height="253" viewBox="0 0 142 253" fill="none" xmlns="http://www.w3.org/2000/svg">
<ellipse opacity="0.3" cx="70.9772" cy="245.122" rx="70.9772" ry="7.71484" fill="#3A3027"/>
<g clip-path="url(#clip0_74_2861)">
<path d="M96.8608 165.524H112.823V180.142C112.823 187.75 106.647 193.926 99.0389 193.926H96.8608V165.52V165.524Z" fill="#EFD0B4" stroke="#3A3027" stroke-width="6.11079" stroke-linejoin="round"/>
<path d="M45.6349 193.926H43.4568C35.8489 193.926 29.6726 187.75 29.6726 180.142L29.6726 165.524H45.6349V193.931V193.926Z" fill="#EFD0B4" stroke="#3A3027" stroke-width="6.11079" stroke-linejoin="round"/>
<path d="M112.841 174.944H96.8783L96.8652 132.814L105.839 136.856C110.091 138.772 112.827 143.002 112.827 147.668L112.841 174.944Z" fill="white" stroke="#3A3027" stroke-width="6.11079" stroke-linejoin="round"/>
<path d="M29.6683 174.957H45.6306V132.814L36.6565 136.856C32.4051 138.772 29.6683 143.002 29.6683 147.668V174.961V174.957Z" fill="white" stroke="#3A3027" stroke-width="6.11079" stroke-linejoin="round"/>
<path d="M96.8609 132.814L71.2479 121.946L45.6306 132.814V185.502L41.2657 233.359H101.226L96.8609 185.502V132.814Z" fill="white"/>
<mask id="mask0_74_2861" style="mask-type:luminance" maskUnits="userSpaceOnUse" x="41" y="121" width="61" height="113">
<path d="M96.8609 132.814L71.2479 121.946L45.6306 132.814V185.502L41.2657 233.359H101.226L96.8609 185.502V132.814Z" fill="white"/>
</mask>
<g mask="url(#mask0_74_2861)">
<path d="M98.1791 134.272L74.7485 152.775L95.5471 131.356L98.1791 134.272Z" fill="#CFD1D2"/>
<path d="M46.9488 131.356L67.7473 152.775L44.3168 134.272L46.9488 131.356Z" fill="#CFD1D2"/>
<path d="M50.8291 186.135H91.6623" stroke="#EFF0F0" stroke-width="2.61891" stroke-linejoin="round"/>
<path d="M84.7003 186.135V190.801C84.7003 194.647 87.8168 197.768 91.6666 197.768" stroke="#EFF0F0" stroke-width="2.61891" stroke-linejoin="round"/>
<path d="M57.7954 186.135V190.801C57.7954 194.647 54.6789 197.768 50.8291 197.768" stroke="#EFF0F0" stroke-width="2.61891" stroke-linejoin="round"/>
</g>
<path d="M96.8609 132.814L71.2479 121.946L45.6306 132.814V185.502L41.2657 233.359H101.226L96.8609 185.502V132.814Z" stroke="#3A3027" stroke-width="6.11079" stroke-linejoin="round"/>
<path d="M81.6318 131.762L71.2478 121.374L60.8595 131.762L71.2478 152.775L81.6318 131.762Z" fill="#EFD0B4" stroke="#CFD1D2" stroke-width="2.61891" stroke-linejoin="round"/>
<path d="M65.0193 113.556C68.4806 110.06 74.0021 110.082 77.4722 113.556V113.862L75.9139 113.936C72.8236 114.037 69.6635 114.037 66.5731 113.936L65.0149 113.862V113.556H65.0193Z" fill="#CF9D76"/>
<path d="M71.2479 156.092V196.977" stroke="#E4E5E6" stroke-width="2.61891" stroke-linejoin="round"/>
<path d="M68.1925 233.359L71.2479 200.5L74.3033 233.359H68.1925Z" fill="#3A3027"/>
<path d="M42.8675 233.358H71.2478V242.503H33.7275C33.7275 237.457 37.8261 233.358 42.8719 233.358H42.8675Z" fill="white" stroke="#3A3027" stroke-width="5.23782" stroke-linejoin="round"/>
<path d="M108.768 242.503H71.248V233.359H99.6282C104.674 233.359 108.773 237.457 108.773 242.503H108.768Z" fill="white" stroke="#3A3027" stroke-width="5.23782" stroke-linejoin="round"/>
<path d="M78.6769 156.935H89.4319V162.932C89.4319 165.56 87.3018 167.69 84.6742 167.69H83.4346C80.8069 167.69 78.6769 165.56 78.6769 162.932V156.935Z" stroke="#EFF0F0" stroke-width="2.61891" stroke-linejoin="round"/>
<path d="M90.2088 170.592H77.8999V174.673H90.2088V170.592Z" fill="#2B6E4F"/>
<path d="M90.2088 175.612H77.8999V179.693H90.2088V175.612Z" fill="#FCDA00"/>
<path d="M44.0549 111.374H23.8893V101.693C23.8893 86.6821 36.0759 74.4997 51.0823 74.4997H71.2479V84.181C71.2479 99.1917 59.0613 111.374 44.0549 111.374Z" fill="#F7D080" stroke="#3A3027" stroke-width="5.23782" stroke-linejoin="round"/>
<path d="M71.2479 74.4995H91.4135C106.424 74.4995 118.607 86.6862 118.607 101.693V111.374H98.441C83.4302 111.374 71.2479 99.1871 71.2479 84.1808V74.4995Z" fill="#F7D080" stroke="#3A3027" stroke-width="5.23782" stroke-linejoin="round"/>
<path d="M121.143 79.445C120.021 86.1319 114.8 90.9333 109.48 90.1651C104.159 89.3968 100.754 83.3515 101.872 76.6646C102.993 69.9776 108.214 65.1763 113.535 65.9445C118.855 66.7127 122.26 72.758 121.143 79.445Z" fill="#DEB18A" stroke="#3A3027" stroke-width="6.11079" stroke-linejoin="round"/>
<path d="M21.3533 79.445C22.475 86.1319 27.6954 90.9333 33.0162 90.1651C38.3369 89.3968 41.7415 83.3515 40.6241 76.6646C39.5023 69.9776 34.282 65.1763 28.9612 65.9445C23.6405 66.7127 20.2359 72.758 21.3533 79.445Z" fill="#F5DFCD" stroke="#3A3027" stroke-width="6.11079" stroke-linejoin="round"/>
<path d="M108.768 44.8101V89.2181C108.768 94.2115 107.284 99.0914 104.508 103.238L92.1861 121.64C87.507 128.624 79.6546 132.814 71.2522 132.814C62.8455 132.814 54.9932 128.624 50.3184 121.64L37.9964 103.238C35.216 99.0914 33.7363 94.2071 33.7363 89.2181V44.8101C33.7363 30.895 45.0195 19.6118 58.9346 19.6118H83.5829C97.4981 19.6118 108.781 30.895 108.781 44.8101H108.768Z" fill="#DEB18A"/>
<path d="M57.2672 19.6118H71.2478V131.762L69.7288 131.487C60.6718 129.859 52.5401 124.94 46.8876 117.681L38.4328 106.822C35.3862 102.906 33.7275 98.0875 33.7275 93.1247V43.1515C33.7275 30.1486 44.2687 19.6118 57.2672 19.6118Z" fill="#F5DFCD"/>
<path d="M106.69 67.4459L95.7783 57.8476V39.3799H106.69V67.4459Z" fill="#C79C4E"/>
<path d="M35.8053 67.4459L46.7174 57.8476V39.3799H35.8053V67.4459Z" fill="#F7D080"/>
<path d="M95.7783 36.0848V88.7773C95.7783 101.483 92.0028 113.901 84.9361 124.456C81.8763 129.021 76.7432 131.762 71.2479 131.762C65.7525 131.762 60.6195 129.021 57.5597 124.456C50.4886 113.901 46.7174 101.483 46.7174 88.7773V36.0848C46.7174 26.9884 54.094 19.6118 63.1904 19.6118H79.3054C88.4017 19.6118 95.7783 26.9884 95.7783 36.0848Z" fill="#EFD0B4"/>
<path d="M91.6623 91.9245C97.308 91.9245 101.885 87.3477 101.885 81.702C101.885 76.0563 97.308 71.4795 91.6623 71.4795C86.0166 71.4795 81.4398 76.0563 81.4398 81.702C81.4398 87.3477 86.0166 91.9245 91.6623 91.9245Z" fill="#EFD0B4"/>
<path opacity="0.3" d="M106.69 99.2354H35.8053L59.1791 131.762H83.3124L106.69 99.2354Z" fill="#B09077"/>
<path d="M50.8291 91.9245C56.4748 91.9245 61.0515 87.3477 61.0515 81.702C61.0515 76.0563 56.4748 71.4795 50.8291 71.4795C45.1833 71.4795 40.6066 76.0563 40.6066 81.702C40.6066 87.3477 45.1833 91.9245 50.8291 91.9245Z" fill="#EFD0B4"/>
<path d="M108.768 44.8101V89.2181C108.768 94.2115 107.284 99.0914 104.508 103.238L92.1861 121.64C87.5069 128.624 79.6546 132.814 71.2522 132.814C62.8455 132.814 54.9932 128.624 50.3184 121.64L37.9964 103.238C35.216 99.0914 33.7363 94.2071 33.7363 89.2181V44.8101C33.7363 30.895 45.0195 19.6118 58.9346 19.6118H83.5829C97.4981 19.6118 108.781 30.895 108.781 44.8101H108.768Z" stroke="#3A3027" stroke-width="7.35041" stroke-linejoin="round"/>
<path d="M80.222 71.8373C82.8715 67.8784 88.1093 66.8308 91.7845 70.0215C92.3345 70.4973 92.8845 71.0298 93.4345 71.8373V72.2738C91.2957 72.4353 88.9648 72.4746 86.8261 72.492C85.2329 72.4789 83.4695 72.4527 81.872 72.3829L80.222 72.2781V71.8417V71.8373Z" fill="#3A3027"/>
<path d="M62.2738 72.2738C57.9046 72.5662 53.4263 72.5619 49.0614 72.2738V71.8373C50.6327 69.585 53.0465 68.1359 55.6698 68.1272C58.2494 68.0879 60.7985 69.6505 62.2782 71.8373V72.2738H62.2738Z" fill="#3A3027"/>
<path d="M93.4345 71.4794C92.4961 66.7829 86.3154 65.6 82.7057 67.9046C81.4879 68.6816 80.5015 69.895 80.2221 71.4794C79.9209 69.8339 80.8201 68.1141 82.099 67.084C83.4128 65.9885 85.1369 65.4559 86.8261 65.4472C90.0648 65.3556 93.9627 67.9046 93.4345 71.4794Z" fill="#3A3027"/>
<path d="M49.057 71.4794C48.5289 67.9003 52.4223 65.3556 55.6654 65.4472C57.3589 65.4516 59.0831 65.9885 60.3925 67.084C61.6758 68.1141 62.5706 69.8383 62.2694 71.4794C61.9901 69.895 60.9992 68.6816 59.7858 67.9046C56.1761 65.5956 49.9954 66.7829 49.057 71.4794Z" fill="#3A3027"/>
<path d="M80.222 57.7822L95.7784 60.4011V63.02H80.222V57.7822Z" fill="#936C50"/>
<path d="M62.2737 63.02H46.7174V60.4011L62.2737 57.7822V63.02Z" fill="#936C50"/>
<path d="M57.7954 99.1479C57.7954 103.543 63.8189 107.109 71.2479 107.109C78.6769 107.109 84.7004 103.543 84.7004 99.1479H57.7954Z" fill="white" stroke="#CA8B83" stroke-width="2.61891" stroke-linejoin="round"/>
<path d="M71.2479 93.0591H84.8794C87.8213 93.0591 90.2088 95.4467 90.2088 98.3886V100.047H71.2479V93.0591Z" fill="#936C50"/>
<path d="M71.2435 100.051H52.2826V98.3926C52.2826 95.4507 54.6702 93.0631 57.6121 93.0631H71.2435V100.051Z" fill="#936C50"/>
<path d="M84.7003 89.1831C87.293 90.1303 89.7941 91.2389 92.2821 92.4044C92.7535 92.6401 93.3995 92.9107 93.8141 93.2293C94.3248 93.5785 94.7569 94.0499 95.1149 94.5431C96.5553 96.5903 96.3457 99.5933 94.5692 101.37C92.4698 103.229 90.2961 104.831 88.0045 106.437C89.4667 104.783 91.0206 103.229 92.6007 101.71C94.1851 100.401 95.2196 98.633 94.6304 96.5597C94.3423 95.3899 93.5217 94.4078 92.4872 93.8186C91.7888 93.4388 91.0163 93.0198 90.331 92.6226C88.4235 91.5401 86.5336 90.4227 84.7047 89.1831H84.7003Z" fill="#3A3027"/>
<path d="M66.6954 83.6964C64.6657 84.0806 62.9983 86.0273 63.2733 88.0962C63.4304 89.7941 65.0193 91.1996 66.6561 91.0949C67.7997 91.0556 70.1043 91.0207 71.2479 91.0163C72.3915 91.0163 74.6961 91.0556 75.8397 91.0905C79.8816 91.0381 80.3879 85.6563 76.8786 84.0718C76.5468 83.8929 76.1802 83.7968 75.8004 83.6964C77.3412 83.3516 79.2094 84.0325 80.2657 85.5122C82.7929 88.9648 80.1347 93.8753 75.879 93.9888C74.5128 94.0542 72.6228 94.0542 71.2479 94.0717C69.8686 94.0499 67.9917 94.0542 66.6168 93.9888C62.3654 93.8753 59.7072 88.9692 62.2345 85.5166C63.2908 84.0369 65.1589 83.3516 66.6954 83.6964Z" fill="#3A3027"/>
<path opacity="0.3" d="M108.227 40.3013H33.7275V58.5725C77.4765 58.5725 91.3741 61.1653 108.227 76.6561V40.3013Z" fill="#3A3027"/>
<path d="M87.424 3.27393H55.0717C42.7061 3.27393 32.6801 13.3 32.6801 25.6656V48.3017L51.5668 40.266C64.1419 34.9147 78.3539 34.9147 90.929 40.266L109.816 48.3017V25.6656C109.816 13.3 99.7896 3.27393 87.424 3.27393Z" fill="#255A40"/>
<mask id="mask1_74_2861" style="mask-type:luminance" maskUnits="userSpaceOnUse" x="32" y="3" width="78" height="46">
<path d="M87.424 3.27393H55.0717C42.7061 3.27393 32.6801 13.3 32.6801 25.6656V48.3017L51.5668 40.266C64.1419 34.9147 78.3539 34.9147 90.929 40.266L109.816 48.3017V25.6656C109.816 13.3 99.7896 3.27393 87.424 3.27393Z" fill="white"/>
</mask>
<g mask="url(#mask1_74_2861)">
<path d="M71.248 3.98975H30.8774V51.6059H71.248V3.98975Z" fill="#367E5B"/>
<path d="M63.736 3.98975H78.7555C88.0875 3.98975 95.6605 11.5628 95.6605 20.8948V47.5859H46.8309V20.8948C46.8309 11.5628 54.4039 3.98975 63.736 3.98975Z" fill="#2B6E4F"/>
</g>
<path d="M87.424 3.27393H55.0717C42.7061 3.27393 32.6801 13.3 32.6801 25.6656V48.3017L51.5668 40.266C64.1419 34.9147 78.3539 34.9147 90.929 40.266L109.816 48.3017V25.6656C109.816 13.3 99.7897 3.27393 87.424 3.27393Z" stroke="#3A3027" stroke-width="6.11079" stroke-linejoin="round"/>
<path d="M113.552 47.717C89.074 27.4029 53.4175 27.4029 28.9394 47.717C26.2812 49.9212 25.7705 53.4131 27.6038 55.1852C29.4457 56.9617 32.6103 56.6824 34.8363 54.8448C55.9011 37.3635 86.586 37.3635 107.655 54.8448C109.886 56.6824 113.046 56.9617 114.888 55.1852C116.725 53.4175 116.215 49.9212 113.552 47.717Z" fill="#2B6E4F"/>
<path d="M113.552 47.717C89.074 27.4029 53.4175 27.4029 28.9394 47.717C26.2812 49.9212 25.7705 53.4131 27.6038 55.1852C29.4457 56.9617 32.6103 56.6824 34.8363 54.8448C55.9011 37.3635 86.586 37.3635 107.655 54.8448C109.886 56.6824 113.046 56.9617 114.888 55.1852C116.725 53.4175 116.215 49.9212 113.552 47.717Z" stroke="#3A3027" stroke-width="4.36485" stroke-linejoin="round"/>
<path d="M57.3415 23.8148C56.9748 23.4219 56.7915 22.7672 56.7915 21.8549C56.7915 21.1304 56.9137 20.3491 57.1581 19.511C57.4026 18.6773 57.7954 17.9571 58.341 17.3591C58.8823 16.7612 59.5719 16.4644 60.41 16.4644C60.9294 16.4644 61.3484 16.5778 61.6627 16.8048C61.9769 17.0318 62.1384 17.381 62.1384 17.8524C62.1384 18.1492 62.0817 18.3849 61.9639 18.5508C61.846 18.7166 61.6627 18.8039 61.4139 18.8039C61.1651 18.8039 60.9687 18.7123 60.8246 18.5333C60.9468 18.4722 61.0603 18.3456 61.1564 18.1623C61.2524 17.9746 61.3004 17.7825 61.3004 17.5818C61.3004 17.3941 61.2524 17.2413 61.152 17.1278C61.0516 17.01 60.8901 16.9532 60.6719 16.9532C60.3052 16.9532 59.956 17.202 59.6243 17.704C59.2926 18.2059 59.0263 18.8345 58.8212 19.594C58.616 20.3534 58.5156 21.0867 58.5156 21.7895C58.5156 22.3133 58.6073 22.7148 58.7862 22.9898C58.9652 23.2648 59.2926 23.4045 59.7596 23.4045C60.1655 23.4045 60.5453 23.3128 60.8901 23.1338C61.2349 22.9549 61.5317 22.6974 61.7805 22.3656L62.0206 22.4704C61.846 22.9069 61.5928 23.2692 61.2524 23.5572C60.9119 23.8453 60.5496 24.0592 60.1655 24.1945C59.7771 24.3298 59.4104 24.3953 59.0656 24.3953C58.2843 24.3953 57.7125 24.1989 57.3458 23.806L57.3415 23.8148Z" fill="white"/>
<path d="M62.0032 23.8979C61.7413 23.6273 61.6104 23.2082 61.6104 22.6321C61.6104 22.1214 61.7107 21.5845 61.9159 21.0214C62.121 20.4584 62.4222 19.9826 62.8281 19.5898C63.2341 19.2013 63.7142 19.0049 64.2729 19.0049C64.5566 19.0049 64.7661 19.0529 64.9058 19.1489C65.0455 19.2449 65.111 19.3715 65.111 19.533V19.6072L65.2244 19.0573H66.7172L65.9708 22.5797C65.9446 22.6845 65.9316 22.7936 65.9316 22.9114C65.9316 23.2082 66.0712 23.3566 66.3549 23.3566C66.547 23.3566 66.7172 23.265 66.8569 23.086C66.9966 22.9071 67.1101 22.6714 67.193 22.3833H67.6295C67.372 23.1297 67.0577 23.636 66.6823 23.9022C66.3069 24.1685 65.9272 24.2994 65.5474 24.2994C65.2594 24.2994 65.0237 24.2165 64.8491 24.055C64.6745 23.8935 64.5654 23.6535 64.5348 23.3435C64.334 23.6273 64.1114 23.8586 63.867 24.0332C63.6225 24.2078 63.3301 24.2994 62.9896 24.2994C62.5968 24.2994 62.2694 24.1641 62.0032 23.8935V23.8979ZM64.1725 23.0555C64.3427 22.894 64.4562 22.6714 64.5173 22.3876L65.0149 20.0437C65.0149 19.9521 64.98 19.8648 64.9102 19.7775C64.8403 19.6902 64.7356 19.6465 64.5872 19.6465C64.3122 19.6465 64.0634 19.808 63.8408 20.1266C63.6182 20.4496 63.448 20.8338 63.3214 21.2877C63.1948 21.7416 63.1337 22.1388 63.1337 22.4837C63.1337 22.8285 63.1817 23.0511 63.2821 23.1471C63.3825 23.2432 63.5047 23.2912 63.6487 23.2912C63.8233 23.2912 63.9936 23.2082 64.1638 23.0467L64.1725 23.0555Z" fill="white"/>
<path d="M67.4548 23.8978C67.193 23.6272 67.062 23.2082 67.062 22.632C67.062 22.1213 67.1624 21.5844 67.3676 21.0214C67.5727 20.4583 67.8739 19.9825 68.2798 19.5897C68.6857 19.2012 69.1659 19.0048 69.7246 19.0048C70.0083 19.0048 70.2178 19.0528 70.3575 19.1489C70.4972 19.2449 70.5626 19.3715 70.5626 19.533V19.5722L71.0689 17.189L72.601 16.9839L71.4094 22.5796C71.3832 22.6844 71.3658 22.7935 71.3658 22.9114C71.3658 23.051 71.3963 23.1471 71.4661 23.2082C71.5316 23.2649 71.6407 23.2955 71.7935 23.2955C71.9856 23.2955 72.1558 23.2125 72.2955 23.0467C72.4351 22.8808 72.5486 22.6582 72.6316 22.3832H73.068C72.6447 23.6185 71.9506 24.2383 70.986 24.2383C70.7023 24.2383 70.471 24.1641 70.2964 24.0113C70.1218 23.8585 70.0127 23.6403 69.969 23.3478C69.79 23.6228 69.5718 23.8542 69.323 24.0331C69.0698 24.2121 68.7774 24.3037 68.4369 24.3037C68.0441 24.3037 67.7167 24.1684 67.4505 23.8978H67.4548ZM69.6154 23.0685C69.7857 22.9157 69.8992 22.7062 69.9646 22.4356V22.3832L70.471 20.0087C70.4099 19.7687 70.2658 19.6464 70.0476 19.6464C69.7726 19.6464 69.5238 19.8079 69.3012 20.1266C69.0786 20.4496 68.9083 20.8337 68.7818 21.2876C68.6552 21.7416 68.5941 22.1388 68.5941 22.4836C68.5941 22.8284 68.6421 23.051 68.7425 23.1471C68.8429 23.2431 68.9651 23.2911 69.1091 23.2911C69.275 23.2911 69.4409 23.2169 69.6111 23.0641L69.6154 23.0685Z" fill="white"/>
<path d="M72.8934 23.8978C72.6316 23.6272 72.5006 23.2082 72.5006 22.632C72.5006 22.1213 72.601 21.5844 72.8062 21.0214C73.0113 20.4583 73.3125 19.9825 73.7184 19.5897C74.1243 19.1969 74.6045 19.0048 75.1632 19.0048C75.4469 19.0048 75.6564 19.0528 75.7961 19.1489C75.9358 19.2449 76.0012 19.3715 76.0012 19.533V19.5722L76.5075 17.189L78.0396 16.9839L76.848 22.5796C76.8218 22.6844 76.8087 22.7935 76.8087 22.9114C76.8087 23.051 76.8393 23.1471 76.9091 23.2082C76.979 23.2693 77.0837 23.2955 77.2365 23.2955C77.4285 23.2955 77.5988 23.2125 77.7384 23.0467C77.8781 22.8808 77.9916 22.6582 78.0745 22.3832H78.511C78.0876 23.6185 77.3936 24.2383 76.429 24.2383C76.1453 24.2383 75.9139 24.1641 75.7393 24.0113C75.5647 23.8585 75.4556 23.6403 75.412 23.3478C75.233 23.6228 75.0148 23.8542 74.766 24.0331C74.5128 24.2121 74.2204 24.3037 73.8799 24.3037C73.4871 24.3037 73.1597 24.1684 72.8934 23.8978ZM75.0541 23.0685C75.2243 22.9157 75.3378 22.7062 75.4032 22.4356V22.3832L75.9096 20.0087C75.8485 19.7687 75.7044 19.6464 75.4862 19.6464C75.2112 19.6464 74.9624 19.8079 74.7398 20.1266C74.5172 20.4496 74.3469 20.8337 74.2204 21.2876C74.0981 21.7416 74.0327 22.1388 74.0327 22.4836C74.0327 22.8284 74.0807 23.051 74.1811 23.1471C74.2815 23.2431 74.4037 23.2911 74.5477 23.2911C74.7136 23.2911 74.8795 23.2169 75.0497 23.0641L75.0541 23.0685Z" fill="white"/>
<path d="M78.2971 23.9939C78.092 23.7888 77.9916 23.4745 77.9916 23.0598C77.9916 22.8853 78.0178 22.6626 78.0745 22.3877L78.7773 19.0616H80.27L79.5236 22.5841C79.4974 22.6888 79.4844 22.798 79.4844 22.9158C79.4844 23.0555 79.5149 23.1515 79.5847 23.2126C79.6502 23.2694 79.7593 23.2999 79.9121 23.2999C80.1129 23.2999 80.3006 23.217 80.4708 23.0468C80.6454 22.8765 80.7676 22.6583 80.8418 22.3877H81.2783C81.0208 23.134 80.6934 23.6404 80.2919 23.9066C79.8903 24.1729 79.4931 24.3038 79.1002 24.3038C78.7685 24.3038 78.5023 24.1991 78.2971 23.9939ZM79.2268 18.2629C79.0697 18.1057 78.9868 17.9093 78.9868 17.6823C78.9868 17.4554 79.0653 17.259 79.2268 17.0975C79.384 16.936 79.5804 16.853 79.8074 16.853C80.0343 16.853 80.2307 16.936 80.3922 17.0975C80.5537 17.259 80.6367 17.4554 80.6367 17.6823C80.6367 17.9093 80.5537 18.1057 80.3922 18.2629C80.2307 18.42 80.0343 18.5029 79.8074 18.5029C79.5804 18.5029 79.384 18.4244 79.2268 18.2629Z" fill="white"/>
<path d="M81.1213 23.9024C80.8376 23.6362 80.6979 23.2215 80.6979 22.6541C80.6979 22.1783 80.7895 21.6545 80.9772 21.0784C81.1649 20.5066 81.4661 20.009 81.8895 19.59C82.3129 19.1709 82.8454 18.9614 83.4957 18.9614C84.2552 18.9614 84.635 19.2932 84.635 19.9566C84.635 20.3451 84.5259 20.6986 84.3032 21.026C84.0806 21.349 83.7882 21.6109 83.4215 21.8073C83.0549 22.0037 82.6664 22.1172 82.2518 22.1434C82.2387 22.2962 82.2299 22.4009 82.2299 22.4533C82.2299 23.0251 82.4438 23.3132 82.8716 23.3132C83.0636 23.3132 83.2731 23.2608 83.4914 23.156C83.714 23.0513 83.9104 22.9203 84.0937 22.7632C83.906 23.7846 83.3081 24.2953 82.2998 24.2953C81.7935 24.2953 81.4006 24.1643 81.1169 23.8981L81.1213 23.9024ZM83.068 21.3926C83.2993 21.2268 83.487 21.0129 83.6267 20.7554C83.7664 20.4979 83.8406 20.2272 83.8406 19.9435C83.8406 19.6598 83.7533 19.5201 83.583 19.5201C83.343 19.5201 83.1029 19.7384 82.8628 20.1792C82.6228 20.6201 82.4482 21.1089 82.3303 21.6545C82.5922 21.6458 82.841 21.5629 83.0724 21.397L83.068 21.3926Z" fill="white"/>
<path opacity="0.8" d="M97.8167 81.584L85.1237 84.5695C80.2875 85.7088 75.4992 82.5006 74.7092 77.5989L72.5486 64.2031H106.686L104.757 74.3427C104.076 77.9175 101.357 80.7546 97.8167 81.5883V81.584Z" fill="url(#paint0_linear_74_2861)"/>
<path opacity="0.8" d="M44.6747 81.584L57.3677 84.5695C62.2039 85.7088 66.9922 82.5006 67.7822 77.5989L69.9428 64.2031H35.8053L37.7346 74.3427C38.4155 77.9175 41.1348 80.7546 44.6747 81.5883V81.584Z" fill="url(#paint1_linear_74_2861)"/>
<path d="M33.7275 64.2031H108.768" stroke="#2B6E4F" stroke-width="4.36485" stroke-linecap="round" stroke-linejoin="round"/>
</g>
<defs>
<linearGradient id="paint0_linear_74_2861" x1="72.5529" y1="74.4998" x2="106.69" y2="74.4998" gradientUnits="userSpaceOnUse">
<stop stop-color="#CB8E5B"/>
<stop offset="1" stop-color="#623A1C"/>
</linearGradient>
<linearGradient id="paint1_linear_74_2861" x1="69.9428" y1="74.4998" x2="35.8009" y2="74.4998" gradientUnits="userSpaceOnUse">
<stop stop-color="#CB8E5B"/>
<stop offset="1" stop-color="#623A1C"/>
</linearGradient>
<clipPath id="clip0_74_2861">
<rect width="106.328" height="244.903" fill="white" transform="translate(18.084 0.21875)"/>
</clipPath>
</defs>
</svg>
