<svg width="823" height="948" viewBox="0 0 823 948" fill="none" xmlns="http://www.w3.org/2000/svg">
<g clip-path="url(#clip0_156_208)">
<path opacity="0.3" d="M462.31 947.06C567.973 947.06 653.63 936.279 653.63 922.98C653.63 909.681 567.973 898.9 462.31 898.9C356.647 898.9 270.99 909.681 270.99 922.98C270.99 936.279 356.647 947.06 462.31 947.06Z" fill="#3A3027"/>
<path d="M276.38 756.66L289.67 767.25L351.02 692.08L301.2 652.36L269.32 691.42C253.04 711.36 256.21 740.57 276.39 756.65L276.38 756.66Z" fill="#EBC09B" stroke="#3A3027" stroke-width="17.67" stroke-linejoin="round"/>
<path d="M400.71 631.19L380.3 622.51C356.37 612.33 328.51 619.15 312.16 639.19L301.32 652.47L351.02 692.09L400.72 631.2L400.71 631.19Z" fill="white"/>
<path d="M400.71 631.19L380.3 622.51C356.37 612.33 328.51 619.15 312.16 639.19L301.32 652.47L351.02 692.09L400.72 631.2L400.71 631.19Z" stroke="#3A3027" stroke-width="17.67" stroke-linejoin="round"/>
<path d="M700.84 612.53V629.13C700.84 654.88 679.93 675.79 654.18 675.79H603.13V612.53H700.84Z" fill="#EBC09B" stroke="#3A3027" stroke-width="17.67" stroke-linejoin="round"/>
<path d="M523.97 612.53L541.8 675.63H603.13V612.53H523.97Z" fill="white"/>
<mask id="mask0_156_208" style="mask-type:luminance" maskUnits="userSpaceOnUse" x="523" y="612" width="81" height="64">
<path d="M523.97 612.53L541.8 675.63H603.13V612.53H523.97Z" fill="white"/>
</mask>
<g mask="url(#mask0_156_208)">
<path d="M542.32 638.8C513.95 616.16 518.8 661.14 541.71 633.1C518.8 661.14 564.32 656.35 535.95 633.71C564.32 656.35 559.47 611.37 536.56 639.41C559.47 611.37 513.95 616.16 542.32 638.8Z" fill="white"/>
</g>
<path d="M523.97 612.53L541.8 675.63H603.13V612.53H523.97Z" stroke="#3A3027" stroke-width="17.67" stroke-linejoin="round"/>
<path d="M462.32 834.38H389.57V897.36H462.32V834.38Z" fill="#EBC09B" stroke="#3A3027" stroke-width="17.67" stroke-linejoin="round"/>
<path d="M462.31 897.37H535.06V834.39H462.31V897.37Z" fill="#EBC09B" stroke="#3A3027" stroke-width="17.67" stroke-linejoin="round"/>
<path d="M385.82 749.57H538.81C551.12 749.57 561.11 759.56 561.11 771.87V854.47H363.52V771.87C363.52 759.56 373.51 749.57 385.82 749.57Z" fill="white" stroke="#3A3027" stroke-width="17.67" stroke-linejoin="round"/>
<path d="M561.91 614.39L464.12 584.79L362.71 614.39V729.84C362.71 740.71 371.62 749.51 382.62 749.51H542.01C553 749.51 561.92 740.7 561.92 729.84V614.39H561.91Z" fill="white"/>
<path d="M561.91 614.39L464.12 584.79L362.71 614.39V729.84C362.71 740.71 371.62 749.51 382.62 749.51H542.01C553 749.51 561.92 740.7 561.92 729.84V614.39H561.91Z" stroke="#3A3027" stroke-width="17.67" stroke-linejoin="round"/>
<path d="M492.34 603.25L462.31 573.57L432.29 603.25L462.31 640.24L492.34 603.25Z" fill="#EBC09B" stroke="#3A3027" stroke-width="6.31" stroke-linejoin="round"/>
<circle cx="462.31" cy="654.23" r="3.785" fill="white"/>
<circle cx="462.31" cy="680.43" r="3.785" fill="white"/>
<path d="M537.09 609.45L472.74 645.86L533.03 603.06L537.09 609.45Z" fill="#3A3027"/>
<path d="M391.6 603.06L451.88 645.86L387.54 609.45L391.6 603.06Z" fill="#3A3027"/>
<path d="M453.48 854.47L462.31 802.02L471.14 854.47H453.48Z" fill="#3A3027"/>
<path d="M448.99 755.34H472.45C474.21 755.34 475.64 753.93 475.64 752.18V746.97C475.64 745.23 474.21 743.81 472.45 743.81H448.99" stroke="#9A9A9A" stroke-width="5.05" stroke-miterlimit="10"/>
<path d="M589.34 919.64H462.31V893.52H563.22C577.64 893.52 589.34 905.22 589.34 919.64Z" fill="white" stroke="#3A3027" stroke-width="15.14" stroke-linejoin="round"/>
<path d="M361.4 893.53H462.31V919.65H335.28C335.28 905.23 346.98 893.53 361.4 893.53Z" fill="white" stroke="#3A3027" stroke-width="15.14" stroke-linejoin="round"/>
<path d="M521.09 758.27V776.15C521.09 781.43 525.42 785.71 530.76 785.71H552.14" stroke="#636363" stroke-width="5.05" stroke-linejoin="round"/>
<path d="M403.53 758.27V776.15C403.53 781.43 399.2 785.71 393.86 785.71H372.48" stroke="#636363" stroke-width="5.05" stroke-linejoin="round"/>
<path d="M557.58 487.62C573.265 487.62 585.98 470.598 585.98 449.6C585.98 428.602 573.265 411.58 557.58 411.58C541.895 411.58 529.18 428.602 529.18 449.6C529.18 470.598 541.895 487.62 557.58 487.62Z" fill="#CF9D76" stroke="#3A3027" stroke-width="17.67" stroke-linejoin="round"/>
<path d="M345.31 520.193C360.181 515.258 366.867 495.08 360.245 475.125C353.622 455.17 336.198 442.994 321.327 447.929C306.456 452.864 299.77 473.042 306.393 492.997C313.016 512.952 330.44 525.128 345.31 520.193Z" fill="#F5DFCD" stroke="#3A3027" stroke-width="17.67" stroke-linejoin="round"/>
<path d="M534.19 333.19L558.25 486.11L561.33 505.66C568.45 550.9 537.11 593.28 491.34 600.31L442.74 607.78C396.97 614.81 354.09 583.84 346.97 538.6L343.89 519.05L319.83 366.13L534.2 333.19H534.19Z" fill="#EBC09B"/>
<path d="M318.49 357.62L430.62 340.39L471.51 600.3L451.86 603.32C400.79 611.17 352.94 576.61 345 526.13L318.49 357.62Z" fill="#F5DFCD"/>
<path d="M501.64 493.18C518.319 493.18 531.84 479.816 531.84 463.33C531.84 446.844 518.319 433.48 501.64 433.48C484.961 433.48 471.44 446.844 471.44 463.33C471.44 479.816 484.961 493.18 501.64 493.18Z" fill="#EFD0B4"/>
<path d="M390.82 510.21C407.499 510.21 421.02 496.846 421.02 480.36C421.02 463.874 407.499 450.51 390.82 450.51C374.141 450.51 360.62 463.874 360.62 480.36C360.62 496.846 374.141 510.21 390.82 510.21Z" fill="#EFD0B4"/>
<path d="M556.41 474.39L449.23 490.86L342.05 507.33L347.94 544.79C354.58 586.97 394.55 615.84 437.22 609.28L497.05 600.09C539.72 593.53 568.94 554.03 562.31 511.85L556.42 474.39H556.41Z" fill="#BC682A"/>
<path d="M490.24 342.99L514.65 498.18L516.3 508.69C520.13 533.02 501.5 556.08 474.7 560.2L446.24 564.57C419.44 568.69 394.61 552.31 390.78 527.98L389.13 517.47L364.72 362.28L490.24 342.99Z" fill="#EFD0B4"/>
<path d="M534.19 333.19L558.25 486.11L561.33 505.66C568.45 550.9 537.11 593.28 491.34 600.31L442.74 607.78C396.97 614.81 354.09 583.84 346.97 538.6L343.89 519.05L319.83 366.13L534.2 333.19H534.19Z" stroke="#3A3027" stroke-width="21.25" stroke-linejoin="round"/>
<path d="M477.78 480.36L418.8 489.42C400.43 492.24 387.85 509.25 390.7 527.41L516.22 508.12C513.36 489.96 496.15 477.53 477.78 480.35V480.36Z" fill="#BC682A"/>
<path d="M474.718 412.193L494.436 412.885C505.159 413.262 513.558 422.272 513.182 432.995L513.181 433.015L454.607 430.959L454.608 430.939C454.985 420.216 463.995 411.817 474.718 412.193Z" fill="#BC682A"/>
<path d="M501.99 438.54C493.37 447.84 478.53 449.03 468.39 441.56C466.84 440.41 465.29 439.11 463.76 437.2L463.8 436.19C470.01 436.03 476.75 436.18 482.93 436.36C487.54 436.55 492.64 436.79 497.26 437.12L502.03 437.54L501.99 438.55V438.54Z" fill="#3A3027"/>
<path d="M370.56 454.96L425.74 435.42C422.07 425.3 410.8 420.04 400.56 423.66L382.45 430.07C372.21 433.7 366.89 444.84 370.56 454.95V454.96Z" fill="#BC682A"/>
<path d="M382.53 455.89C394.22 451.03 406.41 446.72 418.55 443.14L418.89 444.09C416.11 451.03 410.47 456.13 403.75 458.55C397.13 460.96 389.19 460.45 382.88 456.84L382.54 455.89H382.53Z" fill="#3A3027"/>
<path d="M433.85 471.26C427.41 472.25 423 478.21 424 484.58C425 490.95 431.04 495.31 437.48 494.32L461.48 490.63C467.92 489.64 472.33 483.68 471.33 477.31C470.33 470.94 464.29 466.58 457.85 467.57" fill="#EFD0B4"/>
<path d="M433.85 471.26C426.78 473.95 423.93 482.66 429.14 487.9C431.21 489.96 434.17 490.73 436.77 490.2C438.7 489.82 440.77 489.47 442.76 489.11C448.13 488.18 455.5 487.11 460.91 486.48C465.1 486.15 468.65 482.09 468.45 477.71C468.23 472.23 463.82 468.11 457.85 467.58C464.38 464.85 472.53 469.53 474.18 476.77C476.32 484.75 470.49 493.33 462.26 494.75C460.18 495.16 458.22 495.49 456.2 495.86C450.54 496.8 443.66 497.85 437.97 498.47C426.6 499.96 417.24 488.04 422.68 477.74C424.94 473.38 429.67 470.9 433.85 471.26Z" fill="#3A3027"/>
<path opacity="0.3" d="M535.76 353.27L322.95 385.97L331.07 437.56C456.04 418.36 496.89 419.58 551.91 455.91L535.76 353.27Z" fill="#3A3027"/>
<path d="M481.08 279.11L434.22 274.27C421.51 272.96 408.68 274.93 396.98 279.99L353.82 298.66C327.15 310.2 311.69 338.04 316.16 366.47L324.41 418.9L430.98 374.85L546.05 384.84L537.8 332.41C533.33 303.98 510.04 282.09 481.09 279.1L481.08 279.11Z" fill="#BABCBE"/>
<mask id="mask1_156_208" style="mask-type:luminance" maskUnits="userSpaceOnUse" x="315" y="273" width="232" height="146">
<path d="M481.08 279.11L434.22 274.27C421.51 272.96 408.68 274.93 396.98 279.99L353.82 298.66C327.15 310.2 311.69 338.04 316.16 366.47L324.41 418.9L430.98 374.85L546.05 384.84L537.8 332.41C533.33 303.98 510.04 282.09 481.09 279.1L481.08 279.11Z" fill="white"/>
</mask>
<g mask="url(#mask1_156_208)">
<path d="M283.34 283L417.12 262.44L441.86 419.7L308.08 440.26L283.34 283Z" fill="white"/>
<path d="M450.94 281.23L426 278.65C419.24 277.95 412.41 279 406.18 281.7L383.21 291.64C369.01 297.78 360.78 312.6 363.16 327.74L376.74 414.09L435.4 402.97L494.71 395.97L481.13 309.62C478.75 294.49 466.35 282.84 450.94 281.24V281.23Z" fill="#EFF0F0"/>
</g>
<path d="M481.08 279.11L434.22 274.27C421.51 272.96 408.68 274.93 396.98 279.99L353.82 298.66C327.15 310.2 311.69 338.04 316.16 366.47L324.41 418.9L430.98 374.85L546.05 384.84L537.8 332.41C533.33 303.98 510.04 282.09 481.09 279.1L481.08 279.11Z" stroke="#3A3027" stroke-width="17.67" stroke-linejoin="round"/>
<path d="M570.64 391.08C484.58 335.39 378.98 353.56 319.7 417.96C313.18 424.96 313.4 434.2 319.32 438.02C325.26 441.86 333.93 439.95 339.45 434.18C390.84 379.34 483.41 363.44 559.1 414.1C567.04 419.45 576.42 419.92 580.25 413.91C584.08 407.92 579.89 397.08 570.63 391.08H570.64Z" fill="#EFF0F0"/>
<path d="M570.64 391.08C484.58 335.39 378.98 353.56 319.7 417.96C313.18 424.96 313.4 434.2 319.32 438.02C325.26 441.86 333.93 439.95 339.45 434.18C390.84 379.34 483.41 363.44 559.1 414.1C567.04 419.45 576.42 419.92 580.25 413.91C584.08 407.92 579.89 397.08 570.63 391.08H570.64Z" stroke="#3A3027" stroke-width="12.62" stroke-linejoin="round"/>
<path d="M497.62 522.91C495.66 510.44 475.12 503.24 451.74 506.83C428.36 510.42 411 523.44 412.97 535.91L497.62 522.9V522.91Z" fill="white" stroke="#CA8B83" stroke-width="7.57" stroke-linejoin="round"/>
<path d="M92.04 603.8H254.44" stroke="#0F7E7B" stroke-width="14" stroke-linejoin="round"/>
<path d="M161.79 608.75H181.94C183.46 608.75 184.68 607.54 184.68 606.04V601.56C184.68 600.06 183.45 598.85 181.94 598.85H161.79" stroke="white" stroke-width="4" stroke-miterlimit="10"/>
<path d="M284.83 103.15L242.75 122.59L207.86 48.93L236.5 48.53C250.07 48.34 262.49 56.03 268.24 68.18L284.83 103.15Z" fill="#FB942C"/>
<mask id="mask2_156_208" style="mask-type:luminance" maskUnits="userSpaceOnUse" x="207" y="48" width="78" height="75">
<path d="M284.83 103.15L242.75 122.59L207.86 48.93L236.5 48.53C250.07 48.34 262.49 56.03 268.24 68.18L284.83 103.15Z" fill="white"/>
</mask>
<g mask="url(#mask2_156_208)">
<path d="M264.01 50.36L250.15 56.76C241.74 60.65 238.11 70.54 242.04 78.85L248.52 92.55L262.38 86.15C270.79 82.26 274.42 72.37 270.49 64.06L264.01 50.36Z" stroke="#FFDA00" stroke-width="5" stroke-linejoin="round"/>
</g>
<path d="M284.83 103.15L242.75 122.59L207.86 48.93L236.5 48.53C250.07 48.34 262.49 56.03 268.24 68.18L284.83 103.15Z" stroke="#3A3027" stroke-width="14" stroke-linejoin="round"/>
<path d="M81.41 197.13L123.49 177.69L88.68 103.99L70 125.45C61.15 135.62 59.15 149.97 64.9 162.12L81.41 197.13Z" fill="#FB942C"/>
<mask id="mask3_156_208" style="mask-type:luminance" maskUnits="userSpaceOnUse" x="61" y="103" width="63" height="95">
<path d="M81.41 197.13L123.49 177.69L88.68 103.99L70 125.45C61.15 135.62 59.15 149.97 64.9 162.12L81.41 197.13Z" fill="white"/>
</mask>
<g mask="url(#mask3_156_208)">
<path d="M53.78 147.48L67.64 141.08C76.05 137.19 86.06 140.78 89.99 149.1L96.47 162.8L82.61 169.2C74.2 173.09 64.19 169.5 60.26 161.18L53.78 147.48Z" stroke="#FFDA00" stroke-width="5" stroke-linejoin="round"/>
</g>
<path d="M81.41 197.13L123.49 177.69L88.68 103.99L70 125.45C61.15 135.62 59.15 149.97 64.9 162.12L81.41 197.13Z" stroke="#3A3027" stroke-width="14" stroke-linejoin="round"/>
<path d="M207.77 48.75L168.53 48.77L157.22 92.61L116.19 72.11L88.59 103.81L141.7 216.09C144.56 222.13 151.82 224.73 157.93 221.91L254.99 177.07C261.1 174.25 263.74 167.07 260.88 161.03L207.77 48.75Z" fill="#FB942C"/>
<mask id="mask4_156_208" style="mask-type:luminance" maskUnits="userSpaceOnUse" x="88" y="48" width="175" height="176">
<path d="M207.77 48.75L168.53 48.77L157.22 92.61L116.19 72.11L88.59 103.81L141.7 216.09C144.56 222.13 151.82 224.73 157.93 221.91L254.99 177.07C261.1 174.25 263.74 167.07 260.88 161.03L207.77 48.75Z" fill="white"/>
</mask>
<g mask="url(#mask4_156_208)">
<path d="M182.9 145.25L169.04 151.65C160.63 155.54 157 165.43 160.93 173.74L167.41 187.44L181.27 181.04C189.68 177.15 193.31 167.26 189.38 158.95L182.9 145.25Z" stroke="#FFDA00" stroke-width="5" stroke-linejoin="round"/>
<path d="M151.17 191.16L137.31 197.56C128.9 201.45 125.27 211.34 129.2 219.65L135.68 233.35L149.54 226.95C157.95 223.06 161.58 213.17 157.65 204.86L151.17 191.16Z" stroke="#FFDA00" stroke-width="5" stroke-linejoin="round"/>
<path d="M104.55 137.55L118.41 131.15C126.82 127.26 136.83 130.85 140.76 139.17L147.24 152.87L133.38 159.27C124.97 163.16 114.96 159.57 111.03 151.25L104.55 137.55Z" stroke="#FFDA00" stroke-width="5" stroke-linejoin="round"/>
<path d="M186.12 83.71L172.26 90.11C163.85 94 160.22 103.89 164.15 112.2L170.63 125.9L184.49 119.5C192.9 115.61 196.53 105.72 192.6 97.41L186.12 83.71Z" stroke="#FFDA00" stroke-width="5" stroke-linejoin="round"/>
<path d="M210.08 33L196.22 39.4C187.81 43.29 184.18 53.18 188.11 61.49L194.59 75.19L208.45 68.79C216.86 64.9 220.49 55.01 216.56 46.7L210.08 33Z" stroke="#FFDA00" stroke-width="5" stroke-linejoin="round"/>
<path d="M107.78 76L121.64 69.6C130.05 65.71 140.06 69.3 143.99 77.62L150.47 91.32L136.61 97.72C128.2 101.61 118.19 98.02 114.26 89.7L107.78 76Z" stroke="#FFDA00" stroke-width="5" stroke-linejoin="round"/>
<path d="M226.98 166.17L213.12 172.57C204.71 176.46 201.08 186.35 205.01 194.66L211.49 208.36L225.35 201.96C233.76 198.07 237.39 188.18 233.46 179.87L226.98 166.17Z" stroke="#FFDA00" stroke-width="5" stroke-linejoin="round"/>
<path d="M199.71 130.15L213.57 123.75C221.98 119.86 231.99 123.45 235.92 131.77L242.4 145.47L228.54 151.87C220.13 155.76 210.12 152.17 206.19 143.85L199.71 130.15Z" stroke="#FFDA00" stroke-width="5" stroke-linejoin="round"/>
</g>
<path d="M207.77 48.75L168.53 48.77L157.22 92.61L116.19 72.11L88.59 103.81L141.7 216.09C144.56 222.13 151.82 224.73 157.93 221.91L254.99 177.07C261.1 174.25 263.74 167.07 260.88 161.03L207.77 48.75Z" stroke="#3A3027" stroke-width="14" stroke-linejoin="round"/>
<circle cx="165.37" cy="112.61" r="3" fill="white"/>
<path d="M172.47 127.62L176.02 135.13" stroke="white" stroke-width="6" stroke-linecap="round" stroke-linejoin="round"/>
<circle cx="179.57" cy="142.63" r="3" fill="white"/>
<path d="M203.87 53.53L171.27 100.59L198.77 50.37L203.87 53.53Z" fill="#3A3027"/>
<path d="M95.66 98L152.25 109.37L94.78 103.94L95.66 98Z" fill="#3A3027"/>
<path d="M769.22 368.38L748.03 363.13C729.84 358.62 710.81 358.62 692.62 363.13L671.43 368.38C652.25 373.13 638.8 390.17 638.8 409.71V462.66L720.24 445.19L801.84 462.66V409.71C801.84 390.17 788.39 373.13 769.21 368.38H769.22Z" fill="#FB942C"/>
<path d="M769.22 368.38L748.03 363.13C729.84 358.62 710.81 358.62 692.62 363.13L671.43 368.38C652.25 373.13 638.8 390.17 638.8 409.71V462.66L720.24 445.19L801.84 462.66V409.71C801.84 390.17 788.39 373.13 769.21 368.38H769.22Z" stroke="#3A3027" stroke-width="14" stroke-linejoin="round"/>
<path d="M720.25 358.35L741.11 372.41C758.42 384.08 768.78 403.45 768.78 424.16V467.06" stroke="#3A3027" stroke-width="3" stroke-linejoin="round"/>
<path d="M720.25 358.35L699.39 372.41C682.08 384.08 671.72 403.45 671.72 424.16V467.06" stroke="#3A3027" stroke-width="3" stroke-linejoin="round"/>
<path d="M812.53 467.64C759.2 423.29 681.44 423.29 628.11 467.64C622.39 472.39 621.3 479.91 625.26 483.72C629.23 487.55 636.04 486.95 640.84 482.98C686.81 444.75 753.84 444.75 799.8 482.98C804.59 486.95 811.42 487.55 815.38 483.72C819.34 479.91 818.25 472.39 812.53 467.64Z" fill="#FB942C"/>
<path d="M812.53 467.64C759.2 423.29 681.44 423.29 628.11 467.64C622.39 472.39 621.3 479.91 625.26 483.72C629.23 487.55 636.04 486.95 640.84 482.98C686.81 444.75 753.84 444.75 799.8 482.98C804.59 486.95 811.42 487.55 815.38 483.72C819.34 479.91 818.25 472.39 812.53 467.64Z" stroke="#3A3027" stroke-width="10" stroke-linejoin="round"/>
<path d="M174.77 667.19L138.67 657.76C128.88 655.2 118.59 655.2 108.8 657.76L72.7 667.19C50.39 673.02 34.86 692.96 34.86 715.76V757.81L123.74 736.14L212.62 757.81V715.76C212.62 692.96 197.08 673.01 174.78 667.19H174.77Z" fill="#BABCBE"/>
<mask id="mask5_156_208" style="mask-type:luminance" maskUnits="userSpaceOnUse" x="34" y="655" width="179" height="103">
<path d="M174.77 667.19L138.67 657.76C128.88 655.2 118.59 655.2 108.8 657.76L72.7 667.19C50.39 673.02 34.86 692.96 34.86 715.76V757.81L123.74 736.14L212.62 757.81V715.76C212.62 692.96 197.08 673.01 174.78 667.19H174.77Z" fill="white"/>
</mask>
<g mask="url(#mask5_156_208)">
<path d="M126.74 646.44H19.44V772.56H126.74V646.44Z" fill="white"/>
<path d="M150.9 665.22L131.68 660.2C126.47 658.84 120.99 658.84 115.78 660.2L96.56 665.22C84.69 668.32 76.42 678.94 76.42 691.07V760.32L123.73 758.67L171.04 760.32V691.07C171.04 678.93 162.77 668.32 150.9 665.22Z" fill="#EFF0F0"/>
</g>
<path d="M174.77 667.19L138.67 657.76C128.88 655.2 118.59 655.2 108.8 657.76L72.7 667.19C50.39 673.02 34.86 692.96 34.86 715.76V757.81L123.74 736.14L212.62 757.81V715.76C212.62 692.96 197.08 673.01 174.78 667.19H174.77Z" stroke="#3A3027" stroke-width="14" stroke-linejoin="round"/>
<path d="M216.85 757.43C163 712.65 84.48 712.65 30.63 757.43C24.85 762.22 23.75 769.82 27.75 773.67C31.75 777.54 38.64 776.93 43.48 772.92C89.9 734.32 157.59 734.32 204.01 772.92C208.85 776.93 215.74 777.54 219.74 773.67C223.73 769.82 222.63 762.23 216.86 757.43H216.85Z" fill="#EFF0F0"/>
<path d="M216.85 757.43C163 712.65 84.48 712.65 30.63 757.43C24.85 762.22 23.75 769.82 27.75 773.67C31.75 777.54 38.64 776.93 43.48 772.92C89.9 734.32 157.59 734.32 204.01 772.92C208.85 776.93 215.74 777.54 219.74 773.67C223.73 769.82 222.63 762.23 216.86 757.43H216.85Z" stroke="#3A3027" stroke-width="10" stroke-linejoin="round"/>
<path d="M104.83 692.48H128.29C136.21 692.48 142.64 698.91 142.64 706.83H119.18C111.26 706.83 104.83 700.4 104.83 692.48Z" fill="#E1465B"/>
<path d="M783.3 259.87L739.32 245.2L765.57 168.18L786.54 187.43C796.48 196.55 800.08 210.59 795.74 223.29L783.3 259.88V259.87Z" fill="#D63646" stroke="#3A3027" stroke-width="14" stroke-linejoin="round"/>
<path d="M570.69 188.97L614.67 203.64L641 126.64L612.52 129.4C599.02 130.71 587.55 139.71 583.22 152.42L570.69 188.98V188.97Z" fill="#D63646" stroke="#3A3027" stroke-width="14" stroke-linejoin="round"/>
<path d="M765.64 167.99L737.28 141.23L700.06 160.58L681 122.59L641.07 126.45L601 243.81C598.85 250.12 602.28 256.96 608.66 259.09L710.1 292.92C716.48 295.05 723.41 291.66 725.56 285.35L765.63 167.99H765.64Z" fill="#D63646" stroke="#3A3027" stroke-width="14" stroke-linejoin="round"/>
<circle cx="690.39" cy="185.19" r="3" fill="#3A3027"/>
<path d="M685.03 200.88L682.35 208.73" stroke="#3A3027" stroke-width="6" stroke-linecap="round" stroke-linejoin="round"/>
<circle cx="679.68" cy="216.57" r="3" fill="#3A3027"/>
<path d="M759.5 168.8L703.05 180.53L757.98 163L759.5 168.8Z" fill="#3A3027"/>
<path d="M650.2 127.06L683.17 173.9L645.48 130.77L650.2 127.06Z" fill="#3A3027"/>
<path d="M647.38 610.27H763.47C771.45 610.27 777.93 616.75 777.93 624.73V773.6H632.92V624.73C632.92 616.75 639.4 610.27 647.38 610.27Z" fill="#9A9A9A" stroke="#3A3027" stroke-width="14" stroke-linejoin="round"/>
<path d="M698.42 772.06L705.42 659.92L712.42 772.06H698.42Z" fill="#3A3027"/>
<path d="M690.45 616.75H716.81C718.79 616.75 720.4 615.16 720.4 613.2V607.34C720.4 605.38 718.79 603.79 716.81 603.79H690.45" stroke="white" stroke-width="4" stroke-miterlimit="10"/>
<path opacity="0.8" d="M556.35 69.62L526.54 71.16C515.18 71.74 505.76 62.67 506.05 51.41L506.84 20.67L583.65 34.44L575.03 56.27C571.99 63.96 564.68 69.2 556.36 69.63L556.35 69.62Z" fill="url(#paint0_linear_156_208)"/>
<path opacity="0.8" d="M436.79 48.18L464.09 59.96C474.49 64.45 486.61 59.23 490.46 48.61L500.97 19.61L424.16 5.84003L424.23 29.23C424.25 37.47 429.18 44.9 436.79 48.19V48.18Z" fill="url(#paint1_linear_156_208)"/>
<path d="M419.48 5L588.31 35.27" stroke="#2B6E4F" stroke-width="10" stroke-linecap="round" stroke-linejoin="round"/>
<path d="M206 434.34L149.71 426.33L130.86 455.25L101.99 434.04L50.01 458.31L66.66 564.13L222.65 540.16L206 434.34Z" fill="#B6A580"/>
<mask id="mask6_156_208" style="mask-type:luminance" maskUnits="userSpaceOnUse" x="50" y="426" width="173" height="139">
<path d="M206 434.34L149.71 426.33L130.86 455.25L101.99 434.04L50.01 458.31L66.66 564.13L222.65 540.16L206 434.34Z" fill="white"/>
</mask>
<g mask="url(#mask6_156_208)">
<path d="M65.78 472.42C82.83 449.36 46.99 454.87 70.32 471.72C46.99 454.87 52.56 490.29 69.61 467.23C52.56 490.29 88.4 484.78 65.07 467.93C88.4 484.78 82.83 449.36 65.78 472.42Z" fill="white"/>
<path d="M79.54 517.43C96.59 494.37 60.75 499.88 84.08 516.73C60.75 499.88 66.32 535.3 83.37 512.24C66.32 535.3 102.16 529.79 78.83 512.94C102.16 529.79 96.59 494.37 79.54 517.43Z" fill="white"/>
<path d="M107.58 484.32C124.63 461.26 88.79 466.77 112.12 483.62C88.79 466.77 94.36 502.19 111.41 479.13C94.36 502.19 130.2 496.68 106.87 479.83C130.2 496.68 124.63 461.26 107.58 484.32Z" fill="white"/>
<path d="M123.58 514.15C119.14 485.93 97.73 514.87 126.29 510.48C97.73 514.87 127.02 536.02 122.58 507.8C127.02 536.02 148.43 507.08 119.87 511.47C148.43 507.08 119.14 485.93 123.58 514.15Z" fill="white"/>
<path d="M76.19 552.68C71.75 524.46 50.34 553.4 78.9 549.01C50.34 553.4 79.63 574.55 75.19 546.33C79.63 574.55 101.04 545.61 72.48 550C101.04 545.61 71.75 524.46 76.19 552.68Z" fill="white"/>
<path d="M150.62 541.34C175.19 526.31 139.88 518.1 155.09 542.38C139.88 518.1 131.57 552.99 156.14 537.96C131.57 552.99 166.88 561.2 151.67 536.92C166.88 561.2 175.19 526.31 150.62 541.34Z" fill="white"/>
<path d="M110.58 544.85C127.63 521.79 91.79 527.3 115.12 544.15C91.79 527.3 97.36 562.72 114.41 539.66C97.36 562.72 133.2 557.21 109.87 540.36C133.2 557.21 127.63 521.79 110.58 544.85Z" fill="white"/>
<path d="M158.95 510.85C187.51 506.46 158.22 485.31 162.66 513.53C158.22 485.31 136.81 514.25 165.37 509.86C136.81 514.25 166.1 535.4 161.66 507.18C166.1 535.4 187.51 506.46 158.95 510.85Z" fill="white"/>
<path d="M157.71 444.03C186.27 439.64 156.98 418.49 161.42 446.71C156.98 418.49 135.57 447.43 164.13 443.04C135.57 447.43 164.86 468.58 160.42 440.36C164.86 468.58 186.27 439.64 157.71 444.03Z" fill="white"/>
<path d="M95.54 451.31C124.1 446.92 94.81 425.77 99.25 453.99C94.81 425.77 73.4 454.71 101.96 450.32C73.4 454.71 102.69 475.86 98.25 447.64C102.69 475.86 124.1 446.92 95.54 451.31Z" fill="white"/>
<path d="M166.44 479.59C183.49 456.53 147.65 462.04 170.98 478.89C147.65 462.04 153.22 497.46 170.27 474.4C153.22 497.46 189.06 491.95 165.73 475.1C189.06 491.95 183.49 456.53 166.44 479.59Z" fill="white"/>
<path d="M131.52 460.8C148.57 437.74 112.73 443.25 136.06 460.1C112.73 443.25 118.3 478.67 135.35 455.61C118.3 478.67 154.14 473.16 130.81 456.31C154.14 473.16 148.57 437.74 131.52 460.8Z" fill="white"/>
<path d="M193.97 446.56C211.02 423.5 175.18 429.01 198.51 445.86C175.18 429.01 180.75 464.43 197.8 441.37C180.75 464.43 216.59 458.92 193.26 442.07C216.59 458.92 211.02 423.5 193.97 446.56Z" fill="white"/>
<path d="M197.95 488.83C215 465.77 179.16 471.28 202.49 488.13C179.16 471.28 184.73 506.7 201.78 483.64C184.73 506.7 220.57 501.19 197.24 484.34C220.57 501.19 215 465.77 197.95 488.83Z" fill="white"/>
<path d="M192.79 534.55C209.84 511.49 174 517 197.33 533.85C174 517 179.57 552.42 196.62 529.36C179.57 552.42 215.41 546.91 192.08 530.06C215.41 546.91 209.84 511.49 192.79 534.55Z" fill="white"/>
</g>
<path d="M206 434.34L149.71 426.33L130.86 455.25L101.99 434.04L50.01 458.31L66.66 564.13L222.65 540.16L206 434.34Z" stroke="#3A3027" stroke-width="14" stroke-linejoin="round"/>
<circle cx="132.92" cy="477.53" r="3" fill="white"/>
<circle cx="136.14" cy="498.04" r="3" fill="white"/>
<path d="M185.95 433.46L140.05 469.72L182 428.95L185.95 433.46Z" fill="#3A3027"/>
<path d="M71.25 445.97L123.72 472.23L68.84 451.46L71.25 445.97Z" fill="#3A3027"/>
<path d="M50.01 458.31L33.98 465.51C15.18 473.95 4.38001 493.73 7.55001 513.89L9.65001 527.25L59.65 519.57L50.01 458.31Z" fill="#B6A580"/>
<mask id="mask7_156_208" style="mask-type:luminance" maskUnits="userSpaceOnUse" x="7" y="458" width="53" height="70">
<path d="M50.01 458.31L33.98 465.51C15.18 473.95 4.38001 493.73 7.55001 513.89L9.65001 527.25L59.65 519.57L50.01 458.31Z" fill="white"/>
</mask>
<g mask="url(#mask7_156_208)">
<path d="M35.16 494.26C52.21 471.2 16.37 476.71 39.7 493.56C16.37 476.71 21.94 512.13 38.99 489.07C21.94 512.13 57.78 506.62 34.45 489.77C57.78 506.62 52.21 471.2 35.16 494.26Z" fill="white"/>
</g>
<path d="M50.01 458.31L33.98 465.51C15.18 473.95 4.38001 493.73 7.55001 513.89L9.65001 527.25L59.65 519.57L50.01 458.31Z" stroke="#3A3027" stroke-width="14" stroke-linejoin="round"/>
<path d="M206 434.34L223.49 436.39C243.99 438.79 260.36 454.4 263.54 474.56L265.64 487.92L215.64 495.6L206 434.34Z" fill="#B6A580"/>
<mask id="mask8_156_208" style="mask-type:luminance" maskUnits="userSpaceOnUse" x="206" y="434" width="60" height="62">
<path d="M206 434.34L223.49 436.39C243.99 438.79 260.36 454.4 263.54 474.56L265.64 487.92L215.64 495.6L206 434.34Z" fill="white"/>
</mask>
<g mask="url(#mask8_156_208)">
<path d="M241.08 481.43C219.69 462.23 255.92 460.5 236.49 481.65C255.92 460.51 257.66 496.32 236.27 477.12C257.66 496.32 221.43 498.05 240.86 476.9C221.43 498.04 219.69 462.23 241.08 481.43Z" fill="white"/>
<path d="M229.06 445.34C207.67 426.14 243.9 424.41 224.47 445.56C243.9 424.42 245.64 460.23 224.25 441.03C245.64 460.23 209.41 461.96 228.84 440.81C209.41 461.95 207.67 426.14 229.06 445.34Z" fill="white"/>
</g>
<path d="M206 434.34L223.49 436.39C243.99 438.79 260.36 454.4 263.54 474.56L265.64 487.92L215.64 495.6L206 434.34Z" stroke="#3A3027" stroke-width="14" stroke-linejoin="round"/>
<path d="M449.65 96.6099L338 142.81C328.94 146.56 324.68 156.85 328.47 165.8L354.09 226.28L498.53 166.51L472.91 106.03C469.12 97.0799 458.7 92.8599 449.65 96.6099Z" fill="#414344" stroke="#3A3027" stroke-width="14" stroke-linejoin="round"/>
<path d="M419.87 199.12L410.07 158.05L432.76 193.66L419.87 199.12Z" fill="#3A3027"/>
<path d="M385.87 127.95L403.02 120.85C404.31 120.32 404.92 118.85 404.38 117.58L402.77 113.77C402.23 112.5 400.75 111.89 399.46 112.43L382.31 119.53" stroke="#9A9A9A" stroke-width="4" stroke-miterlimit="10"/>
<path d="M439.49 108.28L445.03 121.35C446.66 125.21 451.16 127.03 455.06 125.41L470.69 118.94" stroke="#636363" stroke-width="4" stroke-linejoin="round"/>
<path d="M353.55 143.84L359.09 156.91C360.72 160.77 358.88 165.21 354.98 166.82L339.35 173.29" stroke="#636363" stroke-width="4" stroke-linejoin="round"/>
<path d="M225.1 295.72L117.04 270.59C109.55 268.85 102.05 273.44 100.29 280.84L81.72 358.84L216.9 390.27L235.47 312.27C237.23 304.87 232.59 297.46 225.1 295.72Z" fill="#17B4B2" stroke="#3A3027" stroke-width="14" stroke-linejoin="round"/>
<path d="M141.44 377.38L164.5 310.75L155.06 380.62L141.44 377.38Z" fill="#3A3027"/>
<path d="M710.98 591.94H682.25C671.619 591.94 663 600.558 663 611.19V611.2C663 621.831 671.619 630.45 682.25 630.45H710.98C721.611 630.45 730.23 621.831 730.23 611.2V611.19C730.23 600.558 721.611 591.94 710.98 591.94Z" fill="#EBC09B" stroke="#3A3027" stroke-width="17.67" stroke-linejoin="round"/>
</g>
<defs>
<linearGradient id="paint0_linear_156_208" x1="502.627" y1="43.4294" x2="579.365" y2="57.5689" gradientUnits="userSpaceOnUse">
<stop stop-color="#CB8E5B"/>
<stop offset="1" stop-color="#623A1C"/>
</linearGradient>
<linearGradient id="paint1_linear_156_208" x1="496.416" y1="44.2443" x2="419.678" y2="30.1048" gradientUnits="userSpaceOnUse">
<stop stop-color="#CB8E5B"/>
<stop offset="1" stop-color="#623A1C"/>
</linearGradient>
<clipPath id="clip0_156_208">
<rect width="822.74" height="947.06" fill="white"/>
</clipPath>
</defs>
</svg>
