<svg width="615" height="686" viewBox="0 0 615 686" fill="none" xmlns="http://www.w3.org/2000/svg">
<circle cx="334.863" cy="335.293" r="167.687" fill="white"/>
<path d="M0.976562 594.493C0.976562 484.036 90.5196 394.493 200.977 394.493H615V695.555H0.976562V594.493Z" fill="#53A07A"/>
<rect x="60.5052" y="41.4382" width="139.462" height="41.5066" rx="20.7533" fill="white"/>
<rect x="501.051" y="137.438" width="139.462" height="41.5066" rx="20.7533" fill="white"/>
<g clip-path="url(#clip0_143_7)">
<path opacity="0.3" d="M185.321 485.576C221.396 485.576 250.641 481.85 250.641 477.255C250.641 472.66 221.396 468.935 185.321 468.935C149.245 468.935 120 472.66 120 477.255C120 481.85 149.245 485.576 185.321 485.576Z" fill="#3A3027"/>
<path d="M207.605 397.677H223.362V417.431C223.362 424.943 217.264 431.037 209.756 431.037H207.608V397.677H207.605Z" fill="#C0A48C" stroke="#3A3027" stroke-width="6.0329" stroke-linejoin="round"/>
<path d="M223.375 398.633H207.619L207.605 370.718L216.461 374.706C220.661 376.598 223.358 380.773 223.358 385.376L223.372 398.633H223.375Z" fill="#D63646" stroke="#3A3027" stroke-width="6.0329" stroke-linejoin="round"/>
<path d="M162.981 431.037H160.834C153.323 431.037 147.228 424.939 147.228 417.431V397.677H162.985V431.037H162.981Z" fill="#C0A48C" stroke="#3A3027" stroke-width="6.0329" stroke-linejoin="round"/>
<path d="M147.211 398.633H162.968L162.981 370.718L154.125 374.706C149.925 376.598 147.228 380.773 147.228 385.376L147.215 398.633H147.211Z" fill="#D63646" stroke="#3A3027" stroke-width="6.0329" stroke-linejoin="round"/>
<path d="M167.686 417.353H202.9C205.338 417.353 207.318 419.333 207.318 421.771V467.555H163.268V421.771C163.268 419.333 165.248 417.353 167.686 417.353Z" fill="#9A9A9A" stroke="#3A3027" stroke-width="6.0329" stroke-linejoin="round"/>
<path d="M222.327 476.105H185.293V467.081H213.303C218.285 467.081 222.327 471.123 222.327 476.105Z" fill="white" stroke="#3A3027" stroke-width="5.16911" stroke-linejoin="round"/>
<path d="M157.283 467.081H185.293V476.105H148.259C148.259 471.123 152.302 467.081 157.283 467.081Z" fill="white" stroke="#3A3027" stroke-width="5.16911" stroke-linejoin="round"/>
<path d="M207.605 370.65L185.699 360.424L162.981 370.65V413.188C162.981 415.475 164.835 417.329 167.123 417.329H203.464C205.751 417.329 207.605 415.475 207.605 413.188V370.65Z" fill="#D63646" stroke="#3A3027" stroke-width="6.0329" stroke-linejoin="round"/>
<path d="M195.543 366.802L185.293 356.549L175.04 366.802L185.293 379.582L195.543 366.802Z" fill="#C0A48C" stroke="#3A3027" stroke-width="2.15436" stroke-linejoin="round"/>
<path d="M233.758 316.392C232.317 321.974 226.912 325.723 221.692 324.763C216.468 323.804 213.406 318.501 214.847 312.919C216.287 307.337 221.692 303.588 226.912 304.548C232.136 305.507 235.199 310.809 233.758 316.392Z" fill="#B09077" stroke="#3A3027" stroke-width="6.0329" stroke-linejoin="round"/>
<path d="M136.743 315.828C137.853 321.486 143.025 325.545 148.297 324.896C153.568 324.248 156.938 319.133 155.829 313.476C154.719 307.818 149.546 303.759 144.275 304.408C139.003 305.056 135.634 310.171 136.743 315.828Z" fill="#D1B59E" stroke="#3A3027" stroke-width="6.0329" stroke-linejoin="round"/>
<path d="M222.327 275.995V322.68C222.327 328.997 220.449 335.173 216.936 340.421L205.457 357.56C201.152 363.986 193.928 367.844 186.191 367.844H184.395C176.659 367.844 169.434 363.986 165.129 357.56L153.65 340.421C150.134 335.173 148.259 328.997 148.259 322.68V275.995C148.259 265.015 157.16 256.11 168.144 256.11H202.443C213.423 256.11 222.327 265.011 222.327 275.995Z" fill="#B09077"/>
<path d="M166.194 256.11H184.395V367.844L165.129 357.56L148.259 330.721V274.045C148.259 264.141 156.289 256.11 166.194 256.11Z" fill="#D1B59E"/>
<path opacity="0.7" d="M222.327 314.766L213.757 304.49V258.886L222.327 269.62V314.766Z" fill="#3A3027"/>
<path opacity="0.7" d="M148.259 314.766L156.829 304.49V259.504L148.259 269.299V314.766Z" fill="#3A3027"/>
<path d="M202.695 328.273C208.805 328.273 213.757 323.32 213.757 317.211C213.757 311.102 208.805 306.149 202.695 306.149C196.586 306.149 191.633 311.102 191.633 317.211C191.633 323.32 196.586 328.273 202.695 328.273Z" fill="#C0A48C"/>
<path d="M167.888 328.273C173.997 328.273 178.95 323.32 178.95 317.211C178.95 311.102 173.997 306.149 167.888 306.149C161.778 306.149 156.826 311.102 156.826 317.211C156.826 323.32 161.778 328.273 167.888 328.273Z" fill="#C0A48C"/>
<path d="M209.507 271.399V322.54C209.507 335.463 205.669 348.092 198.475 358.83C195.662 363.033 190.937 365.553 185.88 365.553H184.706C179.65 365.553 174.924 363.03 172.111 358.83C164.921 348.092 161.08 335.463 161.08 322.54V271.399C161.08 264.219 166.901 258.398 174.081 258.398H196.506C203.686 258.398 209.507 264.219 209.507 271.399Z" fill="#C0A48C"/>
<path d="M179.148 348.837C181.934 345.911 186.526 345.487 189.902 347.584C190.414 347.911 190.927 348.28 191.439 348.837V349.137C189.448 349.25 187.28 349.277 185.293 349.287C183.811 349.277 182.173 349.26 180.684 349.212L179.148 349.137V348.837Z" fill="#8A715D"/>
<path opacity="0.2" d="M219.244 336.361C218.575 337.761 217.807 339.12 216.936 340.421L205.454 357.56C201.149 363.989 193.924 367.847 186.188 367.847H184.395C176.659 367.847 169.434 363.986 165.129 357.56L153.647 340.421C153.148 339.673 152.677 338.905 152.247 338.12C157.843 330.325 171.056 324.855 186.457 324.855C200.674 324.855 213.027 329.516 219.244 336.361Z" fill="#72594B"/>
<path d="M222.327 275.995V322.68C222.327 327.433 221.269 332.104 219.247 336.358C218.578 337.758 217.81 339.116 216.939 340.417L205.457 357.557C201.152 363.986 193.928 367.844 186.191 367.844H184.399C176.662 367.844 169.438 363.982 165.132 357.557L153.65 340.417C153.152 339.67 152.681 338.901 152.25 338.116C149.639 333.408 148.263 328.095 148.263 322.68V275.995C148.263 265.015 157.164 256.11 168.144 256.11H202.446C213.426 256.11 222.327 265.015 222.327 275.995Z" stroke="#3A3027" stroke-width="7.25519" stroke-linejoin="round"/>
<path d="M194.15 307.873C197.782 304.988 203.563 304.968 207.192 307.873C203.563 310.775 197.786 310.758 194.15 307.873Z" fill="#3A3027"/>
<path d="M176.433 307.873C172.801 310.758 167.02 310.779 163.391 307.873C167.02 304.971 172.797 304.988 176.433 307.873Z" fill="#3A3027"/>
<path d="M207.192 307.873C206.215 303.947 199.848 303.595 196.779 305.012C195.543 305.562 194.443 306.466 194.15 307.873C193.866 306.344 195.037 304.872 196.297 304.117C198.933 302.55 202.405 302.554 205.041 304.117C206.301 304.872 207.472 306.344 207.188 307.873H207.192Z" fill="#3A3027"/>
<path d="M163.391 307.873C163.111 306.344 164.279 304.872 165.539 304.117C168.174 302.554 171.647 302.55 174.282 304.117C175.542 304.872 176.713 306.347 176.43 307.873C176.133 306.466 175.037 305.562 173.801 305.012C170.735 303.598 164.368 303.947 163.388 307.873H163.391Z" fill="#3A3027"/>
<path d="M192.736 299.682L209.507 299.413" stroke="#3A3027" stroke-width="3.44493" stroke-linejoin="round"/>
<path d="M178.758 299.682L162.237 299.413" stroke="#3A3027" stroke-width="3.44493" stroke-linejoin="round"/>
<path d="M180.8 316.122C178.618 316.61 177.208 318.416 177.423 320.465C177.581 322.141 179.144 323.527 180.763 323.425L183.019 323.367C184.153 323.346 186.437 323.346 187.57 323.367L189.827 323.421C190.848 323.466 191.91 322.967 192.555 322.052C194.133 319.775 192.583 316.675 189.786 316.122C192.333 315.541 194.972 317.737 195.143 320.451C195.444 323.435 192.917 326.214 189.865 326.279C187.755 326.368 185.136 326.364 183.019 326.34C182.33 326.313 181.418 326.32 180.725 326.276C176.529 326.163 173.903 321.322 176.399 317.914C177.441 316.453 179.284 315.777 180.804 316.118L180.8 316.122Z" fill="#3A3027"/>
<path d="M170.619 338.055C173.214 338.181 175.624 337.734 177.785 336.75C178.407 336.477 178.994 336.15 179.578 335.812C180.25 335.443 181.015 335.272 181.783 335.303C182.422 335.316 183.053 335.518 183.624 335.805C184.146 336.03 184.699 336.416 185.29 336.392C185.88 336.416 186.433 336.027 186.956 335.801C187.526 335.514 188.158 335.313 188.8 335.296C189.568 335.265 190.336 335.439 191.009 335.805C191.592 336.143 192.18 336.47 192.801 336.744C194.962 337.723 197.369 338.174 199.967 338.051C196.936 339.588 193.245 339.355 190.189 337.959C189.81 337.778 189.38 337.679 188.963 337.741C188.649 337.775 188.359 337.904 188.089 338.058C187.878 338.171 187.454 338.396 187.239 338.502C185.877 339.215 184.207 339.069 182.91 338.28L182.49 338.055C181.927 337.7 181.213 337.611 180.588 337.867C177.485 339.321 173.716 339.618 170.615 338.044L170.619 338.055Z" fill="#3A3027"/>
<path d="M176.433 340.434C177.15 342.923 190.018 342.367 192.296 341.626C193.009 341.407 193.859 341.223 194.15 340.434C194.214 340.639 194.184 340.882 194.109 341.1C193.433 342.548 191.753 343.186 190.356 343.674C187.055 344.661 183.531 344.654 180.23 343.674C178.932 343.251 176.184 342.128 176.437 340.434H176.433Z" fill="#3A3027"/>
<path d="M194.15 318.112C197.243 320.471 200.152 323.022 203.037 325.613L205.884 328.239C206.912 329.232 207.622 330.554 207.834 331.964C208.175 334.06 207.322 336.231 205.836 337.659L204.525 339.089C203.638 340.031 202.753 340.974 201.825 341.882C202.532 340.793 203.286 339.741 204.034 338.686C204.638 337.792 205.741 336.518 206.185 335.586C206.68 334.514 206.847 333.305 206.625 332.165C206.417 331.021 205.836 329.966 204.997 329.178L202.2 326.504C199.428 323.79 196.7 321.048 194.15 318.112Z" fill="#3A3027"/>
<circle cx="185.293" cy="384.413" r="1.29228" fill="#3A3027"/>
<path d="M185.293 390.101V392.945" stroke="#3A3027" stroke-width="2.58455" stroke-linecap="round" stroke-linejoin="round"/>
<circle cx="185.293" cy="395.789" r="1.29228" fill="#3A3027"/>
<path d="M205.871 371.794L188.854 381.524L204.444 369.639L205.871 371.794Z" fill="#3A3027"/>
<path d="M166.143 369.639L181.732 381.524L164.716 371.794L166.143 369.639Z" fill="#3A3027"/>
<path d="M182.278 467.081L185.293 432.611L188.308 467.081H182.278Z" fill="#3A3027"/>
<path d="M180.742 419.343H188.752C189.353 419.343 189.841 418.855 189.841 418.254V416.455C189.841 415.854 189.353 415.366 188.752 415.366H180.742" stroke="white" stroke-width="1.72417" stroke-miterlimit="10"/>
<path opacity="0.3" d="M221.791 274.561H148.259V292.594C191.439 292.594 205.157 295.155 221.791 310.441V274.557V274.561Z" fill="#3A3027"/>
<path d="M202.04 242.716H168.543C157.024 242.716 147.689 252.054 147.689 263.57V286.616L166.102 278.781C178.362 273.564 192.217 273.564 204.478 278.781L222.89 286.616V263.57C222.89 252.051 213.553 242.716 202.036 242.716H202.04Z" fill="#36383A"/>
<mask id="mask0_143_7" style="mask-type:luminance" maskUnits="userSpaceOnUse" x="147" y="242" width="76" height="45">
<path d="M202.04 242.716H168.543C157.024 242.716 147.689 252.054 147.689 263.57V286.616L166.102 278.781C178.362 273.564 192.217 273.564 204.478 278.781L222.89 286.616V263.57C222.89 252.051 213.553 242.716 202.036 242.716H202.04Z" fill="white"/>
</mask>
<g mask="url(#mask0_143_7)">
<path d="M185.293 243.413H145.931V289.839H185.293V243.413Z" fill="#595A5B"/>
<path d="M177.97 243.413H192.617C201.712 243.413 209.1 250.798 209.1 259.897V285.923H161.486V259.897C161.486 250.801 168.871 243.413 177.97 243.413Z" fill="#414344"/>
</g>
<path d="M202.04 242.716H168.543C157.024 242.716 147.689 252.054 147.689 263.57V286.616L166.102 278.781C178.362 273.564 192.217 273.564 204.478 278.781L222.89 286.616V263.57C222.89 252.051 213.553 242.716 202.036 242.716H202.04Z" stroke="#3A3027" stroke-width="6.0329" stroke-linejoin="round"/>
<path d="M227.766 287.787C203.19 267.394 167.393 267.394 142.817 287.787C140.147 290 139.635 293.506 141.479 295.285C143.326 297.071 146.501 296.787 148.741 294.943C169.892 277.394 200.698 277.394 221.846 294.943C224.082 296.791 227.261 297.071 229.108 295.285C230.951 293.51 230.439 290 227.769 287.787H227.766Z" fill="#414344"/>
<path d="M227.766 287.787C203.19 267.394 167.393 267.394 142.817 287.787C140.147 290 139.635 293.506 141.479 295.285C143.326 297.071 146.501 296.787 148.741 294.943C169.892 277.394 200.698 277.394 221.846 294.943C224.082 296.791 227.261 297.071 229.108 295.285C230.951 293.51 230.439 290 227.769 287.787H227.766Z" stroke="#3A3027" stroke-width="4.30873" stroke-linejoin="round"/>
<path d="M196.26 258.599C192.367 260.18 188.069 261.829 184.105 263.266C182.712 263.765 181.333 264.393 179.926 264.864C179.615 264.977 179.26 265.049 178.933 265.11C176.136 265.516 173.507 262.693 174.443 259.962C174.641 259.337 175.064 258.828 175.512 258.476C175.57 258.429 175.655 258.439 175.703 258.5C175.73 258.534 175.737 258.579 175.727 258.62C175.471 259.6 175.539 260.521 176.061 261.314C176.707 262.287 177.864 262.703 178.946 262.358C179.066 262.324 179.407 262.232 179.533 262.198C180.841 261.867 182.197 261.621 183.501 261.29C185.068 260.89 188.247 260.122 189.824 259.76C191.944 259.292 194.054 258.79 196.185 258.353C196.256 258.34 196.325 258.384 196.338 258.456C196.352 258.517 196.318 258.579 196.26 258.603V258.599Z" fill="white"/>
</g>
<g clip-path="url(#clip1_143_7)">
<path opacity="0.3" d="M332.965 485.576C369.041 485.576 398.286 481.85 398.286 477.255C398.286 472.66 369.041 468.935 332.965 468.935C296.89 468.935 267.645 472.66 267.645 477.255C267.645 481.85 296.89 485.576 332.965 485.576Z" fill="#3A3027"/>
<path d="M396.111 306.741C398.023 298.725 384.558 288.645 366.035 284.226C347.512 279.806 330.946 282.721 329.034 290.736C327.121 298.751 340.587 308.831 359.109 313.251C377.632 317.67 394.198 314.756 396.111 306.741Z" fill="#D87A24" stroke="#3A3027" stroke-width="5.16911" stroke-linejoin="round"/>
<path d="M379.607 324.852H358.896V345.562H379.607V324.852Z" fill="#8A715D" stroke="#3A3027" stroke-width="4.30873" stroke-linejoin="round"/>
<path d="M288.611 345.562H309.322V324.852H288.611V345.562Z" fill="#8A715D" stroke="#3A3027" stroke-width="4.30873" stroke-linejoin="round"/>
<path d="M382.436 316.556C383.551 309.388 380.165 302.91 374.874 302.087C369.582 301.264 364.389 306.408 363.274 313.575C362.159 320.743 365.545 327.221 370.837 328.044C376.128 328.867 381.322 323.723 382.436 316.556Z" fill="#CF9D76" stroke="#3A3027" stroke-width="6.0329" stroke-linejoin="round"/>
<path d="M297.387 328.04C302.678 327.217 306.064 320.739 304.949 313.571C303.835 306.403 298.641 301.26 293.35 302.083C288.058 302.906 284.672 309.384 285.787 316.551C286.902 323.719 292.095 328.863 297.387 328.04Z" fill="#F5DFCD" stroke="#3A3027" stroke-width="6.0329" stroke-linejoin="round"/>
<path d="M356.421 397.677H372.177V417.431C372.177 424.943 366.079 431.037 358.572 431.037H356.424V397.677H356.421Z" fill="#EBC09B" stroke="#3A3027" stroke-width="6.0329" stroke-linejoin="round"/>
<path d="M372.191 398.629H356.434L356.421 370.715L365.277 374.703C369.477 376.594 372.174 380.77 372.174 385.372L372.187 398.629H372.191Z" fill="#FB942C"/>
<mask id="mask1_143_7" style="mask-type:luminance" maskUnits="userSpaceOnUse" x="356" y="370" width="17" height="29">
<path d="M372.191 398.629H356.434L356.421 370.715L365.277 374.703C369.477 376.594 372.174 380.77 372.174 385.372L372.187 398.629H372.191Z" fill="white"/>
</mask>
<g mask="url(#mask1_143_7)">
<path d="M368.278 379.227H373.468V384.416C373.468 387.564 370.91 390.121 367.763 390.121H362.573V384.932C362.573 381.784 365.13 379.227 368.278 379.227Z" stroke="#FFDA00" stroke-width="2.15436" stroke-linejoin="round"/>
</g>
<path d="M372.191 398.629H356.434L356.421 370.715L365.277 374.703C369.477 376.594 372.174 380.77 372.174 385.372L372.187 398.629H372.191Z" stroke="#3A3027" stroke-width="6.0329" stroke-linejoin="round"/>
<path d="M311.8 431.034H309.653C302.142 431.034 296.047 424.936 296.047 417.428V397.673H311.804V431.034H311.8Z" fill="#EBC09B" stroke="#3A3027" stroke-width="6.0329" stroke-linejoin="round"/>
<path d="M296.027 398.629H311.783L311.797 370.715L302.94 374.703C298.741 376.594 296.044 380.77 296.044 385.372L296.03 398.629H296.027Z" fill="#FB942C"/>
<mask id="mask2_143_7" style="mask-type:luminance" maskUnits="userSpaceOnUse" x="296" y="370" width="16" height="29">
<path d="M296.027 398.629H311.783L311.797 370.715L302.94 374.703C298.741 376.594 296.044 380.77 296.044 385.372L296.03 398.629H296.027Z" fill="white"/>
</mask>
<g mask="url(#mask2_143_7)">
<path d="M305.645 390.121H300.455C297.307 390.121 294.75 387.564 294.75 384.416V379.227H299.94C303.087 379.227 305.645 381.784 305.645 384.932V390.121Z" stroke="#FFDA00" stroke-width="2.15436" stroke-linejoin="round"/>
</g>
<path d="M296.027 398.629H311.783L311.797 370.715L302.94 374.703C298.741 376.594 296.044 380.77 296.044 385.372L296.03 398.629H296.027Z" stroke="#3A3027" stroke-width="6.0329" stroke-linejoin="round"/>
<path d="M316.502 417.35H351.716C354.154 417.35 356.134 419.33 356.134 421.767V447.483H312.084V421.767C312.084 419.33 314.064 417.35 316.502 417.35Z" fill="#17B4B2" stroke="#3A3027" stroke-width="6.0329" stroke-linejoin="round"/>
<path d="M356.421 370.65L334.515 360.424L311.797 370.65V413.188C311.797 415.475 313.651 417.329 315.938 417.329H352.279C354.567 417.329 356.421 415.475 356.421 413.188V370.65Z" fill="#FB942C"/>
<mask id="mask3_143_7" style="mask-type:luminance" maskUnits="userSpaceOnUse" x="311" y="360" width="46" height="58">
<path d="M356.421 370.65L334.515 360.424L311.797 370.65V413.188C311.797 415.475 313.651 417.329 315.938 417.329H352.279C354.567 417.329 356.421 415.475 356.421 413.188V370.65Z" fill="white"/>
</mask>
<g mask="url(#mask3_143_7)">
<path d="M329.561 397.079H334.751V402.269C334.751 405.417 332.193 407.974 329.046 407.974H323.856V402.785C323.856 399.637 326.413 397.079 329.561 397.079Z" stroke="#FFDA00" stroke-width="2.15436" stroke-linejoin="round"/>
<path d="M313.139 406.796H318.328V411.986C318.328 415.134 315.771 417.691 312.623 417.691H307.434V412.501C307.434 409.353 309.991 406.796 313.139 406.796Z" stroke="#FFDA00" stroke-width="2.15436" stroke-linejoin="round"/>
<path d="M322.692 394.324H317.502C314.354 394.324 311.797 391.767 311.797 388.619V383.429H316.987C320.134 383.429 322.692 385.987 322.692 389.135V394.324Z" stroke="#FFDA00" stroke-width="2.15436" stroke-linejoin="round"/>
<path d="M339.496 378.407H344.686V383.597C344.686 386.745 342.129 389.302 338.981 389.302H333.791V384.112C333.791 380.964 336.348 378.407 339.496 378.407Z" stroke="#FFDA00" stroke-width="2.15436" stroke-linejoin="round"/>
<path d="M354.229 366.085H359.418V371.275C359.418 374.423 356.861 376.98 353.713 376.98H348.524V371.79C348.524 368.642 351.081 366.085 354.229 366.085Z" stroke="#FFDA00" stroke-width="2.15436" stroke-linejoin="round"/>
<path d="M332.627 375.652H327.437C324.29 375.652 321.732 373.095 321.732 369.947V364.757H326.922C330.07 364.757 332.627 367.314 332.627 370.462V375.652Z" stroke="#FFDA00" stroke-width="2.15436" stroke-linejoin="round"/>
<path d="M340.067 409.913H345.256V415.103C345.256 418.251 342.699 420.808 339.551 420.808H334.361V415.619C334.361 412.471 336.919 409.913 340.067 409.913Z" stroke="#FFDA00" stroke-width="2.15436" stroke-linejoin="round"/>
<path d="M353.006 405.69H347.817C344.669 405.69 342.112 403.133 342.112 399.985V394.795H347.301C350.449 394.795 353.006 397.353 353.006 400.5V405.69Z" stroke="#FFDA00" stroke-width="2.15436" stroke-linejoin="round"/>
</g>
<path d="M356.421 370.65L334.515 360.424L311.797 370.65V413.188C311.797 415.475 313.651 417.329 315.938 417.329H352.279C354.567 417.329 356.421 415.475 356.421 413.188V370.65Z" stroke="#3A3027" stroke-width="6.0329" stroke-linejoin="round"/>
<path d="M344.362 366.802L334.109 356.549L323.856 366.802L334.109 379.578L344.362 366.802Z" fill="#C0A48C" stroke="#3A3027" stroke-width="2.15436" stroke-linejoin="round"/>
<circle cx="334.109" cy="384.413" r="1.29228" fill="white"/>
<path d="M334.109 390.101V392.945" stroke="white" stroke-width="2.58455" stroke-linecap="round" stroke-linejoin="round"/>
<circle cx="334.109" cy="395.785" r="1.29228" fill="white"/>
<path d="M354.686 371.794L337.67 381.521L353.259 369.639L354.686 371.794Z" fill="#3A3027"/>
<path d="M314.959 369.639L330.548 381.521L313.531 371.794L314.959 369.639Z" fill="#3A3027"/>
<path d="M331.094 448.955L334.109 426.448L337.124 448.955H331.094Z" fill="#3A3027"/>
<path d="M371.143 275.991V322.677C371.143 328.993 369.265 335.17 365.752 340.417L354.273 357.557C349.968 363.982 342.743 367.84 335.007 367.84H333.211C325.474 367.84 318.25 363.982 313.945 357.557L302.466 340.417C298.949 335.17 297.075 328.993 297.075 322.677V275.991C297.075 265.011 305.976 256.107 316.959 256.107H351.258C362.238 256.107 371.143 265.008 371.143 275.991Z" fill="#CF9D76"/>
<path d="M315.01 256.11H333.211V367.844L313.945 357.56L297.075 330.721V274.045C297.075 264.141 305.105 256.11 315.01 256.11Z" fill="#EFD0B4"/>
<path d="M351.514 328.273C357.624 328.273 362.576 323.32 362.576 317.211C362.576 311.102 357.624 306.149 351.514 306.149C345.405 306.149 340.452 311.102 340.452 317.211C340.452 323.32 345.405 328.273 351.514 328.273Z" fill="#EBC09B"/>
<path d="M371.648 310.287L358.322 293.875V285.285H371.648V310.287Z" fill="#8A715D"/>
<path d="M296.57 310.287L309.895 293.875V285.285H296.57V310.287Z" fill="#8A715D"/>
<path d="M316.703 328.273C322.813 328.273 327.765 323.32 327.765 317.211C327.765 311.102 322.813 306.149 316.703 306.149C310.594 306.149 305.641 311.102 305.641 317.211C305.641 323.32 310.594 328.273 316.703 328.273Z" fill="#EBC09B"/>
<path d="M358.322 271.399V322.54C358.322 335.463 354.485 348.092 347.291 358.83C344.478 363.033 339.752 365.553 334.696 365.553H333.522C328.465 365.553 323.74 363.03 320.927 358.83C313.736 348.092 309.895 335.463 309.895 322.54V271.399C309.895 264.219 315.716 258.398 322.897 258.398H345.321C352.501 258.398 358.322 264.219 358.322 271.399Z" fill="#EBC09B"/>
<path d="M362.573 345.163L352.894 358.263L352.624 334.094H369.251L362.573 345.163Z" fill="#B09077"/>
<path d="M305.645 345.163L315.324 358.263L315.59 334.094H298.966L305.645 345.163Z" fill="#B09077"/>
<path d="M350.712 332.578H317.506C316.642 332.578 315.938 333.278 315.938 334.145V344.644C315.938 354.678 324.075 362.814 334.109 362.814C344.143 362.814 352.279 354.678 352.279 344.644V334.145C352.279 333.282 351.579 332.578 350.712 332.578Z" stroke="#8A715D" stroke-width="6.0329" stroke-linejoin="round"/>
<path d="M327.963 351.421C330.749 348.495 335.341 348.072 338.718 350.168C339.23 350.496 339.742 350.865 340.254 351.421V351.722C338.264 351.834 336.096 351.862 334.109 351.872C332.627 351.862 330.988 351.845 329.5 351.793L327.963 351.718V351.418V351.421Z" fill="#CF9D76"/>
<path d="M371.143 275.995V322.68C371.143 327.433 370.084 332.104 368.063 336.358C367.394 337.758 366.626 339.116 365.755 340.417L354.273 357.557C349.968 363.985 342.743 367.844 335.007 367.844H333.214C325.478 367.844 318.253 363.982 313.948 357.557L302.466 340.417C301.968 339.67 301.496 338.901 301.066 338.116C298.454 333.408 297.078 328.095 297.078 322.68V275.995C297.078 265.015 305.979 256.11 316.959 256.11H351.262C362.242 256.11 371.143 265.015 371.143 275.995Z" stroke="#3A3027" stroke-width="7.25519" stroke-linejoin="round"/>
<path d="M342.965 308.993C345.789 305.715 350.832 305.131 354.379 307.559C354.922 307.935 355.465 308.354 356.011 308.993V309.338C353.898 309.467 351.6 309.498 349.49 309.508C347.919 309.498 346.178 309.478 344.597 309.42L342.965 309.334V308.99V308.993Z" fill="#3A3027"/>
<path d="M325.249 309.338C320.937 309.57 316.519 309.566 312.207 309.338V308.993C313.893 307.078 316.29 306.077 318.728 306.064C321.131 306.043 323.631 307.112 325.249 308.993V309.338Z" fill="#3A3027"/>
<path d="M356.008 307.873C355.031 303.947 348.664 303.595 345.594 305.012C344.358 305.562 343.259 306.466 342.965 307.873C342.682 306.343 343.853 304.872 345.113 304.117C347.749 302.55 351.221 302.554 353.857 304.117C355.116 304.872 356.287 306.343 356.004 307.873H356.008Z" fill="#3A3027"/>
<path d="M312.207 307.873C311.927 306.343 313.094 304.872 314.354 304.117C316.99 302.554 320.462 302.55 323.098 304.117C324.358 304.872 325.529 306.347 325.246 307.873C324.949 306.463 323.853 305.558 322.617 305.012C319.551 303.598 313.183 303.947 312.203 307.873H312.207Z" fill="#3A3027"/>
<path d="M343.184 295.517L358.538 296.808L358.322 299.385L342.75 300.669L343.184 295.517Z" fill="#72594B"/>
<path d="M326.625 300.669L311.053 299.385L310.834 296.808L326.191 295.517L326.625 300.669Z" fill="#72594B"/>
<path d="M315.938 417.35H352.279" stroke="#0F7E7B" stroke-width="6.0329" stroke-linejoin="round"/>
<path d="M351.514 447.487H334.109V469.051H351.514V447.487Z" fill="#EBC09B" stroke="#3A3027" stroke-width="6.0329" stroke-linejoin="round"/>
<path d="M316.703 469.047H334.109V447.483H316.703V469.047Z" fill="#EBC09B" stroke="#3A3027" stroke-width="6.0329" stroke-linejoin="round"/>
<path d="M371.143 476.101H334.109V467.077H362.119C367.1 467.077 371.143 471.12 371.143 476.101Z" fill="white" stroke="#3A3027" stroke-width="5.16911" stroke-linejoin="round"/>
<path d="M306.099 467.081H334.109V476.105H297.075C297.075 471.123 301.117 467.081 306.099 467.081Z" fill="white" stroke="#3A3027" stroke-width="5.16911" stroke-linejoin="round"/>
<path d="M329.141 419.507H337.823C338.476 419.507 339.005 418.978 339.005 418.326V416.376C339.005 415.724 338.476 415.195 337.823 415.195H329.141" stroke="white" stroke-width="1.72417" stroke-miterlimit="10"/>
<path d="M356.622 241.351L346.864 238.903C338.489 236.803 329.725 236.803 321.35 238.903L311.592 241.351C302.76 243.567 296.566 251.505 296.566 260.61V285.281H319.892V277.63C319.892 273.663 323.108 270.45 327.072 270.45H341.135C345.103 270.45 348.315 273.666 348.315 277.63V285.281H371.641V260.61C371.641 251.505 365.448 243.567 356.615 241.351H356.622Z" fill="#FB942C"/>
<path d="M356.622 241.351L346.864 238.903C338.489 236.803 329.725 236.803 321.35 238.903L311.592 241.351C302.76 243.567 296.566 251.505 296.566 260.61V285.281H319.892V277.63C319.892 273.663 323.108 270.45 327.072 270.45H341.135C345.103 270.45 348.315 273.666 348.315 277.63V285.281H371.641V260.61C371.641 251.505 365.448 243.567 356.615 241.351H356.622Z" stroke="#3A3027" stroke-width="6.0329" stroke-linejoin="round"/>
<path d="M349.804 278.907H318.414V286.725H349.804V278.907Z" fill="#FB942C" stroke="#3A3027" stroke-width="3.01474" stroke-linejoin="round"/>
<path d="M334.075 236.677L343.679 243.228C351.651 248.664 356.421 257.691 356.421 267.34V287.33" stroke="#3A3027" stroke-width="1.29398" stroke-linejoin="round"/>
<path d="M334.075 236.677L324.471 243.228C316.498 248.664 311.729 257.691 311.729 267.34V287.33" stroke="#3A3027" stroke-width="1.29398" stroke-linejoin="round"/>
<path d="M336.509 278.907H317.782C312.555 278.907 308.311 274.663 308.311 269.436V265.793H327.038C332.265 265.793 336.509 270.037 336.509 275.264V278.907Z" fill="#8A715D" stroke="#3A3027" stroke-width="3.01474" stroke-linejoin="round"/>
<path d="M327.226 316.883C325.044 319.065 325.044 322.602 327.226 324.784L328.728 326.286C331.698 329.256 336.516 329.256 339.486 326.286L340.989 324.784C343.17 322.602 343.17 319.065 340.989 316.883" fill="#EBC09B"/>
<path d="M327.226 316.883C325.563 319.546 326.181 322.657 328.626 324.401C329.039 324.763 329.735 325.395 330.135 325.695C332.197 327.242 335.119 327.44 337.359 326.156C338.404 325.583 339.425 324.507 340.333 323.749C342.197 322.056 342.416 319.109 340.992 316.883C342.224 317.641 343.133 319.058 343.361 320.642C343.607 322.226 343.16 323.974 342.105 325.32C341.661 325.9 341.132 326.45 340.678 326.976C339.09 328.874 336.594 330.024 334.109 330.021C331.623 330.021 329.128 328.874 327.543 326.972L326.843 326.18C325.413 324.732 324.518 322.622 324.863 320.639C325.092 319.055 325.997 317.641 327.229 316.88L327.226 316.883Z" fill="#3A3027"/>
<path d="M336.069 304.759C337.008 306.183 337.588 307.736 338.069 309.341C338.523 310.956 338.865 312.578 338.831 314.285C337.888 312.865 337.308 311.311 336.83 309.703C336.379 308.088 336.034 306.463 336.069 304.759Z" fill="#CF9D76"/>
<path d="M332.149 304.759C332.183 306.463 331.838 308.085 331.388 309.703C330.906 311.311 330.329 312.865 329.387 314.285C329.349 312.581 329.694 310.956 330.148 309.341C330.63 307.733 331.21 306.18 332.149 304.759Z" fill="#CF9D76"/>
<path d="M317.048 334.094L324.887 341.933C329.961 347.007 338.185 347.007 343.259 341.933L351.098 334.094H317.045H317.048Z" fill="white" stroke="#CA8B83" stroke-width="2.58455" stroke-linejoin="round"/>
</g>
<g clip-path="url(#clip2_143_7)">
<path opacity="0.3" d="M481.197 485.576C517.272 485.576 546.517 481.85 546.517 477.255C546.517 472.66 517.272 468.935 481.197 468.935C445.121 468.935 415.876 472.66 415.876 477.255C415.876 481.85 445.121 485.576 481.197 485.576Z" fill="#3A3027"/>
<path d="M529.526 321.365C530.641 314.197 527.255 307.72 521.964 306.897C516.672 306.074 511.479 311.217 510.364 318.385C509.249 325.553 512.635 332.03 517.927 332.853C523.218 333.676 528.412 328.533 529.526 321.365Z" fill="#CF9D76" stroke="#3A3027" stroke-width="6.0329" stroke-linejoin="round"/>
<path d="M444.477 332.848C449.768 332.025 453.154 325.547 452.04 318.38C450.925 311.212 445.732 306.068 440.44 306.891C435.149 307.714 431.763 314.192 432.877 321.36C433.992 328.528 439.185 333.671 444.477 332.848Z" fill="#F5DFCD" stroke="#3A3027" stroke-width="6.0329" stroke-linejoin="round"/>
<path d="M481.2 446.647H456.362V468.406H481.2V446.647Z" fill="#EBC09B" stroke="#3A3027" stroke-width="6.0329" stroke-linejoin="round"/>
<path d="M481.197 468.406H506.035V446.647H481.197V468.406Z" fill="#EBC09B" stroke="#3A3027" stroke-width="6.0329" stroke-linejoin="round"/>
<path d="M447.191 431.037H441.363C432.517 431.037 425.337 423.857 425.337 415.011V397.677H447.191V431.037Z" fill="#EBC09B" stroke="#3A3027" stroke-width="6.0329" stroke-linejoin="round"/>
<path d="M455.126 417.35H507.271C511.498 417.35 514.929 420.781 514.929 425.008V453.588H447.468V425.008C447.468 420.781 450.899 417.35 455.126 417.35Z" fill="#414344" stroke="#3A3027" stroke-width="6.0329" stroke-linejoin="round"/>
<path d="M515.206 370.65L481.818 360.425L447.195 370.65V410.535C447.195 414.287 450.237 417.333 453.993 417.333H508.412C512.164 417.333 515.209 414.29 515.209 410.535V370.65H515.206Z" fill="#B6A580"/>
<mask id="mask4_143_7" style="mask-type:luminance" maskUnits="userSpaceOnUse" x="447" y="360" width="69" height="58">
<path d="M515.206 370.65L481.818 360.425L447.195 370.65V410.535C447.195 414.287 450.237 417.333 453.993 417.333H508.412C512.164 417.333 515.209 414.29 515.209 410.535V370.65H515.206Z" fill="white"/>
</mask>
<g mask="url(#mask4_143_7)">
<path d="M452.961 377.772C461.763 368.97 446.136 368.97 454.942 377.772C446.14 368.97 446.14 384.597 454.942 375.792C446.14 384.594 461.767 384.594 452.961 375.792C461.763 384.594 461.763 368.967 452.961 377.772Z" fill="white"/>
<path d="M455.805 398.07C464.607 389.268 448.98 389.268 457.786 398.07C448.984 389.268 448.984 404.895 457.786 396.089C448.984 404.891 464.611 404.891 455.805 396.089C464.607 404.891 464.607 389.264 455.805 398.07Z" fill="white"/>
<path d="M469.957 385.662C478.759 376.861 463.132 376.861 471.938 385.662C463.136 376.861 463.136 392.487 471.938 383.682C463.136 392.484 478.763 392.484 469.957 383.682C478.759 392.484 478.759 376.857 469.957 385.662Z" fill="white"/>
<path d="M474.771 399.568C474.771 387.117 463.72 398.169 476.171 398.169C463.72 398.169 474.771 409.22 474.771 396.769C474.771 409.22 485.823 398.169 473.372 398.169C485.823 398.169 474.771 387.117 474.771 399.568Z" fill="white"/>
<path d="M452.019 413.027C452.019 400.576 440.967 411.627 453.419 411.627C440.967 411.627 452.019 422.679 452.019 410.228C452.019 422.679 463.071 411.627 450.619 411.627C463.071 411.627 452.019 400.576 452.019 413.027Z" fill="white"/>
<path d="M484.461 413.068C495.929 408.22 481.446 402.344 486.294 413.812C481.446 402.344 475.57 416.827 487.039 411.979C475.57 416.827 490.053 422.703 485.205 411.235C490.053 422.703 495.929 408.22 484.461 413.068Z" fill="white"/>
<path d="M467.178 411.931C475.98 403.129 460.353 403.129 469.158 411.931C460.357 403.129 460.357 418.756 469.158 409.951C460.357 418.753 475.983 418.753 467.178 409.951C475.98 418.753 475.98 403.126 467.178 411.931Z" fill="white"/>
<path d="M490.05 400.49C502.502 400.49 491.45 389.438 491.45 401.89C491.45 389.438 480.398 400.49 492.85 400.49C480.398 400.49 491.45 411.542 491.45 399.09C491.45 411.542 502.502 400.49 490.05 400.49Z" fill="white"/>
<path d="M493.997 371.627C506.448 371.627 495.397 360.575 495.397 373.026C495.397 360.575 484.345 371.627 496.796 371.627C484.345 371.627 495.397 382.678 495.397 370.227C495.397 382.678 506.448 371.627 493.997 371.627Z" fill="white"/>
<path d="M467.045 370.65C479.497 370.65 468.445 359.598 468.445 372.05C468.445 359.598 457.393 370.65 469.845 370.65C457.393 370.65 468.445 381.702 468.445 369.25C468.445 381.702 479.497 370.65 467.045 370.65Z" fill="white"/>
<path d="M495.332 387.523C504.134 378.721 488.507 378.721 497.312 387.523C488.51 378.721 488.51 394.348 497.312 385.543C488.51 394.345 504.137 394.345 495.332 385.543C504.134 394.345 504.134 378.718 495.332 387.523Z" fill="white"/>
<path d="M481.726 377.117C490.528 368.315 474.901 368.315 483.706 377.117C474.905 368.315 474.905 383.942 483.706 375.136C474.905 383.938 490.531 383.938 481.726 375.136C490.528 383.938 490.528 368.311 481.726 377.117Z" fill="white"/>
<path d="M509.265 375.119C518.067 366.317 502.44 366.317 511.245 375.119C502.443 366.317 502.443 381.944 511.245 373.139C502.443 381.941 518.07 381.941 509.265 373.139C518.067 381.941 518.067 366.314 509.265 375.119Z" fill="white"/>
<path d="M508.125 393.583C516.927 384.781 501.3 384.781 510.105 393.583C501.303 384.781 501.303 400.408 510.105 391.603C501.303 400.405 516.93 400.405 508.125 391.603C516.927 400.405 516.927 384.778 508.125 393.583Z" fill="white"/>
<path d="M502.867 412.935C511.669 404.133 496.042 404.133 504.847 412.935C496.045 404.133 496.045 419.76 504.847 410.955C496.045 419.757 511.672 419.757 502.867 410.955C511.669 419.757 511.669 404.13 502.867 412.935Z" fill="white"/>
</g>
<path d="M515.206 370.65L481.818 360.425L447.195 370.65V410.535C447.195 414.287 450.237 417.333 453.993 417.333H508.412C512.164 417.333 515.209 414.29 515.209 410.535V370.65H515.206Z" stroke="#3A3027" stroke-width="6.0329" stroke-linejoin="round"/>
<path d="M491.45 366.799L481.197 356.549L470.948 366.799L481.197 379.578L491.45 366.799Z" fill="#EBC09B" stroke="#3A3027" stroke-width="2.15436" stroke-linejoin="round"/>
<circle cx="481.197" cy="384.413" r="1.29228" fill="white"/>
<circle cx="481.197" cy="393.464" r="1.29228" fill="white"/>
<path d="M506.735 368.929L484.758 381.521L505.335 366.754L506.735 368.929Z" fill="#3A3027"/>
<path d="M457.062 366.754L477.639 381.521L455.662 368.929L457.062 366.754Z" fill="#3A3027"/>
<path d="M478.182 453.588L481.2 435.469L484.215 453.588H478.182Z" fill="#3A3027"/>
<path d="M476.649 419.34H484.659C485.26 419.34 485.748 418.852 485.748 418.251V416.452C485.748 415.851 485.26 415.363 484.659 415.363H476.649" stroke="#9A9A9A" stroke-width="1.72417" stroke-miterlimit="10"/>
<path d="M518.234 278.907V339.205C518.234 355.02 505.414 367.844 489.596 367.844H472.801C456.987 367.844 444.163 355.023 444.163 339.205V278.907H518.231H518.234Z" fill="#EBC09B"/>
<path d="M444.163 275.933H482.907V366.802H476.117C458.482 366.802 444.163 352.483 444.163 334.849V275.933Z" fill="#F5DFCD"/>
<path d="M500.344 331.933C506.038 331.933 510.655 327.317 510.655 321.622C510.655 315.928 506.038 311.311 500.344 311.311C494.649 311.311 490.033 315.928 490.033 321.622C490.033 327.317 494.649 331.933 500.344 331.933Z" fill="#EFD0B4"/>
<path d="M462.05 331.933C467.745 331.933 472.361 327.317 472.361 321.622C472.361 315.928 467.745 311.311 462.05 311.311C456.355 311.311 451.739 315.928 451.739 321.622C451.739 327.317 456.355 331.933 462.05 331.933Z" fill="#EFD0B4"/>
<path d="M518.234 328.27H444.163V341.363C444.163 356.109 456.116 368.062 470.862 368.062H491.535C506.281 368.062 518.234 356.109 518.234 341.363V328.27Z" fill="#BC682A"/>
<path d="M502.884 279.948V337.877C502.884 346.382 495.376 353.275 486.117 353.275H476.284C467.021 353.275 459.517 346.382 459.517 337.877V279.948H502.887H502.884Z" fill="#EFD0B4"/>
<path d="M518.234 278.907V339.205C518.234 355.02 505.414 367.844 489.596 367.844H472.801C456.987 367.844 444.163 355.023 444.163 339.205V278.907H518.231H518.234Z" stroke="#3A3027" stroke-width="7.25519" stroke-linejoin="round"/>
<path d="M524.568 476.105H481.197V467.081H515.544C520.525 467.081 524.568 471.123 524.568 476.105Z" fill="white" stroke="#3A3027" stroke-width="5.16911" stroke-linejoin="round"/>
<path d="M446.85 467.077H481.197V476.101H437.826C437.826 471.12 441.869 467.077 446.85 467.077Z" fill="white" stroke="#3A3027" stroke-width="5.16911" stroke-linejoin="round"/>
<path d="M447.195 370.65L439.885 372.692C431.319 375.085 425.395 382.89 425.395 391.784V397.677H447.195V370.65Z" fill="#B6A580"/>
<mask id="mask5_143_7" style="mask-type:luminance" maskUnits="userSpaceOnUse" x="425" y="370" width="23" height="28">
<path d="M447.195 370.65L439.885 372.692C431.319 375.085 425.395 382.89 425.395 391.784V397.677H447.195V370.65Z" fill="white"/>
</mask>
<g mask="url(#mask5_143_7)">
<path d="M438.465 385.15C447.267 376.348 431.64 376.348 440.445 385.15C431.643 376.348 431.643 391.975 440.445 383.17C431.643 391.972 447.27 391.972 438.465 383.17C447.267 391.972 447.267 376.345 438.465 385.15Z" fill="white"/>
</g>
<path d="M447.195 370.65L439.885 372.692C431.319 375.085 425.395 382.89 425.395 391.784V397.677H447.195V370.65Z" stroke="#3A3027" stroke-width="6.0329" stroke-linejoin="round"/>
<path d="M515.202 397.674H537.057V415.007C537.057 423.854 529.877 431.034 521.03 431.034H515.202V397.674Z" fill="#EBC09B" stroke="#3A3027" stroke-width="6.0329" stroke-linejoin="round"/>
<path d="M515.202 370.65L522.512 372.692C531.078 375.085 537.002 382.89 537.002 391.784V397.677H515.202V370.65Z" fill="#B6A580"/>
<mask id="mask6_143_7" style="mask-type:luminance" maskUnits="userSpaceOnUse" x="515" y="370" width="23" height="28">
<path d="M515.202 370.65L522.512 372.692C531.078 375.085 537.002 382.89 537.002 391.784V397.677H515.202V370.65Z" fill="white"/>
</mask>
<g mask="url(#mask6_143_7)">
<path d="M526.981 393.256C519.159 383.569 534.701 385.225 525.015 393.047C534.701 385.225 533.045 400.767 525.223 391.081C533.045 400.767 517.504 399.111 527.19 391.289C517.504 399.111 519.159 383.569 526.981 393.256Z" fill="white"/>
<path d="M524.281 376.912C516.459 367.226 532 368.882 522.314 376.703C532 368.882 530.344 384.423 522.522 374.737C530.344 384.423 514.803 382.767 524.489 374.945C514.803 382.767 516.459 367.226 524.281 376.912Z" fill="white"/>
</g>
<path d="M515.202 370.65L522.512 372.692C531.078 375.085 537.002 382.89 537.002 391.784V397.677H515.202V370.65Z" stroke="#3A3027" stroke-width="6.0329" stroke-linejoin="round"/>
<path d="M501.266 420.354V426.53C501.266 428.354 502.744 429.832 504.567 429.832H511.867" stroke="#636363" stroke-width="1.72417" stroke-linejoin="round"/>
<path d="M461.132 420.354V426.53C461.132 428.354 459.653 429.832 457.83 429.832H450.531" stroke="#636363" stroke-width="1.72417" stroke-linejoin="round"/>
<path d="M466.574 337.269C466.574 341.629 473.122 345.163 481.2 345.163C489.278 345.163 495.827 341.629 495.827 337.269H466.577H466.574Z" fill="white" stroke="#CA8B83" stroke-width="2.58455" stroke-linejoin="round"/>
<path d="M471.009 326.187H491.388C497.732 326.187 502.884 331.339 502.884 337.683H459.513C459.513 331.339 464.665 326.187 471.009 326.187Z" fill="#BC682A"/>
<path d="M494.047 302.784L500.495 304.023C504.139 304.724 506.528 308.249 505.827 311.894L486.173 308.116C486.874 304.472 490.399 302.083 494.044 302.783L494.047 302.784Z" fill="#BC682A"/>
<path d="M501.778 313.175C498.381 315.859 493.314 315.48 490.282 312.424C489.818 311.953 489.364 311.438 488.951 310.71L489.015 310.372C491.119 310.645 493.386 311.048 495.461 311.434C497.005 311.741 498.712 312.09 500.255 312.445L501.843 312.834L501.778 313.172V313.175Z" fill="#3A3027"/>
<path d="M476.214 308.117L456.56 311.895C455.859 308.251 458.248 304.725 461.893 304.024L468.34 302.785C471.985 302.085 475.51 304.474 476.211 308.118L476.214 308.117Z" fill="#BC682A"/>
<path d="M460.555 312.837C464.754 311.796 469.097 310.963 473.382 310.372L473.447 310.71C472.149 312.912 469.981 314.346 467.585 314.818C465.222 315.292 462.566 314.715 460.62 313.172L460.555 312.834V312.837Z" fill="#3A3027"/>
<path d="M477.052 320.775C474.826 320.775 473.023 322.581 473.023 324.804C473.023 327.03 474.829 328.833 477.052 328.833H485.345C487.571 328.833 489.374 327.027 489.374 324.804C489.374 322.578 487.568 320.775 485.345 320.775" fill="#EFD0B4"/>
<path d="M477.052 320.775C475.048 321.264 473.795 322.916 474.01 324.784C474.171 326.279 475.581 327.508 477.018 327.406C478.059 327.368 480.156 327.331 481.2 327.327C482.242 327.327 484.341 327.365 485.383 327.402C486.817 327.505 488.227 326.279 488.384 324.784C488.599 322.916 487.349 321.267 485.345 320.775C486.748 320.431 488.476 321.042 489.463 322.404C491.829 325.593 489.367 330.154 485.417 330.263C484.167 330.328 482.453 330.332 481.197 330.342C480.504 330.335 478.715 330.321 478.046 330.294C475.741 330.417 473.508 329.478 472.515 327.368C471.729 325.787 471.88 323.783 472.935 322.404C473.918 321.045 475.645 320.434 477.049 320.775H477.052Z" fill="#3A3027"/>
<path opacity="0.3" d="M517.698 285.845H444.163V303.878C487.342 303.878 501.061 306.439 517.695 321.725V285.841L517.698 285.845Z" fill="#3A3027"/>
<path d="M503.184 257.66L487.633 253.55C483.416 252.437 478.981 252.437 474.765 253.55L459.213 257.66C449.602 260.201 442.91 268.893 442.91 278.832V297.163L481.2 287.716L519.491 297.163V278.832C519.491 268.893 512.795 260.197 503.188 257.66H503.184Z" fill="#BABCBE"/>
<mask id="mask7_143_7" style="mask-type:luminance" maskUnits="userSpaceOnUse" x="442" y="252" width="78" height="46">
<path d="M503.184 257.66L487.633 253.55C483.416 252.437 478.981 252.437 474.765 253.55L459.213 257.66C449.602 260.201 442.91 268.893 442.91 278.832V297.163L481.2 287.716L519.491 297.163V278.832C519.491 268.893 512.795 260.197 503.188 257.66H503.184Z" fill="white"/>
</mask>
<g mask="url(#mask7_143_7)">
<path d="M482.491 248.616H436.266V303.595H482.491V248.616Z" fill="white"/>
<path d="M492.901 256.803L484.621 254.615C482.378 254.021 480.016 254.021 477.772 254.615L469.493 256.803C464.379 258.155 460.814 262.782 460.814 268.074V298.262L481.197 297.542L501.58 298.262V268.074C501.58 262.782 498.015 258.155 492.901 256.803Z" fill="#EFF0F0"/>
</g>
<path d="M503.184 257.66L487.633 253.55C483.416 252.437 478.981 252.437 474.765 253.55L459.213 257.66C449.602 260.201 442.91 268.893 442.91 278.832V297.163L481.2 287.716L519.491 297.163V278.832C519.491 268.893 512.795 260.197 503.188 257.66H503.184Z" stroke="#3A3027" stroke-width="6.0329" stroke-linejoin="round"/>
<path d="M521.327 296.995C498.107 277.729 464.29 277.729 441.073 296.995C438.55 299.085 438.065 302.4 439.806 304.077C441.551 305.763 444.552 305.497 446.666 303.752C466.646 287.173 495.752 287.173 515.732 303.752C517.845 305.497 520.846 305.763 522.591 304.077C524.332 302.4 523.847 299.085 521.324 296.995H521.327Z" fill="#EFF0F0"/>
<path d="M521.327 296.995C498.107 277.729 464.29 277.729 441.073 296.995C438.55 299.085 438.065 302.4 439.806 304.077C441.551 305.763 444.552 305.497 446.666 303.752C466.646 287.173 495.752 287.173 515.732 303.752C517.845 305.497 520.846 305.763 522.591 304.077C524.332 302.4 523.847 299.085 521.324 296.995H521.327Z" stroke="#3A3027" stroke-width="4.30873" stroke-linejoin="round"/>
<path d="M473.054 268.115H483.085C486.537 268.115 489.34 270.918 489.34 274.37H479.309C475.857 274.37 473.054 271.566 473.054 268.115Z" fill="#E1465B"/>
</g>
<defs>
<clipPath id="clip0_143_7">
<rect width="130.645" height="245.874" fill="white" transform="translate(120 239.702)"/>
</clipPath>
<clipPath id="clip1_143_7">
<rect width="131.232" height="251.262" fill="white" transform="translate(267.645 234.314)"/>
</clipPath>
<clipPath id="clip2_143_7">
<rect width="130.645" height="236.959" fill="white" transform="translate(415.876 248.616)"/>
</clipPath>
</defs>
</svg>
