<svg width="453" height="727" viewBox="0 0 453 727" fill="none" xmlns="http://www.w3.org/2000/svg">
<g clip-path="url(#clip0_74_1929)">
<rect width="452.821" height="726.5" fill="#B1DFFC"/>
<path d="M475.504 186.852H356.177C341.761 186.852 330.074 198.539 330.074 212.955C330.074 227.371 341.761 239.058 356.177 239.058H475.504C489.92 239.058 501.607 227.371 501.607 212.955C501.607 198.539 489.92 186.852 475.504 186.852Z" fill="white"/>
<path d="M92.341 51.6709H-15.6412C-28.6867 51.6709 -39.2623 62.2464 -39.2623 75.292C-39.2623 88.3376 -28.6867 98.9131 -15.6412 98.9131H92.341C105.387 98.9131 115.962 88.3376 115.962 75.292C115.962 62.2464 105.387 51.6709 92.341 51.6709Z" fill="white"/>
<path d="M452.821 420.665H0V726.5H452.821V420.665Z" fill="#89A55D"/>
<path d="M452.821 512.45H0V726.5H452.821V512.45Z" fill="#7E9654"/>
<path d="M452.821 581.573H0V726.5H452.821V581.573Z" fill="#71824A"/>
<path opacity="0.3" d="M226.41 581.315C293.392 581.315 347.691 574.399 347.691 565.867C347.691 557.335 293.392 550.418 226.41 550.418C159.429 550.418 105.13 557.335 105.13 565.867C105.13 574.399 159.429 581.315 226.41 581.315Z" fill="#3A3027"/>
<g clip-path="url(#clip1_74_1929)">
<path d="M136.707 308.274L128.915 308.674C121.916 309.037 117.057 315.792 118.945 322.547L119.382 324.11C120.116 326.732 122.575 328.495 125.293 328.354L142.314 327.48L173.63 439.211L182.903 436.612L152.172 326.969L150.158 319.777L149.513 317.474C147.921 311.793 142.603 307.971 136.707 308.274Z" fill="#CFD1D2" stroke="#A5A7AA" stroke-width="4.44406" stroke-linejoin="round"/>
<path d="M141.18 287.891L133.389 288.291C126.389 288.654 121.53 295.409 123.419 302.164L123.856 303.727C124.589 306.349 127.048 308.111 129.767 307.971L146.787 307.097L178.103 418.828L187.377 416.228L156.646 306.586L154.631 299.394L153.987 297.09C152.394 291.409 147.076 287.587 141.18 287.891Z" fill="#CFD1D2" stroke="#A5A7AA" stroke-width="4.44406" stroke-linejoin="round"/>
<path d="M132.507 329.087L124.715 329.487C117.716 329.85 112.857 336.605 114.746 343.36L115.183 344.923C115.916 347.545 118.375 349.308 121.093 349.167L138.114 348.293L169.43 460.024L178.703 457.425L147.972 347.782L145.958 340.59L145.313 338.287C143.721 332.606 138.403 328.784 132.507 329.087Z" fill="#CFD1D2" stroke="#A5A7AA" stroke-width="4.44406" stroke-linejoin="round"/>
<path d="M143.114 367.277H211.641V465.498C211.641 484.407 196.287 499.761 177.377 499.761C158.468 499.761 143.114 484.407 143.114 465.498V367.277Z" fill="#2B6E4F" stroke="#3A3027" stroke-width="7.40677" stroke-linejoin="round"/>
<path d="M270.34 435.241H297.426V460.046C297.426 472.956 286.946 483.437 274.036 483.437H270.34V435.234V435.241Z" fill="#EFD0B4" stroke="#3A3027" stroke-width="10.3695" stroke-linejoin="round"/>
<path d="M183.407 483.437H179.711C166.801 483.437 156.32 472.956 156.32 460.046V435.241H183.407V483.444V483.437Z" fill="#EFD0B4" stroke="#3A3027" stroke-width="10.3695" stroke-linejoin="round"/>
<path d="M297.449 451.225H270.362L270.34 379.735L285.568 386.594C292.782 389.845 297.426 397.022 297.426 404.94L297.449 451.225Z" fill="white" stroke="#3A3027" stroke-width="10.3695" stroke-linejoin="round"/>
<path d="M156.32 451.247H183.407V379.735L168.178 386.594C160.964 389.845 156.32 397.022 156.32 404.94V451.255V451.247Z" fill="white" stroke="#3A3027" stroke-width="10.3695" stroke-linejoin="round"/>
<path d="M270.34 379.735L226.877 361.292L183.407 379.735V469.142L176 550.35H277.747L270.34 469.142V379.735Z" fill="white"/>
<mask id="mask0_74_1929" style="mask-type:luminance" maskUnits="userSpaceOnUse" x="175" y="361" width="103" height="190">
<path d="M270.34 379.735L226.877 361.292L183.407 379.735V469.142L176 550.35H277.747L270.34 469.142V379.735Z" fill="white"/>
</mask>
<g mask="url(#mask0_74_1929)">
<path d="M272.569 382.209L232.817 413.606L268.103 377.261L272.569 382.209Z" fill="#CFD1D2"/>
<path d="M185.643 377.261L220.929 413.606L181.177 382.209L185.643 377.261Z" fill="#CFD1D2"/>
<path d="M192.228 470.216H261.518" stroke="#EFF0F0" stroke-width="4.44406" stroke-linejoin="round"/>
<path d="M249.697 470.216V478.134C249.697 484.659 254.986 489.955 261.518 489.955" stroke="#EFF0F0" stroke-width="4.44406" stroke-linejoin="round"/>
<path d="M204.049 470.216V478.134C204.049 484.659 198.761 489.955 192.228 489.955" stroke="#EFF0F0" stroke-width="4.44406" stroke-linejoin="round"/>
</g>
<path d="M270.34 379.735L226.877 361.292L183.407 379.735V469.142L176 550.35H277.747L270.34 469.142V379.735Z" stroke="#3A3027" stroke-width="10.3695" stroke-linejoin="round"/>
<path d="M244.498 377.95L226.869 360.322L209.249 377.95L226.869 413.606L244.498 377.95Z" fill="#EFD0B4" stroke="#CFD1D2" stroke-width="4.44406" stroke-linejoin="round"/>
<path d="M180.725 343.353H146.506V326.925C146.506 301.453 167.186 280.78 192.65 280.78H226.87V297.209C226.87 322.68 206.19 343.353 180.725 343.353Z" fill="#F7D080" stroke="#3A3027" stroke-width="8.88812" stroke-linejoin="round"/>
<path d="M226.877 280.78H261.096C286.568 280.78 307.24 301.46 307.24 326.924V343.353H273.021C247.549 343.353 226.877 322.673 226.877 297.208V280.78Z" fill="#F7D080" stroke="#3A3027" stroke-width="8.88812" stroke-linejoin="round"/>
<path d="M311.536 289.172C309.633 300.519 300.774 308.667 291.745 307.363C282.717 306.06 276.939 295.801 278.835 284.454C280.732 273.107 289.597 264.959 298.626 266.263C307.655 267.567 313.432 277.825 311.536 289.172Z" fill="#DEB18A" stroke="#3A3027" stroke-width="10.3695" stroke-linejoin="round"/>
<path d="M142.21 289.172C144.114 300.519 152.972 308.667 162.001 307.363C171.03 306.06 176.807 295.801 174.911 284.454C173.007 273.107 164.149 264.959 155.12 266.263C146.091 267.567 140.314 277.825 142.21 289.172Z" fill="#F5DFCD" stroke="#3A3027" stroke-width="10.3695" stroke-linejoin="round"/>
<path d="M290.546 230.399V305.756C290.546 314.229 288.027 322.51 283.317 329.546L262.407 360.773C254.467 372.624 241.142 379.735 226.884 379.735C212.619 379.735 199.294 372.624 191.361 360.773L170.452 329.546C165.734 322.51 163.223 314.222 163.223 305.756V230.399C163.223 206.787 182.37 187.64 205.982 187.64H247.808C271.421 187.64 290.568 206.787 290.568 230.399H290.546Z" fill="#DEB18A"/>
<path d="M203.153 187.64H226.877V377.95L224.299 377.483C208.93 374.72 195.131 366.373 185.54 354.055L171.193 335.627C166.023 328.984 163.208 320.806 163.208 312.385V227.585C163.208 205.52 181.096 187.64 203.153 187.64Z" fill="#F5DFCD"/>
<path d="M287.02 268.811L268.503 252.524V221.186H287.02V268.811Z" fill="#C79C4E"/>
<path d="M166.727 268.811L185.243 252.524V221.186H166.727V268.811Z" fill="#F7D080"/>
<path d="M268.503 215.593V305.008C268.503 326.569 262.096 347.641 250.105 365.551C244.912 373.298 236.202 377.95 226.877 377.95C217.552 377.95 208.841 373.298 203.649 365.551C191.65 347.641 185.251 326.569 185.251 305.008V215.593C185.251 200.158 197.768 187.64 213.204 187.64H240.55C255.985 187.64 268.503 200.158 268.503 215.593Z" fill="#EFD0B4"/>
<path d="M261.518 310.348C271.099 310.348 278.865 302.582 278.865 293.001C278.865 283.421 271.099 275.655 261.518 275.655C251.938 275.655 244.172 283.421 244.172 293.001C244.172 302.582 251.938 310.348 261.518 310.348Z" fill="#EFD0B4"/>
<path d="M216.307 347.056C222.181 341.123 231.551 341.16 237.439 347.056V347.575L234.795 347.7C229.551 347.871 224.188 347.871 218.944 347.7L216.3 347.575V347.056H216.307Z" fill="#CF9D76"/>
<path opacity="0.3" d="M287.02 322.754H166.727L206.397 377.95H247.349L287.02 322.754Z" fill="#B09077"/>
<path d="M192.228 310.348C201.808 310.348 209.575 302.582 209.575 293.001C209.575 283.421 201.808 275.655 192.228 275.655C182.648 275.655 174.881 283.421 174.881 293.001C174.881 302.582 182.648 310.348 192.228 310.348Z" fill="#EFD0B4"/>
<path d="M290.546 230.399V305.756C290.546 314.229 288.027 322.51 283.317 329.546L262.407 360.773C254.467 372.624 241.142 379.735 226.884 379.735C212.619 379.735 199.294 372.624 191.361 360.773L170.452 329.546C165.734 322.51 163.223 314.222 163.223 305.756V230.399C163.223 206.787 182.37 187.64 205.982 187.64H247.808C271.421 187.64 290.568 206.787 290.568 230.399H290.546Z" stroke="#3A3027" stroke-width="12.473" stroke-linejoin="round"/>
<path d="M242.105 276.262C246.601 269.544 255.489 267.767 261.726 273.181C262.659 273.988 263.592 274.892 264.526 276.262V277.003C260.896 277.277 256.941 277.344 253.312 277.373C250.608 277.351 247.616 277.307 244.905 277.188L242.105 277.01V276.27V276.262Z" fill="#3A3027"/>
<path d="M211.641 277.003C204.227 277.499 196.628 277.492 189.221 277.003V276.262C191.887 272.44 195.983 269.981 200.435 269.967C204.812 269.9 209.138 272.552 211.649 276.262V277.003H211.641Z" fill="#3A3027"/>
<path d="M264.526 275.655C262.933 267.685 252.445 265.678 246.32 269.589C244.253 270.907 242.579 272.966 242.105 275.655C241.594 272.863 243.12 269.944 245.29 268.196C247.52 266.337 250.445 265.434 253.312 265.419C258.808 265.263 265.422 269.589 264.526 275.655Z" fill="#3A3027"/>
<path d="M189.221 275.655C188.325 269.581 194.932 265.263 200.435 265.419C203.309 265.426 206.234 266.337 208.456 268.196C210.634 269.944 212.152 272.87 211.641 275.655C211.167 272.966 209.486 270.907 207.427 269.589C201.301 265.671 190.813 267.685 189.221 275.655Z" fill="#3A3027"/>
<path d="M242.105 252.412L268.503 256.856V261.3H242.105V252.412Z" fill="#936C50"/>
<path d="M211.641 261.3H185.243V256.856L211.641 252.412V261.3Z" fill="#936C50"/>
<path d="M204.049 322.606C204.049 330.065 214.271 336.116 226.877 336.116C239.483 336.116 249.705 330.065 249.705 322.606H204.049Z" fill="white" stroke="#CA8B83" stroke-width="4.44406" stroke-linejoin="round"/>
<path d="M226.877 312.274H250.008C255 312.274 259.052 316.325 259.052 321.318V324.132H226.877V312.274Z" fill="#936C50"/>
<path d="M226.877 324.14H194.702V321.325C194.702 316.333 198.753 312.281 203.746 312.281H226.877V324.14Z" fill="#936C50"/>
<path d="M249.697 305.697C254.097 307.304 258.341 309.185 262.563 311.163C263.37 311.563 264.459 312.022 265.162 312.563C266.029 313.155 266.762 313.948 267.37 314.792C269.814 318.266 269.458 323.362 266.436 326.376C262.874 329.532 259.185 332.25 255.297 334.976C257.778 332.169 260.415 329.532 263.096 326.954C265.785 324.732 267.54 321.732 266.54 318.214C266.051 316.229 264.659 314.563 262.903 313.563C261.718 312.918 260.407 312.207 259.244 311.533C256.008 309.696 252.801 307.8 249.697 305.697Z" fill="#3A3027"/>
<path d="M226.877 419.235V488.614" stroke="#E4E5E6" stroke-width="4.44406" stroke-linejoin="round"/>
<path d="M221.685 550.35L226.869 494.592L232.054 550.35H221.685Z" fill="#3A3027"/>
<path d="M178.718 550.35H226.877V565.867H163.208C163.208 557.305 170.163 550.35 178.725 550.35H178.718Z" fill="white" stroke="#3A3027" stroke-width="8.88812" stroke-linejoin="round"/>
<path d="M290.538 565.867H226.869V550.35H275.028C283.59 550.35 290.545 557.305 290.545 565.867H290.538Z" fill="white" stroke="#3A3027" stroke-width="8.88812" stroke-linejoin="round"/>
<path d="M219.152 296.386C215.707 297.038 212.878 300.342 213.345 303.852C213.611 306.734 216.307 309.119 219.085 308.941C221.026 308.874 224.936 308.815 226.877 308.808C228.817 308.808 232.728 308.874 234.669 308.934C241.528 308.845 242.387 299.712 236.432 297.023C235.869 296.72 235.247 296.557 234.602 296.386C237.217 295.801 240.387 296.957 242.179 299.468C246.468 305.326 241.957 313.659 234.735 313.852C232.417 313.963 229.21 313.963 226.877 313.992C224.536 313.955 221.351 313.963 219.018 313.852C211.804 313.659 207.293 305.334 211.582 299.475C213.374 296.964 216.544 295.801 219.152 296.386Z" fill="#3A3027"/>
<path d="M239.483 420.665H257.733V430.841C257.733 435.3 254.119 438.915 249.66 438.915H247.557C243.098 438.915 239.483 435.3 239.483 430.841V420.665Z" stroke="#EFF0F0" stroke-width="4.44406" stroke-linejoin="round"/>
<path d="M201.049 372.587L183.407 380.135V450.988C193.146 450.988 201.049 443.092 201.049 433.345V372.587Z" fill="#2B6E4F" stroke="#3A3027" stroke-width="7.40677" stroke-linejoin="round"/>
<path d="M259.052 443.84H238.165V450.766H259.052V443.84Z" fill="#2B6E4F"/>
<path d="M259.052 452.358H238.165V459.283H259.052V452.358Z" fill="#FCDA00"/>
<path opacity="0.3" d="M289.62 222.748H163.201V253.753C237.439 253.753 261.022 258.153 289.62 284.439V222.748Z" fill="#3A3027"/>
<path d="M254.319 159.917H199.42C178.437 159.917 161.423 176.93 161.423 197.913V236.325L193.472 222.689C214.811 213.608 238.928 213.608 260.267 222.689L292.316 236.325V197.913C292.316 176.93 275.302 159.917 254.319 159.917Z" fill="#255A40"/>
<mask id="mask1_74_1929" style="mask-type:luminance" maskUnits="userSpaceOnUse" x="161" y="159" width="132" height="78">
<path d="M254.319 159.917H199.42C178.437 159.917 161.423 176.93 161.423 197.913V236.325L193.472 222.689C214.811 213.608 238.928 213.608 260.267 222.689L292.316 236.325V197.913C292.316 176.93 275.302 159.917 254.319 159.917Z" fill="white"/>
</mask>
<g mask="url(#mask1_74_1929)">
<path d="M226.87 161.132H158.364V241.932H226.87V161.132Z" fill="#367E5B"/>
<path d="M214.13 161.132H239.617C255.452 161.132 268.303 173.982 268.303 189.818V235.11H185.443V189.818C185.443 173.982 198.294 161.132 214.13 161.132Z" fill="#2B6E4F"/>
</g>
<path d="M254.319 159.917H199.42C178.437 159.917 161.423 176.93 161.423 197.913V236.325L193.472 222.689C214.811 213.608 238.928 213.608 260.267 222.689L292.316 236.325V197.913C292.316 176.93 275.302 159.917 254.319 159.917Z" stroke="#3A3027" stroke-width="10.3695" stroke-linejoin="round"/>
<path d="M298.663 235.333C257.126 200.861 196.62 200.861 155.083 235.333C150.572 239.073 149.706 244.998 152.817 248.006C155.935 251.02 161.305 250.546 165.09 247.428C200.835 217.764 252.904 217.764 288.657 247.428C292.434 250.546 297.812 251.02 300.93 248.006C304.048 245.006 303.181 239.073 298.663 235.333Z" fill="#2B6E4F"/>
<path d="M298.663 235.333C257.126 200.861 196.62 200.861 155.083 235.333C150.572 239.073 149.706 244.998 152.817 248.006C155.935 251.02 161.305 250.546 165.09 247.428C200.835 217.764 252.904 217.764 288.657 247.428C292.434 250.546 297.812 251.02 300.93 248.006C304.048 245.006 303.181 239.073 298.663 235.333Z" stroke="#3A3027" stroke-width="7.40677" stroke-linejoin="round"/>
<path d="M203.272 194.773C202.649 194.106 202.338 192.995 202.338 191.447C202.338 190.218 202.546 188.892 202.96 187.47C203.375 186.055 204.042 184.833 204.968 183.818C205.886 182.804 207.056 182.3 208.478 182.3C209.36 182.3 210.064 182.493 210.604 182.878C211.145 183.263 211.412 183.855 211.412 184.655C211.412 185.159 211.315 185.559 211.115 185.84C210.915 186.122 210.604 186.27 210.182 186.27C209.76 186.27 209.427 186.115 209.182 185.811C209.397 185.707 209.582 185.492 209.745 185.181C209.908 184.863 209.989 184.537 209.989 184.196C209.989 183.878 209.908 183.618 209.738 183.426C209.567 183.226 209.293 183.13 208.923 183.13C208.301 183.13 207.708 183.552 207.145 184.404C206.582 185.255 206.131 186.322 205.782 187.611C205.434 188.899 205.264 190.144 205.264 191.336C205.264 192.225 205.419 192.907 205.723 193.373C206.027 193.84 206.582 194.077 207.375 194.077C208.064 194.077 208.708 193.921 209.293 193.618C209.878 193.314 210.382 192.877 210.804 192.314L211.212 192.492C210.915 193.232 210.486 193.847 209.908 194.336C209.33 194.825 208.715 195.188 208.064 195.417C207.404 195.647 206.782 195.758 206.197 195.758C204.871 195.758 203.901 195.425 203.279 194.758L203.272 194.773Z" fill="white"/>
<path d="M211.189 194.914C210.745 194.455 210.523 193.744 210.523 192.766C210.523 191.899 210.693 190.988 211.041 190.033C211.389 189.077 211.9 188.27 212.589 187.603C213.278 186.944 214.093 186.611 215.041 186.611C215.522 186.611 215.878 186.692 216.115 186.855C216.352 187.018 216.463 187.233 216.463 187.507V187.633L216.656 186.7H219.189L217.922 192.677C217.878 192.855 217.848 193.04 217.848 193.24C217.848 193.744 218.085 193.995 218.566 193.995C218.892 193.995 219.181 193.84 219.418 193.536C219.655 193.232 219.848 192.833 219.989 192.344H220.729C220.292 193.61 219.759 194.469 219.122 194.921C218.485 195.373 217.841 195.595 217.196 195.595C216.7 195.595 216.307 195.455 216.011 195.18C215.715 194.906 215.53 194.499 215.478 193.973C215.137 194.455 214.759 194.847 214.345 195.143C213.93 195.44 213.434 195.595 212.856 195.595C212.189 195.595 211.634 195.366 211.182 194.906L211.189 194.914ZM214.87 193.484C215.159 193.21 215.352 192.833 215.463 192.351L216.307 188.374C216.307 188.218 216.248 188.07 216.13 187.922C216.011 187.774 215.833 187.7 215.582 187.7C215.115 187.7 214.693 187.974 214.315 188.514C213.937 189.062 213.648 189.714 213.434 190.485C213.219 191.255 213.115 191.929 213.115 192.514C213.115 193.099 213.197 193.477 213.367 193.64C213.537 193.803 213.745 193.884 213.989 193.884C214.285 193.884 214.574 193.744 214.856 193.47L214.87 193.484Z" fill="white"/>
<path d="M220.433 194.914C219.989 194.454 219.766 193.743 219.766 192.766C219.766 191.899 219.937 190.988 220.285 190.033C220.633 189.077 221.144 188.27 221.833 187.603C222.522 186.944 223.336 186.611 224.284 186.611C224.766 186.611 225.121 186.692 225.358 186.855C225.595 187.018 225.707 187.233 225.707 187.507V187.574L226.566 183.53L229.166 183.181L227.144 192.677C227.099 192.855 227.077 193.04 227.077 193.24C227.077 193.477 227.136 193.64 227.247 193.743C227.358 193.847 227.543 193.892 227.803 193.892C228.129 193.892 228.417 193.751 228.654 193.469C228.891 193.188 229.084 192.81 229.225 192.344H229.965C229.247 194.44 228.069 195.491 226.432 195.491C225.951 195.491 225.558 195.366 225.262 195.106C224.966 194.847 224.781 194.477 224.707 193.98C224.403 194.447 224.033 194.84 223.61 195.143C223.181 195.447 222.685 195.603 222.107 195.603C221.44 195.603 220.885 195.373 220.433 194.914ZM224.099 193.506C224.388 193.247 224.581 192.892 224.692 192.432V192.344L225.551 188.314C225.447 187.907 225.203 187.7 224.833 187.7C224.366 187.7 223.944 187.974 223.566 188.514C223.188 189.062 222.899 189.714 222.685 190.484C222.47 191.255 222.366 191.929 222.366 192.514C222.366 193.099 222.448 193.477 222.618 193.64C222.788 193.803 222.996 193.884 223.24 193.884C223.522 193.884 223.803 193.758 224.092 193.499L224.099 193.506Z" fill="white"/>
<path d="M229.669 194.914C229.225 194.454 229.003 193.743 229.003 192.766C229.003 191.899 229.173 190.988 229.521 190.033C229.869 189.077 230.38 188.27 231.069 187.603C231.758 186.944 232.573 186.611 233.521 186.611C234.002 186.611 234.358 186.692 234.595 186.855C234.832 187.018 234.95 187.233 234.95 187.507V187.574L235.809 183.53L238.409 183.181L236.387 192.677C236.343 192.855 236.321 193.04 236.321 193.24C236.321 193.477 236.372 193.64 236.491 193.743C236.602 193.84 236.787 193.892 237.046 193.892C237.372 193.892 237.661 193.751 237.898 193.469C238.135 193.188 238.328 192.81 238.468 192.344H239.209C238.491 194.44 237.313 195.491 235.676 195.491C235.195 195.491 234.81 195.366 234.506 195.106C234.21 194.847 234.024 194.477 233.95 193.98C233.647 194.447 233.276 194.84 232.854 195.143C232.425 195.447 231.928 195.603 231.351 195.603C230.684 195.603 230.128 195.373 229.677 194.914H229.669ZM233.336 193.506C233.624 193.247 233.817 192.892 233.928 192.432V192.344L234.787 188.314C234.684 187.907 234.439 187.7 234.069 187.7C233.602 187.7 233.18 187.974 232.802 188.514C232.425 189.062 232.136 189.714 231.921 190.484C231.706 191.255 231.602 191.929 231.602 192.514C231.602 193.099 231.684 193.477 231.854 193.64C232.025 193.803 232.232 193.884 232.476 193.884C232.758 193.884 233.039 193.758 233.328 193.499L233.336 193.506Z" fill="white"/>
<path d="M238.839 195.077C238.491 194.729 238.32 194.195 238.32 193.492C238.32 193.195 238.365 192.818 238.461 192.351L239.654 186.707H242.187L240.92 192.684C240.876 192.862 240.853 193.047 240.853 193.247C240.853 193.484 240.905 193.647 241.024 193.751C241.135 193.847 241.32 193.899 241.579 193.899C241.92 193.899 242.239 193.758 242.527 193.469C242.816 193.181 243.031 192.81 243.157 192.351H243.898C243.461 193.618 242.905 194.477 242.224 194.929C241.542 195.38 240.868 195.603 240.202 195.603C239.639 195.603 239.187 195.425 238.839 195.077ZM240.416 185.352C240.15 185.085 240.009 184.752 240.009 184.367C240.009 183.981 240.142 183.648 240.416 183.374C240.683 183.1 241.016 182.959 241.402 182.959C241.787 182.959 242.12 183.1 242.394 183.374C242.668 183.648 242.809 183.981 242.809 184.367C242.809 184.752 242.668 185.085 242.394 185.352C242.12 185.618 241.787 185.759 241.402 185.759C241.016 185.759 240.683 185.626 240.416 185.352Z" fill="white"/>
<path d="M243.631 194.921C243.149 194.469 242.912 193.766 242.912 192.803C242.912 191.995 243.068 191.107 243.387 190.129C243.705 189.159 244.216 188.314 244.935 187.603C245.646 186.892 246.557 186.537 247.66 186.537C248.949 186.537 249.593 187.1 249.593 188.225C249.593 188.885 249.408 189.485 249.03 190.04C248.653 190.596 248.156 191.033 247.534 191.366C246.912 191.699 246.253 191.892 245.549 191.936C245.527 192.195 245.512 192.373 245.512 192.462C245.512 193.432 245.875 193.921 246.601 193.921C246.927 193.921 247.282 193.832 247.653 193.655C248.031 193.477 248.371 193.255 248.675 192.988C248.356 194.721 247.342 195.588 245.631 195.588C244.772 195.588 244.105 195.365 243.624 194.914L243.631 194.921ZM246.927 190.662C247.32 190.381 247.638 190.018 247.875 189.581C248.112 189.144 248.238 188.685 248.238 188.203C248.238 187.722 248.09 187.485 247.801 187.485C247.394 187.485 246.986 187.855 246.579 188.603C246.171 189.351 245.875 190.181 245.675 191.107C246.12 191.092 246.542 190.951 246.934 190.67L246.927 190.662Z" fill="white"/>
<path opacity="0.8" d="M271.962 292.802L250.423 297.868C242.216 299.801 234.091 294.357 232.75 286.039L229.084 263.308H287.012L283.739 280.514C282.583 286.58 277.969 291.394 271.962 292.809V292.802Z" fill="url(#paint0_linear_74_1929)"/>
<path opacity="0.8" d="M181.784 292.802L203.323 297.868C211.53 299.801 219.655 294.357 220.996 286.039L224.662 263.308H166.734L170.008 280.514C171.163 286.58 175.778 291.394 181.784 292.809V292.802Z" fill="url(#paint1_linear_74_1929)"/>
<path d="M163.201 263.308H290.545" stroke="#2B6E4F" stroke-width="7.40677" stroke-linecap="round" stroke-linejoin="round"/>
</g>
</g>
<defs>
<linearGradient id="paint0_linear_74_1929" x1="229.084" y1="280.78" x2="287.02" y2="280.78" gradientUnits="userSpaceOnUse">
<stop stop-color="#CB8E5B"/>
<stop offset="1" stop-color="#623A1C"/>
</linearGradient>
<linearGradient id="paint1_linear_74_1929" x1="224.662" y1="280.78" x2="166.726" y2="280.78" gradientUnits="userSpaceOnUse">
<stop stop-color="#CB8E5B"/>
<stop offset="1" stop-color="#623A1C"/>
</linearGradient>
<clipPath id="clip0_74_1929">
<rect width="453" height="727" fill="white"/>
</clipPath>
<clipPath id="clip1_74_1929">
<rect width="204.968" height="415.579" fill="white" transform="translate(112.116 154.732)"/>
</clipPath>
</defs>
</svg>
