<svg width="51" height="40" viewBox="0 0 51 40" fill="none" xmlns="http://www.w3.org/2000/svg">
<g clip-path="url(#clip0_72_1018)">
<path d="M16.8906 6.625C17.8672 2.73438 21.3672 0 25.3828 0H25.5C30.3359 0 34.25 3.91406 34.25 8.75V9.24219C34.25 12.0938 32.8594 14.7734 30.5156 16.4141L29.8672 16.8672L48.0156 29.4688C49.5703 30.5469 50.5 32.3203 50.5 34.2188C50.5 37.4141 47.9141 40 44.7188 40H6.28125C3.08594 40 0.5 37.4141 0.5 34.2188C0.5 32.3281 1.42969 30.5469 2.98438 29.4688L24.0625 14.8281L24.0703 14.8203L27.6484 12.3203C28.6484 11.6172 29.25 10.4688 29.25 9.25V8.75781C29.25 6.6875 27.5703 5.00781 25.5 5.00781H25.3828C23.6641 5.00781 22.1641 6.17969 21.7422 7.85156L21.6719 8.11719C21.3359 9.45312 19.9766 10.2734 18.6406 9.9375C17.3047 9.60156 16.4844 8.24219 16.8203 6.90625L16.8906 6.64062V6.625ZM25.5 19.9219L5.83594 33.5703C5.625 33.7188 5.5 33.9531 5.5 34.2109C5.5 34.6406 5.85156 34.9922 6.28125 34.9922H44.7188C45.1484 34.9922 45.5 34.6406 45.5 34.2109C45.5 33.9531 45.375 33.7109 45.1641 33.5703L25.5 19.9219Z" fill="#53A07A"/>
</g>
<defs>
<clipPath id="clip0_72_1018">
<rect width="50" height="40" fill="white" transform="translate(0.5)"/>
</clipPath>
</defs>
</svg>
