<svg width="51" height="50" viewBox="0 0 51 50" fill="none" xmlns="http://www.w3.org/2000/svg">
<g clip-path="url(#clip0_72_1024)">
<path d="M34.1913 3.81836L46.6718 16.4453C51.7889 21.6211 51.7889 29.9414 46.6718 35.1172L35.7343 46.1816C34.826 47.0996 33.3417 47.1094 32.4237 46.2012C31.5057 45.293 31.496 43.8086 32.4042 42.8906L43.3319 31.8262C46.6425 28.4766 46.6425 23.0957 43.3319 19.7461L30.8612 7.11914C29.953 6.20117 29.9628 4.7168 30.8807 3.80859C31.7987 2.90039 33.2831 2.91016 34.1913 3.82813V3.81836ZM0.499878 22.4121V7.8125C0.499878 5.22461 2.59949 3.125 5.18738 3.125H19.787C21.4471 3.125 23.0389 3.7793 24.2108 4.95117L40.6171 21.3574C43.0585 23.7988 43.0585 27.7539 40.6171 30.1953L27.58 43.2324C25.1385 45.6738 21.1835 45.6738 18.7421 43.2324L2.33582 26.8262C1.15417 25.6543 0.499878 24.0723 0.499878 22.4121ZM14.5624 14.0625C14.5624 13.2337 14.2331 12.4388 13.6471 11.8528C13.061 11.2667 12.2662 10.9375 11.4374 10.9375C10.6086 10.9375 9.81372 11.2667 9.22767 11.8528C8.64162 12.4388 8.31238 13.2337 8.31238 14.0625C8.31238 14.8913 8.64162 15.6862 9.22767 16.2722C9.81372 16.8583 10.6086 17.1875 11.4374 17.1875C12.2662 17.1875 13.061 16.8583 13.6471 16.2722C14.2331 15.6862 14.5624 14.8913 14.5624 14.0625Z" fill="#53A07A"/>
</g>
<defs>
<clipPath id="clip0_72_1024">
<rect width="50" height="50" fill="white" transform="translate(0.499878)"/>
</clipPath>
</defs>
</svg>
