<svg width="151" height="179" viewBox="0 0 151 179" fill="none" xmlns="http://www.w3.org/2000/svg">
<path d="M146.008 105.197C147.635 94.7353 142.693 85.2808 134.97 84.0797C127.247 82.8785 119.667 90.3856 118.04 100.847C116.413 111.309 121.355 120.763 129.078 121.964C136.801 123.166 144.381 115.658 146.008 105.197Z" fill="#CF9D76" stroke="#3A3027" stroke-width="8.80518" stroke-linejoin="round"/>
<path d="M21.8759 121.956C29.599 120.755 34.5409 111.301 32.9139 100.839C31.2869 90.3777 23.7071 82.8706 15.984 84.0718C8.26083 85.2729 3.31896 94.7274 4.94598 105.189C6.57299 115.651 14.1528 123.158 21.8759 121.956Z" fill="#F5DFCD" stroke="#3A3027" stroke-width="8.80518" stroke-linejoin="round"/>
<path d="M129.527 43.2283V131.235C129.527 154.317 110.815 173.034 87.7283 173.034H63.2163C40.1345 173.034 21.4178 154.322 21.4178 131.235V43.2283H129.522H129.527Z" fill="#EBC09B"/>
<path d="M21.4178 38.8879H77.9663V171.514H68.0549C42.3171 171.514 21.4178 150.615 21.4178 124.877V38.8879Z" fill="#F5DFCD"/>
<path d="M103.415 120.621C111.726 120.621 118.464 113.883 118.464 105.572C118.464 97.2606 111.726 90.5229 103.415 90.5229C95.1038 90.5229 88.3661 97.2606 88.3661 105.572C88.3661 113.883 95.1038 120.621 103.415 120.621Z" fill="#EFD0B4"/>
<path d="M47.5244 120.621C55.8358 120.621 62.5735 113.883 62.5735 105.572C62.5735 97.2606 55.8358 90.5229 47.5244 90.5229C39.2131 90.5229 32.4754 97.2606 32.4754 105.572C32.4754 113.883 39.2131 120.621 47.5244 120.621Z" fill="#EFD0B4"/>
<path d="M129.527 115.274H21.4178V134.385C21.4178 155.907 38.8638 173.353 60.3859 173.353H90.5587C112.081 173.353 129.527 155.907 129.527 134.385V115.274Z" fill="#BC682A"/>
<path d="M107.123 44.748V129.297C107.123 141.71 96.1647 151.771 82.6505 151.771H68.2991C54.7799 151.771 43.827 141.71 43.827 129.297V44.748H107.128H107.123Z" fill="#EFD0B4"/>
<path d="M129.527 43.2283V131.235C129.527 154.317 110.815 173.034 87.7283 173.034H63.2163C40.1345 173.034 21.4178 154.322 21.4178 131.235V43.2283H129.522H129.527Z" stroke="#3A3027" stroke-width="10.5891" stroke-linejoin="round"/>
<path d="M54.1271 128.41C54.1271 134.773 63.6847 139.931 75.4748 139.931C87.2648 139.931 96.8225 134.773 96.8225 128.41H54.1321H54.1271Z" fill="white" stroke="#CA8B83" stroke-width="3.77222" stroke-linejoin="round"/>
<path d="M60.6001 112.234H90.3444C99.603 112.234 107.123 119.754 107.123 129.013H43.822C43.822 119.754 51.3415 112.234 60.6001 112.234Z" fill="#BC682A"/>
<path d="M94.225 78.0773L103.635 79.886C108.955 80.9084 112.441 86.0541 111.419 91.3734L82.7327 85.8598C83.7551 80.5405 88.9008 77.054 94.2201 78.0764L94.225 78.0773Z" fill="#BC682A"/>
<path d="M105.508 93.2437C100.55 97.1605 93.1549 96.6073 88.7299 92.1474C88.0521 91.4598 87.3894 90.7073 86.7864 89.6459L86.8811 89.1526C89.9507 89.5512 93.2595 90.1392 96.2893 90.7023C98.5416 91.1508 101.033 91.6591 103.286 92.1773L105.603 92.7454L105.508 93.2387V93.2437Z" fill="#3A3027"/>
<path d="M68.1974 85.8613L39.5115 91.375C38.489 86.0557 41.9756 80.91 47.2949 79.8876L56.7052 78.0789C62.0244 77.0565 67.1701 80.543 68.1926 85.8623L68.1974 85.8613Z" fill="#BC682A"/>
<path d="M45.3418 92.7504C51.471 91.2306 57.8096 90.0147 64.0634 89.1526L64.1581 89.6459C62.2645 92.86 59.1002 94.9529 55.602 95.6406C52.1537 96.3333 48.2769 95.4911 45.4365 93.2387L45.3418 92.7454V92.7504Z" fill="#3A3027"/>
<path d="M69.4202 104.336C66.1712 104.336 63.5402 106.972 63.5402 110.216C63.5402 113.465 66.1762 116.096 69.4202 116.096H81.5243C84.7733 116.096 87.4043 113.46 87.4043 110.216C87.4043 106.967 84.7683 104.336 81.5243 104.336" fill="#EFD0B4"/>
<path d="M69.4203 104.336C66.4952 105.049 64.6664 107.461 64.9803 110.186C65.2145 112.369 67.2726 114.163 69.3705 114.013C70.8903 113.959 73.95 113.904 75.4748 113.899C76.9946 113.899 80.0593 113.954 81.5791 114.008C83.672 114.158 85.7301 112.369 85.9593 110.186C86.2732 107.461 84.4494 105.054 81.5243 104.336C83.5724 103.833 86.0938 104.725 87.5339 106.713C90.9872 111.367 87.3944 118.025 81.6289 118.184C79.8051 118.279 77.3036 118.284 75.4698 118.299C74.4582 118.289 71.8471 118.269 70.8704 118.229C67.5068 118.409 64.2478 117.038 62.7977 113.959C61.6516 111.651 61.8709 108.726 63.4106 106.713C64.8458 104.73 67.3672 103.838 69.4153 104.336H69.4203Z" fill="#3A3027"/>
<path opacity="0.3" d="M128.744 53.3536H21.4178V79.6745C84.4394 79.6745 104.462 83.4118 128.739 105.721V53.3486L128.744 53.3536Z" fill="#3A3027"/>
<path d="M107.561 12.2181L84.863 6.21837C78.7088 4.59388 72.2357 4.59388 66.0816 6.21837L43.3835 12.2181C29.356 15.9255 19.5891 28.6125 19.5891 43.1184V69.8728L75.4748 56.0845L131.361 69.8728V43.1184C131.361 28.6125 121.589 15.9205 107.566 12.2181H107.561Z" fill="#BABCBE"/>
<mask id="mask0_74_2592" style="mask-type:luminance" maskUnits="userSpaceOnUse" x="19" y="5" width="113" height="65">
<path d="M107.561 12.2181L84.863 6.21837C78.7088 4.59388 72.2357 4.59388 66.0816 6.21837L43.3835 12.2181C29.356 15.9255 19.5891 28.6125 19.5891 43.1184V69.8728L75.4748 56.0845L131.361 69.8728V43.1184C131.361 28.6125 121.589 15.9205 107.566 12.2181H107.561Z" fill="white"/>
</mask>
<g mask="url(#mask0_74_2592)">
<path d="M77.3584 -0.982178H9.89191V79.2611H77.3584V-0.982178Z" fill="white"/>
<path d="M92.5519 10.9673L80.4678 7.7731C77.1939 6.90604 73.7456 6.90604 70.4717 7.7731L58.3876 10.9673C50.9229 12.9406 45.7205 19.6927 45.7205 27.4166V71.4774L75.4698 70.4259L105.219 71.4774V27.4166C105.219 19.6927 100.017 12.9406 92.5519 10.9673Z" fill="#EFF0F0"/>
<circle cx="75.0811" cy="29.6461" r="10.1661" fill="#F2E3D7"/>
<path d="M75.0811 16.0637C77.0656 16.0637 78.7912 17.162 79.6594 18.7749C81.4336 18.239 83.4396 18.6635 84.8417 20.0429C86.2437 21.4224 86.6751 23.4013 86.1305 25.1416C87.7698 25.9958 88.8861 27.6935 88.8861 29.646C88.8861 31.5985 87.7698 33.2962 86.1305 34.1504C86.6751 35.896 86.2437 37.8696 84.8417 39.2491C83.4396 40.6285 81.4282 41.053 79.6594 40.5171C78.7912 42.13 77.0656 43.2283 75.0811 43.2283C73.0967 43.2283 71.371 42.13 70.5028 40.5171C68.7287 41.053 66.7227 40.6285 65.3206 39.2491C63.9185 37.8696 63.4871 35.8907 64.0318 34.1504C62.3924 33.2962 61.2762 31.5985 61.2762 29.646C61.2762 27.6935 62.3924 25.9958 64.0318 25.1416C63.4871 23.396 63.9185 21.4224 65.3206 20.0429C66.7227 18.6635 68.7341 18.239 70.5028 18.7749C71.371 17.162 73.0967 16.0637 75.0811 16.0637ZM81.1747 27.1524C81.6816 26.6537 81.6816 25.8472 81.1747 25.3538C80.6678 24.8604 79.8481 24.8551 79.3466 25.3538L73.3609 31.243L70.8264 28.7494C70.3195 28.2506 69.4998 28.2506 68.9983 28.7494C68.4968 29.2481 68.4914 30.0545 68.9983 30.5479L72.4496 33.9435C72.9565 34.4422 73.7761 34.4422 74.2776 33.9435L81.1747 27.1524Z" fill="#D39D63"/>
</g>
<path d="M107.561 12.2181L84.863 6.21837C78.7088 4.59388 72.2357 4.59388 66.0816 6.21837L43.3835 12.2181C29.356 15.9255 19.5891 28.6125 19.5891 43.1184V69.8728L75.4748 56.0845L131.361 69.8728V43.1184C131.361 28.6125 121.589 15.9205 107.566 12.2181H107.561Z" stroke="#3A3027" stroke-width="8.80518" stroke-linejoin="round"/>
<path d="M134.041 69.6286C100.151 41.5089 50.7934 41.5089 16.9081 69.6286C13.2256 72.6783 12.518 77.5169 15.0594 79.9636C17.6058 82.4253 21.9859 82.0366 25.0705 79.4902C54.2317 55.2922 96.7128 55.2922 125.874 79.4902C128.959 82.0366 133.339 82.4253 135.885 79.9636C138.427 77.5169 137.719 72.6783 134.036 69.6286H134.041Z" fill="#EFF0F0"/>
<path d="M134.041 69.6286C100.151 41.5089 50.7934 41.5089 16.9081 69.6286C13.2256 72.6783 12.518 77.5169 15.0594 79.9636C17.6058 82.4253 21.9859 82.0366 25.0705 79.4902C54.2317 55.2922 96.7128 55.2922 125.874 79.4902C128.959 82.0366 133.339 82.4253 135.885 79.9636C138.427 77.5169 137.719 72.6783 134.036 69.6286H134.041Z" stroke="#3A3027" stroke-width="6.2887" stroke-linejoin="round"/>
</svg>
