<svg width="45" height="45" viewBox="0 0 45 45" fill="none" xmlns="http://www.w3.org/2000/svg">
<path d="M8.54492 38.3037H36.4453C35.6836 33.001 31.1328 28.9287 25.6152 28.9287H19.3652C13.8574 28.9287 9.29688 33.001 8.53516 38.3037H8.54492ZM0.625 7.05371C0.625 3.60645 3.42773 0.803711 6.875 0.803711H38.125C41.5723 0.803711 44.375 3.60645 44.375 7.05371V38.3037C44.375 41.751 41.5723 44.5537 38.125 44.5537H6.875C3.42773 44.5537 0.625 41.751 0.625 38.3037V7.05371ZM22.5 24.2412C24.3648 24.2412 26.1532 23.5004 27.4718 22.1818C28.7905 20.8632 29.5312 19.0748 29.5312 17.21C29.5312 15.3452 28.7905 13.5567 27.4718 12.2381C26.1532 10.9195 24.3648 10.1787 22.5 10.1787C20.6352 10.1787 18.8468 10.9195 17.5282 12.2381C16.2095 13.5567 15.4688 15.3452 15.4688 17.21C15.4688 19.0748 16.2095 20.8632 17.5282 22.1818C18.8468 23.5004 20.6352 24.2412 22.5 24.2412Z" fill="#53A07A"/>
</svg>
