<svg width="51" height="50" viewBox="0 0 51 50" fill="none" xmlns="http://www.w3.org/2000/svg">
<g clip-path="url(#clip0_72_1021)">
<path d="M0.519531 45.791C0.763672 48.1543 2.75586 50 5.1875 50H14.5625H45.8125C48.4004 50 50.5 47.9004 50.5 45.3125V35.9375C50.5 33.3496 48.4004 31.25 45.8125 31.25H41.125V39.0625C41.125 39.9219 40.4219 40.625 39.5625 40.625C38.7031 40.625 38 39.9219 38 39.0625V31.25H31.75V39.0625C31.75 39.9219 31.0469 40.625 30.1875 40.625C29.3281 40.625 28.625 39.9219 28.625 39.0625V31.25H22.375V39.0625C22.375 39.9219 21.6719 40.625 20.8125 40.625C19.9531 40.625 19.25 39.9219 19.25 39.0625V31.25H11.4375C10.5781 31.25 9.875 30.5469 9.875 29.6875C9.875 28.8281 10.5781 28.125 11.4375 28.125H19.25V21.875H11.4375C10.5781 21.875 9.875 21.1719 9.875 20.3125C9.875 19.4531 10.5781 18.75 11.4375 18.75H19.25V12.5H11.4375C10.5781 12.5 9.875 11.7969 9.875 10.9375C9.875 10.0781 10.5781 9.375 11.4375 9.375H19.25V4.6875C19.25 2.09961 17.1504 0 14.5625 0H5.1875C2.59961 0 0.5 2.09961 0.5 4.6875V35.9375V45.3125C0.5 45.4785 0.509766 45.6348 0.519531 45.791Z" fill="#53A07A"/>
</g>
<defs>
<clipPath id="clip0_72_1021">
<rect width="50" height="50" fill="white" transform="translate(0.5)"/>
</clipPath>
</defs>
</svg>
