<svg width="37" height="37" viewBox="0 0 37 37" fill="none" xmlns="http://www.w3.org/2000/svg">
<path d="M5.12274 8.706C5.12274 6.90537 6.58671 5.44141 8.38734 5.44141H27.9749C29.7755 5.44141 31.2395 6.90537 31.2395 8.706V23.3967C31.2395 25.1973 29.7755 26.6613 27.9749 26.6613H20.8999L14.5901 31.3949C14.3452 31.5786 14.0137 31.6092 13.7331 31.4715C13.4526 31.3337 13.2842 31.0532 13.2842 30.742V26.6613H8.38734C6.58671 26.6613 5.12274 25.1973 5.12274 23.3967L5.12274 8.706ZM18.1811 9.52215C17.5027 9.52215 16.9569 10.0679 16.9569 10.7464V16.4594C16.9569 17.1378 17.5027 17.6836 18.1811 17.6836C18.8595 17.6836 19.4053 17.1378 19.4053 16.4594V10.7464C19.4053 10.0679 18.8595 9.52215 18.1811 9.52215ZM19.8134 20.9482C19.8134 20.5153 19.6414 20.1001 19.3353 19.794C19.0292 19.4879 18.614 19.3159 18.1811 19.3159C17.7482 19.3159 17.333 19.4879 17.0269 19.794C16.7208 20.1001 16.5488 20.5153 16.5488 20.9482C16.5488 21.3811 16.7208 21.7963 17.0269 22.1024C17.333 22.4086 17.7482 22.5805 18.1811 22.5805C18.614 22.5805 19.0292 22.4086 19.3353 22.1024C19.6414 21.7963 19.8134 21.3811 19.8134 20.9482Z" fill="#D39D63"/>
</svg>
