<svg xmlns="http://www.w3.org/2000/svg" width="233" height="41" fill="none" viewBox="0 0 233 41"><g clip-path="url(#clip0_70_2)"><path fill="#2B6E4F" d="M3.05372 37.7182C1.2126 35.737 0.289978 32.4543 0.289978 27.8659C0.289978 24.2166 0.907805 20.2914 2.13934 16.086C3.37087 11.8807 5.35204 8.27669 8.08283 5.26993C10.8095 2.26729 14.2776 0.763916 18.4829 0.763916C21.0901 0.763916 23.1908 1.33644 24.7889 2.48559C26.387 3.63063 27.186 5.38526 27.186 7.74948C27.186 9.24462 26.8895 10.4185 26.3005 11.267C25.7074 12.1196 24.7889 12.5438 23.5367 12.5438C22.2846 12.5438 21.2961 12.0907 20.5671 11.1887C21.1931 10.8757 21.7492 10.2496 22.2352 9.31052C22.7212 8.37143 22.9642 7.39938 22.9642 6.39026C22.9642 5.45116 22.713 4.68918 22.2105 4.09606C21.708 3.50707 20.8966 3.21051 19.7886 3.21051C17.9475 3.21051 16.1928 4.47088 14.5247 6.98749C12.8566 9.50823 11.5097 12.6797 10.4841 16.4979C9.45853 20.3202 8.94779 24.0024 8.94779 27.5488C8.94779 30.189 9.40087 32.2072 10.3029 33.5952C11.2049 34.9874 12.8401 35.6794 15.2043 35.6794C17.2555 35.6794 19.1461 35.2304 20.8842 34.3243C22.6224 33.4222 24.1175 32.1331 25.3655 30.469L26.5641 30.9921C25.695 33.1792 24.4099 35.0039 22.7089 36.4661C21.0078 37.9241 19.1831 38.995 17.2349 39.6705C15.2867 40.3501 13.4456 40.6879 11.7115 40.6879C7.78628 40.6879 4.89897 39.6994 3.05784 37.7182H3.05372Z"/><path fill="#2B6E4F" d="M26.5064 38.1342C25.1843 36.7791 24.5253 34.6579 24.5253 31.7747C24.5253 29.2046 25.0401 26.5026 26.0616 23.6688C27.0872 20.8351 28.6153 18.4379 30.65 16.4773C32.6847 14.5168 35.1066 13.5323 37.9198 13.5323C39.3449 13.5323 40.4034 13.7754 41.0995 14.2614C41.7956 14.7474 42.1416 15.3899 42.1416 16.189V16.5556L42.7141 13.7918H50.2186L46.4664 31.5152C46.3263 32.0383 46.2563 32.5944 46.2563 33.1834C46.2563 34.6785 46.9689 35.424 48.394 35.424C49.366 35.424 50.2104 34.9751 50.923 34.0689C51.6355 33.1669 52.1998 31.9848 52.6158 30.5226H54.8029C53.5178 34.2749 51.928 36.8203 50.0333 38.1589C48.1386 39.4976 46.2357 40.1648 44.3246 40.1648C42.8665 40.1648 41.6926 39.757 40.8071 38.9415C39.9215 38.126 39.3902 36.9356 39.2172 35.3705C38.2081 36.7956 37.0877 37.9489 35.8562 38.8385C34.6206 39.7241 33.1543 40.1689 31.4532 40.1689C29.472 40.1689 27.8203 39.4893 26.5023 38.1342H26.5064ZM37.4255 33.8877C38.2781 33.0722 38.8589 31.9518 39.1719 30.5267L41.672 18.7468C41.672 18.2979 41.499 17.853 41.1489 17.4164C40.8029 16.9839 40.2634 16.7656 39.5343 16.7656C38.1422 16.7656 36.8942 17.5729 35.7821 19.1875C34.67 20.8021 33.8009 22.7503 33.1748 25.0239C32.5488 27.3017 32.2357 29.3075 32.2357 31.0457C32.2357 32.7838 32.487 33.8959 32.9895 34.3819C33.492 34.868 34.1098 35.111 34.8389 35.111C35.7079 35.111 36.5688 34.7032 37.4173 33.8877H37.4255Z"/><path fill="#2B6E4F" d="M53.9215 38.1342C52.5993 36.7791 51.9403 34.6579 51.9403 31.7747C51.9403 29.2045 52.4552 26.5026 53.4766 23.6688C54.5022 20.835 56.0303 18.4379 58.065 16.4773C60.0997 14.5167 62.5216 13.5323 65.3348 13.5323C66.7599 13.5323 67.8185 13.7753 68.5145 14.2614C69.2106 14.7474 69.5566 15.3899 69.5566 16.189V16.399L72.1103 4.40907L79.8249 3.367L73.832 31.5111C73.6919 32.0342 73.6219 32.5902 73.6219 33.1792C73.6219 33.8753 73.7867 34.3696 74.1162 34.6661C74.4457 34.9627 74.9935 35.111 75.7596 35.111C76.7316 35.111 77.576 34.695 78.2886 33.8588C79.0011 33.0227 79.5654 31.9147 79.9814 30.5226H82.1685C80.0473 36.742 76.5545 39.8517 71.6902 39.8517C70.2651 39.8517 69.1118 39.4687 68.2221 38.7067C67.3366 37.9447 66.7887 36.8285 66.5787 35.3704C65.6767 36.7626 64.5893 37.9076 63.3207 38.8097C62.0521 39.7158 60.5652 40.1648 58.8641 40.1648C56.8829 40.1648 55.2313 39.4852 53.9132 38.1301L53.9215 38.1342ZM64.7911 33.9659C65.6437 33.2039 66.2245 32.1413 66.5375 30.7862V30.5267L69.0912 18.5903C68.7781 17.3752 68.0656 16.7656 66.9535 16.7656C65.5613 16.7656 64.3133 17.5729 63.2012 19.1875C62.0891 20.8021 61.2201 22.7503 60.594 25.0239C59.9679 27.3016 59.6549 29.3075 59.6549 31.0457C59.6549 32.7838 59.9062 33.8959 60.4087 34.3819C60.9112 34.8679 61.529 35.111 62.258 35.111C63.09 35.111 63.9344 34.7279 64.787 33.9659H64.7911Z"/><path fill="#2B6E4F" d="M81.2871 38.1342C79.9649 36.7791 79.3059 34.6579 79.3059 31.7747C79.3059 29.2045 79.8208 26.5026 80.8422 23.6688C81.8678 20.835 83.3959 18.4379 85.4306 16.4773C87.4653 14.5167 89.8872 13.5323 92.7004 13.5323C94.1255 13.5323 95.1841 13.7753 95.8801 14.2614C96.5762 14.7474 96.9222 15.3899 96.9222 16.189V16.399L99.4759 4.40907L107.191 3.367L101.198 31.5111C101.058 32.0342 100.988 32.5902 100.988 33.1792C100.988 33.8753 101.152 34.3696 101.482 34.6661C101.811 34.9627 102.359 35.111 103.125 35.111C104.097 35.111 104.942 34.695 105.654 33.8588C106.367 33.0227 106.931 31.9147 107.347 30.5226H109.534C107.413 36.742 103.92 39.8517 99.0558 39.8517C97.6307 39.8517 96.4774 39.4687 95.5877 38.7067C94.7022 37.9447 94.1544 36.8285 93.9443 35.3704C93.0423 36.7626 91.9549 37.9076 90.6863 38.8097C89.4177 39.7158 87.9308 40.1648 86.2297 40.1648C84.2485 40.1648 82.5969 39.4852 81.2788 38.1301L81.2871 38.1342ZM92.1567 33.9659C93.0093 33.2039 93.5901 32.1413 93.9031 30.7862V30.5267L96.4568 18.5903C96.1438 17.3752 95.4312 16.7656 94.3191 16.7656C92.9269 16.7656 91.6789 17.5729 90.5668 19.1875C89.4547 20.8021 88.5857 22.7503 87.9596 25.0239C87.3335 27.3016 87.0205 29.3075 87.0205 31.0457C87.0205 32.7838 87.2718 33.8959 87.7743 34.3819C88.2768 34.8679 88.8946 35.111 89.6236 35.111C90.4556 35.111 91.3 34.7279 92.1526 33.9659H92.1567Z"/><path fill="#2B6E4F" d="M108.472 38.6038C107.446 37.5617 106.935 35.9966 106.935 33.9124C106.935 33.0434 107.075 31.9148 107.351 30.5226L110.898 13.7919H118.402L114.65 31.5153C114.51 32.0384 114.44 32.5944 114.44 33.1834C114.44 33.8795 114.604 34.3737 114.934 34.6703C115.263 34.9669 115.811 35.1151 116.577 35.1151C117.587 35.1151 118.521 34.6909 119.391 33.8383C120.26 32.9857 120.886 31.8818 121.269 30.5267H123.456C122.171 34.279 120.519 36.8245 118.505 38.1631C116.491 39.5017 114.493 40.169 112.512 40.169C110.844 40.169 109.497 39.6459 108.472 38.6038ZM119.02 10.9169H111.499L113.253 2.62567H120.774L129.539 6.77335L119.016 10.921L119.02 10.9169Z"/><path fill="#2B6E4F" d="M122.673 38.163C121.248 36.8244 120.536 34.732 120.536 31.8818C120.536 29.4846 121.005 26.8444 121.944 23.9571C122.883 21.0739 124.411 18.582 126.533 16.4773C128.654 14.3767 131.343 13.3223 134.61 13.3223C138.432 13.3223 140.343 14.9904 140.343 18.3267C140.343 20.2749 139.787 22.0625 138.675 23.6935C137.563 25.3287 136.084 26.6385 134.243 27.627C132.402 28.6197 130.437 29.1839 128.353 29.3199C128.283 30.086 128.25 30.6049 128.25 30.885C128.25 33.7682 129.325 35.2098 131.483 35.2098C132.455 35.2098 133.498 34.9503 134.61 34.4272C135.722 33.9041 136.731 33.2451 137.633 32.4461C136.694 37.5905 133.687 40.1607 128.617 40.1607C126.079 40.1607 124.098 39.4934 122.673 38.1548V38.163ZM132.447 25.5223C133.613 24.6903 134.548 23.6194 135.26 22.3178C135.973 21.0163 136.327 19.6529 136.327 18.2278C136.327 16.8027 135.891 16.0901 135.026 16.0901C133.811 16.0901 132.604 17.194 131.401 19.4017C130.202 21.6094 129.309 24.0848 128.716 26.828C130.038 26.795 131.277 26.3584 132.443 25.5264L132.447 25.5223Z"/><path fill="#D39D63" d="M149.005 37.7182C147.164 35.737 146.241 32.4543 146.241 27.8659C146.241 24.2166 146.859 20.2913 148.091 16.086C149.322 11.8807 151.303 8.27666 154.034 5.2699C156.761 2.26314 160.229 0.759766 164.434 0.759766C167.041 0.759766 169.142 1.33229 170.74 2.48144C172.338 3.62648 173.137 5.38111 173.137 7.74533C173.137 9.24047 172.841 10.4143 172.252 11.2628C171.659 12.1154 170.74 12.5397 169.488 12.5397C168.236 12.5397 167.247 12.0866 166.518 11.1846C167.144 10.8715 167.7 10.2455 168.186 9.30637C168.673 8.36727 168.916 7.39523 168.916 6.38611C168.916 5.44701 168.664 4.68503 168.162 4.09191C167.659 3.50292 166.848 3.20636 165.74 3.20636C163.899 3.20636 162.144 4.46673 160.476 6.98334C158.808 9.50408 157.461 12.6756 156.435 16.4938C155.41 20.316 154.899 23.9983 154.899 27.5446C154.899 30.1848 155.352 32.203 156.254 33.5911C157.156 34.9833 158.791 35.6752 161.156 35.6752C163.207 35.6752 165.097 35.2263 166.836 34.3201C168.574 33.4181 170.069 32.1289 171.317 30.4649L172.515 30.988C171.646 33.1751 170.361 34.9997 168.66 36.4619C166.959 37.92 165.134 38.9909 163.186 39.6664C161.238 40.346 159.397 40.6837 157.663 40.6837C153.738 40.6837 150.85 39.6952 149.009 37.7141L149.005 37.7182Z"/><path fill="#D39D63" d="M172.277 38.6037C171.251 37.5617 170.74 35.9965 170.74 33.9124C170.74 33.0433 170.88 31.9147 171.156 30.5226L176.733 4.40907L184.448 3.367L178.455 31.5111C178.315 32.0342 178.245 32.5902 178.245 33.1792C178.245 33.8753 178.409 34.3696 178.739 34.6661C179.068 34.9627 179.616 35.111 180.382 35.111C181.392 35.111 182.326 34.6867 183.196 33.8341C184.065 32.9815 184.691 31.8777 185.074 30.5226H187.261C185.976 34.2748 184.324 36.8203 182.31 38.1589C180.296 39.4975 178.298 40.1648 176.317 40.1648C174.649 40.1648 173.302 39.6417 172.277 38.5996V38.6037Z"/><path fill="#D39D63" d="M186.194 38.6037C185.169 37.5617 184.658 35.9965 184.658 33.9124C184.658 33.0433 184.798 31.9147 185.074 30.5226L188.62 13.7918H196.125L192.372 31.5152C192.269 32.0383 192.216 32.5243 192.216 32.9733C192.216 34.3984 192.739 35.111 193.781 35.111C194.753 35.111 195.589 34.7032 196.281 33.8877C196.977 33.0721 197.533 31.9518 197.949 30.5267L201.491 13.7959H208.996L205.244 31.5193C205.104 32.0424 205.034 32.5985 205.034 33.1875C205.034 33.8835 205.198 34.3778 205.528 34.6744C205.857 34.9709 206.405 35.1192 207.171 35.1192C208.143 35.1192 208.988 34.7032 209.7 33.8671C210.413 33.0309 210.977 31.923 211.393 30.5308H213.584C212.299 34.2831 210.709 36.8285 208.815 38.1671C206.92 39.5058 205.017 40.173 203.106 40.173C201.611 40.173 200.421 39.757 199.535 38.9209C198.649 38.0889 198.118 36.8532 197.945 35.2222C196.763 37.1333 195.523 38.4349 194.218 39.131C192.916 39.827 191.586 40.173 190.231 40.173C188.562 40.173 187.216 39.6499 186.19 38.6079L186.194 38.6037Z"/><path fill="#D39D63" d="M212.905 38.4225C211.653 37.2569 211.027 35.6176 211.027 33.4964C211.027 32.4543 211.15 31.4617 211.393 30.5267L216.97 4.41322L224.685 3.37115L222.185 15.0975C223.157 14.5085 223.956 14.1172 224.582 13.9236C225.208 13.7342 225.834 13.6353 226.46 13.6353C230.558 13.6353 232.609 16.605 232.609 22.5485C232.609 24.9457 232.148 27.5076 231.23 30.2384C230.307 32.9651 228.779 35.3046 226.641 37.2487C224.503 39.1969 221.731 40.1689 218.329 40.1689C215.965 40.1689 214.161 39.5882 212.909 38.4225H212.905ZM224.269 33.1051C225.208 31.7665 225.953 30.0983 226.509 28.1007C227.065 26.1031 227.341 24.1837 227.341 22.3426C227.341 20.9545 227.098 19.7724 226.612 18.7962C226.126 17.8242 225.447 17.3382 224.578 17.3382C224.055 17.3382 223.474 17.4164 222.831 17.5729C222.189 17.7295 221.744 17.9642 221.501 18.2773L218.634 31.5152C218.531 31.9312 218.478 32.3308 218.478 32.7138C218.478 34.3119 219.396 35.111 221.241 35.111C222.316 35.111 223.325 34.4437 224.265 33.1051H224.269Z"/></g><defs><clipPath id="clip0_70_2"><rect width="232.319" height="39.924" fill="#fff" transform="translate(0.289978 0.763916)"/></clipPath></defs></svg>