<svg width="488" height="390" viewBox="0 0 488 390" fill="none" xmlns="http://www.w3.org/2000/svg">
<g clip-path="url(#clip0_72_309)">
<path d="M0 24.5C0 11.2452 10.7452 0.5 24 0.5H464C477.255 0.5 488 11.2452 488 24.5V365.5C488 378.755 477.255 389.5 464 389.5H24C10.7452 389.5 0 378.755 0 365.5V24.5Z" fill="#FCF1E8"/>
<g clip-path="url(#clip1_72_309)">
<path d="M187.668 271.751L241.27 291.264C244.981 292.615 246.9 296.73 245.549 300.441L231.299 339.584L164.248 315.175L178.497 276.032C179.848 272.321 183.963 270.402 187.674 271.753L187.668 271.751Z" fill="#17B4B2" stroke="#252536" stroke-width="9.77005" stroke-linejoin="round"/>
<path d="M192.366 327.943L209.427 295.357L201.547 331.285L192.366 327.943Z" fill="#252536"/>
<path d="M19.9261 167.308L75.2396 187.444" stroke="#0F7E7B" stroke-width="9.77005" stroke-linejoin="round"/>
<path d="M38.8228 177.908L52.0364 182.718C53.0332 183.081 54.1268 182.566 54.4873 181.575L55.5687 178.605C55.9315 177.608 55.4162 176.514 54.426 176.154L41.2124 171.344" stroke="white" stroke-width="2.79144" stroke-miterlimit="10"/>
<path d="M77.084 276.671L53.1028 267.941L68.5498 225.447L79.8217 236.427C85.1608 241.631 86.9593 249.482 84.4073 256.492L77.0816 276.677L77.084 276.671Z" fill="#FB942C"/>
<mask id="mask0_72_309" style="mask-type:luminance" maskUnits="userSpaceOnUse" x="53" y="225" width="33" height="52">
<path d="M77.084 276.671L53.1028 267.941L68.5498 225.447L79.8217 236.427C85.1608 241.631 86.9593 249.482 84.4073 256.492L77.0816 276.677L77.084 276.671Z" fill="white"/>
</mask>
<g mask="url(#mask0_72_309)">
<path d="M81.8727 244.972L89.7746 247.848L86.8981 255.75C85.153 260.544 79.8487 263.017 75.0551 261.272L67.1532 258.395L70.0298 250.493C71.7748 245.7 77.0791 243.227 81.8727 244.972Z" stroke="#FFDA00" stroke-width="3.48931" stroke-linejoin="round"/>
</g>
<path d="M77.084 276.671L53.1028 267.941L68.5498 225.447L79.8217 236.427C85.1608 241.631 86.9593 249.482 84.4073 256.492L77.0816 276.677L77.084 276.671Z" stroke="#252536" stroke-width="9.77005" stroke-linejoin="round"/>
<path d="M-38.8481 234.467L-14.8669 243.197L0.61945 200.718L-15.0735 201.882C-22.5086 202.436 -28.9335 207.293 -31.4854 214.303L-38.8505 234.474L-38.8481 234.467Z" fill="#FB942C"/>
<path d="M-38.8481 234.467L-14.8669 243.197L0.61945 200.718L-15.0735 201.882C-22.5086 202.436 -28.9335 207.293 -31.4854 214.303L-38.8505 234.474L-38.8481 234.467Z" stroke="#252536" stroke-width="9.77005" stroke-linejoin="round"/>
<path d="M68.579 225.346L53.3443 210.094L31.707 222.915L23.8495 198.903L0.661803 200.622L-22.9094 265.372C-24.177 268.854 -22.3837 272.7 -18.9016 273.968L36.4118 294.104C39.8939 295.371 43.7402 293.578 45.0078 290.096L68.579 225.346Z" fill="#FB942C"/>
<mask id="mask1_72_309" style="mask-type:luminance" maskUnits="userSpaceOnUse" x="-24" y="198" width="93" height="97">
<path d="M68.579 225.346L53.3443 210.094L31.707 222.915L23.8495 198.903L0.661803 200.622L-22.9094 265.372C-24.177 268.854 -22.3837 272.7 -18.9016 273.968L36.4118 294.104C39.8939 295.371 43.7402 293.578 45.0078 290.096L68.579 225.346Z" fill="white"/>
</mask>
<g mask="url(#mask1_72_309)">
<path d="M13.0558 250.689L20.9577 253.565L18.0811 261.467C16.3361 266.261 11.0318 268.734 6.23816 266.989L-1.66376 264.112L1.21282 256.21C2.95787 251.417 8.26214 248.944 13.0558 250.689Z" stroke="#FFDA00" stroke-width="3.48931" stroke-linejoin="round"/>
<path d="M4.12177 242.691L-3.78016 239.814C-8.57377 238.069 -11.0468 232.765 -9.30178 227.971L-6.4252 220.069L1.47672 222.946C6.27033 224.691 8.74338 229.995 6.99834 234.789L4.12177 242.691Z" stroke="#FFDA00" stroke-width="3.48931" stroke-linejoin="round"/>
<path d="M38.5237 227.773L46.4256 230.649L43.5491 238.551C41.804 243.345 36.4997 245.818 31.7061 244.073L23.8042 241.196L26.6808 233.295C28.4258 228.501 33.7301 226.028 38.5237 227.773Z" stroke="#FFDA00" stroke-width="3.48931" stroke-linejoin="round"/>
<path d="M67.7782 217.182L75.6801 220.059L72.8036 227.961C71.0585 232.754 65.7542 235.227 60.9606 233.482L53.0587 230.606L55.9353 222.704C57.6803 217.91 62.9846 215.437 67.7782 217.182Z" stroke="#FFDA00" stroke-width="3.48931" stroke-linejoin="round"/>
<path d="M29.5922 219.768L21.6902 216.892C16.8966 215.147 14.4236 209.842 16.1686 205.049L19.0452 197.147L26.9471 200.024C31.7407 201.769 34.2138 207.073 32.4687 211.866L29.5922 219.768Z" stroke="#FFDA00" stroke-width="3.48931" stroke-linejoin="round"/>
<path d="M21.9318 276.044L29.8337 278.92L26.9571 286.822C25.2121 291.616 19.9078 294.089 15.1142 292.344L7.21228 289.467L10.0889 281.565C11.8339 276.772 17.1382 274.299 21.9318 276.044Z" stroke="#FFDA00" stroke-width="3.48931" stroke-linejoin="round"/>
<path d="M43.9703 276.788L36.0684 273.912C31.2747 272.167 28.8017 266.863 30.5467 262.069L33.4233 254.167L41.3252 257.044C46.1188 258.789 48.5919 264.093 46.8469 268.887L43.9703 276.788Z" stroke="#FFDA00" stroke-width="3.48931" stroke-linejoin="round"/>
</g>
<path d="M68.579 225.346L53.3443 210.094L31.707 222.915L23.8495 198.903L0.661803 200.622L-22.9094 265.372C-24.177 268.854 -22.3837 272.7 -18.9016 273.968L36.4118 294.104C39.8939 295.371 43.7402 293.578 45.0078 290.096L68.579 225.346Z" stroke="#252536" stroke-width="9.77005" stroke-linejoin="round"/>
<circle cx="26.9925" cy="233.928" r="2.09358" transform="rotate(20.0033 26.9925 233.928)" fill="white"/>
<path d="M23.8414 242.584L22.2658 246.912" stroke="white" stroke-width="4.18717" stroke-linecap="round" stroke-linejoin="round"/>
<circle cx="20.6903" cy="251.24" r="2.09358" transform="rotate(20.0033 20.6903 251.24)" fill="white"/>
<path d="M65.3103 226.124L34.0175 231.502L64.3268 222.053L65.3103 226.124Z" fill="#252536"/>
<path d="M6.02958 200.831L23.1777 227.556L2.66541 203.319L6.02958 200.831Z" fill="#252536"/>
<path d="M155.121 -18.2991L142.493 -26.8397C131.653 -34.1723 119.174 -38.7151 106.157 -40.0672L90.9939 -41.6436C77.2681 -43.068 64.3326 -34.9734 59.6131 -22.009L46.8225 13.1266L104.446 20.9807L153.738 52.0475L166.528 16.9119C171.248 3.94745 166.543 -10.5687 155.114 -18.3015L155.121 -18.2991Z" fill="#FB942C"/>
<path d="M155.121 -18.2991L142.493 -26.8397C131.653 -34.1723 119.174 -38.7151 106.157 -40.0672L90.9939 -41.6435C77.2681 -43.068 64.3326 -34.9734 59.6131 -22.009L46.8225 13.1266L104.446 20.9807L153.738 52.0475L166.528 16.9119C171.248 3.94745 166.543 -10.5687 155.114 -18.3015L155.121 -18.2991Z" stroke="#252536" stroke-width="9.77005" stroke-linejoin="round"/>
<path d="M125.431 -36.6452L135.713 -22.3341C144.245 -10.4573 146.36 4.86879 141.359 18.607L130.996 47.0736" stroke="#252536" stroke-width="2.09358" stroke-linejoin="round"/>
<path d="M125.431 -36.6453L108.355 -32.2935C94.1844 -28.6812 82.7118 -18.3014 77.7106 -4.56321L67.3478 23.9034" stroke="#252536" stroke-width="2.09358" stroke-linejoin="round"/>
<path d="M159.573 57.9075C135.148 16.1233 84.176 -2.43237 38.6051 13.8708C33.6558 15.6339 31.1089 20.3658 32.8105 23.8519C34.5162 27.347 39.1866 28.5941 43.3285 27.1313C82.5452 13.1046 126.416 29.075 147.437 65.0304C149.66 68.8178 154.046 70.8674 157.602 69.2803C161.146 67.704 162.235 62.4486 159.58 57.9099L159.573 57.9075Z" fill="#FB942C"/>
<path d="M159.573 57.9075C135.148 16.1233 84.176 -2.43237 38.6051 13.8708C33.6558 15.6339 31.1089 20.3658 32.8105 23.8519C34.5162 27.347 39.1866 28.5941 43.3285 27.1313C82.5452 13.1046 126.416 29.075 147.437 65.0304C149.66 68.8178 154.046 70.8674 157.602 69.2803C161.146 67.704 162.235 62.4486 159.58 57.9099L159.573 57.9075Z" stroke="#252536" stroke-width="6.97861" stroke-linejoin="round"/>
<path d="M290.098 183.96L268.703 169.086C262.901 165.05 256.153 162.594 249.115 161.955L223.165 159.594C207.126 158.137 192.127 167.656 186.618 182.791L176.46 210.694L239.979 217.53L293.028 253.129L303.186 225.226C308.693 210.098 303.32 193.155 290.105 183.962L290.098 183.96Z" fill="#BABCBE"/>
<mask id="mask2_72_309" style="mask-type:luminance" maskUnits="userSpaceOnUse" x="176" y="159" width="130" height="95">
<path d="M290.098 183.96L268.703 169.086C262.901 165.05 256.153 162.594 249.115 161.955L223.165 159.594C207.126 158.137 192.127 167.656 186.618 182.791L176.46 210.694L239.979 217.53L293.028 253.129L303.186 225.226C308.693 210.098 303.32 193.155 290.105 183.962L290.098 183.96Z" fill="white"/>
</mask>
<g mask="url(#mask2_72_309)">
<path d="M263.615 158.723L193.252 133.108L162.789 216.79L233.152 242.405L263.615 158.723Z" fill="white"/>
<path d="M274.92 176.956L263.529 169.037C260.442 166.888 256.849 165.58 253.103 165.241L239.286 163.984C230.753 163.21 222.766 168.279 219.834 176.331L203.107 222.28L234.53 232.479L265.155 244.868L281.882 198.919C284.814 190.866 281.955 181.849 274.92 176.956Z" fill="#EFF0F0"/>
</g>
<path d="M290.098 183.96L268.703 169.086C262.901 165.05 256.153 162.594 249.115 161.955L223.165 159.594C207.126 158.137 192.127 167.656 186.618 182.791L176.46 210.694L239.979 217.53L293.028 253.129L303.186 225.226C308.693 210.098 303.32 193.155 290.105 183.962L290.098 183.96Z" stroke="#252536" stroke-width="9.77005" stroke-linejoin="round"/>
<path d="M295.911 253.881C271.247 211.691 219.77 192.951 173.749 209.41C168.748 211.191 166.178 215.967 167.896 219.489C169.619 223.019 174.335 224.283 178.515 222.797C218.118 208.629 262.414 224.754 283.647 261.069C285.9 264.897 290.325 266.961 293.907 265.361C297.485 263.775 298.589 258.458 295.904 253.878L295.911 253.881Z" fill="#EFF0F0"/>
<path d="M295.911 253.881C271.247 211.691 219.77 192.951 173.749 209.41C168.748 211.191 166.178 215.967 167.896 219.489C169.619 223.019 174.335 224.283 178.515 222.797C218.118 208.629 262.414 224.754 283.647 261.069C285.9 264.897 290.325 266.961 293.907 265.361C297.485 263.775 298.589 258.458 295.904 253.878L295.911 253.881Z" stroke="#252536" stroke-width="6.97861" stroke-linejoin="round"/>
<path d="M238.128 184.038L253.4 189.598C258.653 191.51 261.368 197.333 259.456 202.586L244.183 197.026C238.931 195.114 236.216 189.291 238.128 184.038Z" fill="#E1465B"/>
<path d="M121.133 145.243L97.1521 136.513L112.599 94.019L123.871 104.999C129.21 110.203 131.009 118.054 128.457 125.065L121.131 145.25L121.133 145.243Z" fill="#D63646" stroke="#252536" stroke-width="9.77005" stroke-linejoin="round"/>
<path d="M5.20124 103.04L29.1824 111.77L44.6688 69.29L28.9758 70.4543C21.5407 71.008 15.1159 75.8655 12.5639 82.8756L5.19886 103.046L5.20124 103.04Z" fill="#D63646" stroke="#252536" stroke-width="9.77005" stroke-linejoin="round"/>
<path d="M112.637 93.9141L97.4026 78.6616L76.6916 88.9385L66.7178 67.558L44.7225 69.1834L21.1513 133.933C19.8837 137.415 21.677 141.262 25.1591 142.529L80.4725 162.665C83.9546 163.933 87.8009 162.14 89.0685 158.657L112.64 93.9076L112.637 93.9141Z" fill="#D63646" stroke="#252536" stroke-width="9.77005" stroke-linejoin="round"/>
<circle cx="71.0483" cy="102.502" r="2.09358" transform="rotate(20.0033 71.0483 102.502)" fill="#252536"/>
<path d="M67.8973 111.158L66.3217 115.486" stroke="#252536" stroke-width="4.18717" stroke-linecap="round" stroke-linejoin="round"/>
<circle cx="64.7462" cy="119.814" r="2.09358" transform="rotate(20.0033 64.7462 119.814)" fill="#252536"/>
<path d="M109.36 94.6965L78.0667 100.074L108.385 90.6209L109.36 94.6965Z" fill="#252536"/>
<path d="M50.0879 69.3987L67.2271 96.128L46.7148 71.8915L50.0879 69.3987Z" fill="#252536"/>
<path d="M366.061 312.352L419.663 331.865C423.374 333.216 425.293 337.331 423.942 341.043L398.57 410.737L331.519 386.328L356.89 316.634C358.241 312.922 362.356 311.004 366.067 312.355L366.061 312.352Z" fill="#9A9A9A" stroke="#252536" stroke-width="9.77005" stroke-linejoin="round"/>
<path d="M360.713 396.139L384.404 345.342L369.894 399.481L360.713 396.139Z" fill="#252536"/>
<path d="M384.834 322.618L397.025 327.055C397.943 327.39 398.953 326.918 399.288 326L400.286 323.259C400.62 322.341 400.148 321.33 399.23 320.996L387.04 316.558" stroke="white" stroke-width="2.79144" stroke-miterlimit="10"/>
<path opacity="0.8" d="M466.284 272.613L445.581 270.156C437.692 269.223 432.253 261.784 433.747 253.988L437.827 232.681L489.114 251.351L480.671 265.529C477.692 270.527 472.055 273.303 466.281 272.619L466.284 272.613Z" fill="url(#paint0_linear_72_309)"/>
<path opacity="0.8" d="M386.445 243.549L403.881 254.976C410.524 259.332 419.472 257.131 423.34 250.199L433.913 231.256L382.625 212.585L379.979 228.874C379.046 234.617 381.58 240.367 386.442 243.555L386.445 243.549Z" fill="url(#paint1_linear_72_309)"/>
<path d="M379.506 211.442L492.245 252.483" stroke="#2B6E4F" stroke-width="6.97861" stroke-linecap="round" stroke-linejoin="round"/>
<path d="M525.737 146.139L494.054 122.232L472.681 133.776L462.259 110.933L422.218 108.455L396.353 179.506L499.872 217.191L525.737 146.139Z" fill="#B6A580"/>
<mask id="mask3_72_309" style="mask-type:luminance" maskUnits="userSpaceOnUse" x="396" y="108" width="130" height="110">
<path d="M525.737 146.139L494.054 122.232L472.681 133.776L462.259 110.933L422.218 108.455L396.353 179.506L499.872 217.191L525.737 146.139Z" fill="white"/>
</mask>
<g mask="url(#mask3_72_309)">
<path d="M427.053 122.491C445.327 113.971 421.543 105.312 430.063 123.587C421.543 105.312 412.885 129.097 431.159 120.577C412.885 129.097 436.669 137.755 428.149 119.481C436.669 137.755 445.327 113.971 427.053 122.491Z" fill="white"/>
<path d="M420.135 154.959C438.409 146.439 414.625 137.781 423.145 156.055C414.625 137.781 405.967 161.565 424.241 153.045C405.967 161.565 429.751 170.224 421.231 151.949C429.751 170.224 438.409 146.439 420.135 154.959Z" fill="white"/>
<path d="M448.55 143.922C466.824 135.402 443.039 126.743 451.56 145.018C443.039 126.743 434.381 150.528 452.655 142.008C434.381 150.528 458.166 159.186 449.645 140.912C458.166 159.186 466.824 135.402 448.55 143.922Z" fill="white"/>
<path d="M448.169 167.756C455.068 148.805 432.124 159.502 451.076 166.401C432.124 159.502 442.821 182.446 449.72 163.494C442.821 182.446 465.765 171.748 446.813 164.849C465.765 171.748 455.068 148.805 448.169 167.756Z" fill="white"/>
<path d="M406.08 175.636C412.979 156.684 390.036 167.381 408.987 174.28C390.036 167.381 400.733 190.325 407.632 171.373C400.733 190.325 423.676 179.628 404.725 172.729C423.676 179.628 412.979 156.684 406.08 175.636Z" fill="white"/>
<path d="M455.437 193.67C475.582 192.641 456.789 175.677 457.818 195.822C456.789 175.677 439.825 194.47 459.969 193.441C439.825 194.47 458.618 211.434 457.589 191.29C458.618 211.434 475.582 192.641 455.437 193.67Z" fill="white"/>
<path d="M429.763 182.371C448.037 173.85 424.253 165.192 432.773 183.466C424.253 165.192 415.594 188.976 433.869 180.456C415.594 188.976 439.379 197.635 430.859 179.361C439.379 197.635 448.037 173.85 429.763 182.371Z" fill="white"/>
<path d="M470.918 177.627C489.869 184.526 479.172 161.583 472.273 180.534C479.172 161.583 456.229 172.28 475.18 179.179C456.229 172.28 466.926 195.223 473.825 176.272C466.926 195.223 489.869 184.526 470.918 177.627Z" fill="white"/>
<path d="M492.919 135.878C511.87 142.777 501.173 119.833 494.274 138.785C501.173 119.833 478.229 130.53 497.181 137.429C478.229 130.53 488.927 153.474 495.826 134.522C488.927 153.474 511.87 142.777 492.919 135.878Z" fill="white"/>
<path d="M452.429 119.453C471.381 126.352 460.684 103.408 453.785 122.36C460.684 103.408 437.74 114.105 456.692 121.004C437.74 114.105 448.438 137.049 455.337 118.097C448.438 137.049 471.381 126.352 452.429 119.453Z" fill="white"/>
<path d="M486.139 160.806C504.413 152.286 480.628 143.628 489.149 161.902C480.628 143.628 471.97 167.412 490.244 158.892C471.97 167.412 495.754 176.071 487.234 157.797C495.754 176.071 504.413 152.286 486.139 160.806Z" fill="white"/>
<path d="M471.195 137.431C489.469 128.911 465.684 120.253 474.205 138.527C465.684 120.253 457.026 144.037 475.3 135.517C457.026 144.037 480.811 152.695 472.29 134.421C480.811 152.695 489.469 128.911 471.195 137.431Z" fill="white"/>
<path d="M483.523 203.672C501.797 195.151 478.013 186.493 486.533 204.767C478.013 186.493 469.355 210.278 487.629 201.757C469.355 210.278 493.139 218.936 484.619 200.662C493.139 218.936 501.797 195.151 483.523 203.672Z" fill="white"/>
</g>
<path d="M525.737 146.139L494.054 122.232L472.681 133.776L462.259 110.933L422.218 108.455L396.353 179.506L499.872 217.191L525.737 146.139Z" stroke="#252536" stroke-width="9.77005" stroke-linejoin="round"/>
<circle cx="466.351" cy="148.248" r="2.09358" transform="rotate(20.0033 466.351 148.248)" fill="white"/>
<circle cx="461.335" cy="162.026" r="2.09358" transform="rotate(20.0033 461.335 162.026)" fill="white"/>
<path d="M513.8 138.823L473.369 145.82L512.878 134.744L513.8 138.823Z" fill="#252536"/>
<path d="M439.393 107.993L462.529 141.874L436.066 110.525L439.393 107.993Z" fill="#252536"/>
<path d="M422.218 108.455L409.965 107.514C395.604 106.408 382.255 115.006 377.328 128.541L374.062 137.511L407.244 149.591L422.218 108.455Z" fill="#B6A580"/>
<mask id="mask4_72_309" style="mask-type:luminance" maskUnits="userSpaceOnUse" x="374" y="107" width="49" height="43">
<path d="M422.218 108.455L409.965 107.514C395.604 106.408 382.255 115.006 377.328 128.541L374.062 137.511L407.244 149.591L422.218 108.455Z" fill="white"/>
</mask>
<g mask="url(#mask4_72_309)">
<path d="M400.891 125.689C419.165 117.169 395.381 108.51 403.901 126.784C395.381 108.51 386.722 132.295 404.997 123.775C386.722 132.295 410.507 140.953 401.987 122.679C410.507 140.953 419.165 117.169 400.891 125.689Z" fill="white"/>
</g>
<path d="M422.218 108.455L409.965 107.514C395.604 106.408 382.255 115.006 377.328 128.541L374.062 137.511L407.244 149.591L422.218 108.455Z" stroke="#252536" stroke-width="9.77005" stroke-linejoin="round"/>
<path d="M258.819 36.2125L338.192 65.1071C344.625 67.449 347.949 74.578 345.607 81.011L329.77 124.514L227.085 87.133L242.921 43.6298C245.263 37.1968 252.392 33.873 258.825 36.2148L258.819 36.2125Z" fill="#414344" stroke="#252536" stroke-width="9.77005" stroke-linejoin="round"/>
<path d="M273.834 104.151L288.465 78.2411L283.015 107.493L273.834 104.151Z" fill="#252536"/>
<path d="M290.471 51.1661L302.662 55.6039C303.58 55.9381 304.591 55.4669 304.925 54.5488L305.923 51.8077C306.257 50.8897 305.786 49.8789 304.867 49.5447L292.677 45.1069" stroke="#9A9A9A" stroke-width="2.79144" stroke-miterlimit="10"/>
<path d="M327.387 66.35L323.964 75.7536C322.954 78.5275 324.384 81.5955 327.158 82.6053L338.267 86.6492" stroke="#636363" stroke-width="2.79144" stroke-linejoin="round"/>
<path d="M266.29 44.1084L262.866 53.512C261.857 56.2859 258.788 57.7163 256.015 56.7066L244.906 52.6626" stroke="#636363" stroke-width="2.79144" stroke-linejoin="round"/>
</g>
<path d="M493.517 50.0007L469.536 41.2708L484.983 -1.22318L496.255 9.75726C501.594 14.9612 503.392 22.8123 500.84 29.8224L493.515 50.0073L493.517 50.0007Z" fill="#53A07A"/>
<mask id="mask5_72_309" style="mask-type:luminance" maskUnits="userSpaceOnUse" x="469" y="-2" width="33" height="53">
<path d="M493.517 50.0007L469.536 41.2708L484.983 -1.22318L496.255 9.75726C501.594 14.9612 503.392 22.8123 500.84 29.8224L493.515 50.0073L493.517 50.0007Z" fill="white"/>
</mask>
<g mask="url(#mask5_72_309)">
<path d="M498.306 18.302L506.208 21.1785L503.331 29.0804C501.586 33.8741 496.282 36.3471 491.488 34.6021L483.586 31.7255L486.463 23.8236C488.208 19.03 493.512 16.5569 498.306 18.302Z" stroke="#2B6E4F" stroke-width="3.48931" stroke-linejoin="round"/>
</g>
<path d="M493.517 50.0007L469.536 41.2708L484.983 -1.22318L496.255 9.75726C501.594 14.9612 503.392 22.8123 500.84 29.8224L493.515 50.0073L493.517 50.0007Z" stroke="#252536" stroke-width="9.77005" stroke-linejoin="round"/>
<path d="M377.585 7.7975L401.566 16.5275L417.052 -25.9521L401.359 -24.7878C393.924 -24.2342 387.5 -19.3766 384.948 -12.3666L377.583 7.80407L377.585 7.7975Z" fill="#53A07A"/>
<mask id="mask6_72_309" style="mask-type:luminance" maskUnits="userSpaceOnUse" x="377" y="-26" width="41" height="43">
<path d="M377.585 7.7975L401.566 16.5275L417.052 -25.9521L401.359 -24.7878C393.924 -24.2342 387.5 -19.3766 384.948 -12.3666L377.583 7.80407L377.585 7.7975Z" fill="white"/>
</mask>
<g mask="url(#mask6_72_309)">
<path d="M396.936 0.1745L389.034 -2.70208C384.241 -4.44712 381.768 -9.75139 383.513 -14.545L386.389 -22.4469L394.291 -19.5704C399.085 -17.8253 401.558 -12.521 399.813 -7.72742L396.936 0.1745Z" stroke="#2B6E4F" stroke-width="3.48931" stroke-linejoin="round"/>
</g>
<path d="M377.585 7.7975L401.566 16.5275L417.052 -25.9521L401.359 -24.7878C393.924 -24.2342 387.5 -19.3766 384.948 -12.3666L377.583 7.80407L377.585 7.7975Z" stroke="#252536" stroke-width="9.77005" stroke-linejoin="round"/>
<path d="M485.012 -1.32386L469.777 -16.5764L448.14 -3.75512L440.283 -27.7666L417.095 -26.0481L393.524 38.7018C392.256 42.1839 394.049 46.0301 397.531 47.2977L452.845 67.4338C456.327 68.7014 460.173 66.9081 461.441 63.426L485.012 -1.32386Z" fill="#53A07A"/>
<mask id="mask7_72_309" style="mask-type:luminance" maskUnits="userSpaceOnUse" x="393" y="-28" width="93" height="96">
<path d="M485.012 -1.32386L469.777 -16.5764L448.14 -3.75512L440.283 -27.7666L417.095 -26.0481L393.524 38.7018C392.256 42.1839 394.049 46.0301 397.531 47.2977L452.845 67.4338C456.327 68.7014 460.173 66.9081 461.441 63.426L485.012 -1.32386Z" fill="white"/>
</mask>
<g mask="url(#mask7_72_309)">
<path d="M429.489 24.0187L437.391 26.8953L434.514 34.7972C432.769 39.5908 427.465 42.0639 422.671 40.3188L414.769 37.4423L417.646 29.5403C419.391 24.7467 424.695 22.2737 429.489 24.0187Z" stroke="#2B6E4F" stroke-width="3.48931" stroke-linejoin="round"/>
<path d="M399.106 29.7127L407.008 32.5893L404.131 40.4912C402.386 45.2848 397.082 47.7579 392.288 46.0128L384.386 43.1363L387.263 35.2343C389.008 30.4407 394.312 27.9677 399.106 29.7127Z" stroke="#2B6E4F" stroke-width="3.48931" stroke-linejoin="round"/>
<path d="M420.555 16.0209L412.653 13.1443C407.859 11.3993 405.386 6.09499 407.131 1.30137L410.008 -6.60056L417.91 -3.72399C422.703 -1.97894 425.176 3.32534 423.431 8.11896L420.555 16.0209Z" stroke="#2B6E4F" stroke-width="3.48931" stroke-linejoin="round"/>
<path d="M454.957 1.10297L462.859 3.97955L459.982 11.8815C458.237 16.6751 452.933 19.1481 448.139 17.4031L440.237 14.5265L443.114 6.62459C444.859 1.83098 450.163 -0.64207 454.957 1.10297Z" stroke="#2B6E4F" stroke-width="3.48931" stroke-linejoin="round"/>
<path d="M484.211 -9.48764L492.113 -6.61106L489.236 1.29088C487.491 6.08449 482.187 8.55754 477.393 6.8125L469.492 3.93592L472.368 -3.96601C474.113 -8.75963 479.417 -11.2327 484.211 -9.48764Z" stroke="#2B6E4F" stroke-width="3.48931" stroke-linejoin="round"/>
<path d="M438.365 49.3739L446.267 52.2505L443.39 60.1524C441.645 64.946 436.341 67.4191 431.547 65.674L423.645 62.7975L426.522 54.8955C428.267 50.1019 433.571 47.6289 438.365 49.3739Z" stroke="#2B6E4F" stroke-width="3.48931" stroke-linejoin="round"/>
<path d="M460.403 50.1186L452.501 47.242C447.708 45.4969 445.235 40.1927 446.98 35.399L449.856 27.4971L457.758 30.3737C462.552 32.1187 465.025 37.423 463.28 42.2166L460.403 50.1186Z" stroke="#2B6E4F" stroke-width="3.48931" stroke-linejoin="round"/>
</g>
<path d="M485.012 -1.32386L469.777 -16.5764L448.14 -3.75512L440.282 -27.7666L417.095 -26.0481L393.524 38.7018C392.256 42.1839 394.049 46.0301 397.531 47.2977L452.845 67.4338C456.327 68.7014 460.173 66.9081 461.441 63.426L485.012 -1.32386Z" stroke="#252536" stroke-width="9.77005" stroke-linejoin="round"/>
<circle cx="443.425" cy="7.25788" r="2.09358" transform="rotate(20.0033 443.425 7.25788)" fill="white"/>
<path d="M440.274 15.9139L438.699 20.2419" stroke="white" stroke-width="4.18717" stroke-linecap="round" stroke-linejoin="round"/>
<circle cx="437.123" cy="24.57" r="2.09358" transform="rotate(20.0033 437.123 24.57)" fill="white"/>
<path d="M481.743 -0.545817L450.45 4.83185L480.76 -4.61717L481.743 -0.545817Z" fill="#252536"/>
<path d="M422.463 -25.8394L439.611 0.885828L419.098 -23.3507L422.463 -25.8394Z" fill="#252536"/>
<g clip-path="url(#clip2_72_309)">
<path d="M128.579 352.534L74.2923 332.162C55.6218 325.156 34.8135 334.609 27.8074 353.279L13.7924 390.627L48.4004 389.125C71.4448 388.126 93.8997 396.553 110.598 412.465L135.674 436.364L149.689 399.016C156.695 380.346 147.243 359.537 128.572 352.531L128.579 352.534Z" fill="#36383A"/>
<mask id="mask8_72_309" style="mask-type:luminance" maskUnits="userSpaceOnUse" x="13" y="329" width="140" height="108">
<path d="M128.579 352.534L74.2923 332.162C55.6218 325.156 34.8135 334.609 27.8074 353.279L13.7924 390.627L48.4004 389.125C71.4448 388.126 93.8997 396.553 110.598 412.465L135.674 436.364L149.689 399.016C156.695 380.346 147.243 359.537 128.572 352.531L128.579 352.534Z" fill="white"/>
</mask>
<g mask="url(#mask8_72_309)">
<path d="M101.008 343.478L37.2112 319.538L8.97422 394.785L72.7709 418.725L101.008 343.478Z" fill="#595A5B"/>
<path d="M89.138 339.024L112.871 347.929C127.617 353.463 135.094 369.922 129.56 384.668L113.732 426.848L36.5714 397.893L52.3995 355.713C57.9331 340.967 74.3916 333.49 89.138 339.024Z" fill="#414344"/>
</g>
<path d="M128.579 352.534L74.2923 332.162C55.6218 325.156 34.8135 334.609 27.8074 353.279L13.7924 390.627L48.4004 389.125C71.4448 388.126 93.8997 396.553 110.598 412.465L135.674 436.364L149.689 399.016C156.695 380.346 147.243 359.537 128.572 352.531L128.579 352.534Z" stroke="#1E2628" stroke-width="10.4407" stroke-linejoin="round"/>
<path d="M142.859 441.227C115.428 393.225 57.4131 371.454 5.18284 389.563C-0.492886 391.528 -3.45654 396.899 -1.54764 400.897C0.363016 404.912 5.67923 406.389 10.427 404.754C55.3772 389.17 105.307 407.907 128.909 449.214C131.411 453.563 136.391 455.957 140.464 454.188C144.532 452.433 145.836 446.43 142.852 441.224L142.859 441.227Z" fill="#414344"/>
<path d="M142.859 441.227C115.428 393.225 57.4131 371.454 5.18284 389.563C-0.492886 391.528 -3.45654 396.899 -1.54763 400.897C0.363016 404.912 5.67923 406.389 10.427 404.754C55.3772 389.17 105.307 407.907 128.909 449.214C131.411 453.563 136.391 455.957 140.464 454.188C144.532 452.433 145.836 446.43 142.852 441.224L142.859 441.227Z" stroke="#1E2628" stroke-width="7.45765" stroke-linejoin="round"/>
<path d="M109.551 374.754C102.285 374.951 94.313 375.01 87.0168 374.925C84.4603 374.881 81.8364 375.06 79.272 374.973C76.4291 375.014 73.5526 373.17 72.5128 370.485C71.0532 367.285 72.5476 362.9 76.0078 361.936C76.2182 361.863 76.3997 362.123 76.2705 362.297C75.1188 363.88 74.8601 365.504 75.1705 366.863C75.7261 368.991 77.2236 370.158 79.2119 370.315C79.4214 370.33 80.042 370.395 80.2585 370.413C82.5828 370.672 84.9246 371.097 87.2419 371.353C90.0245 371.664 95.6394 372.345 98.422 372.721C102.14 373.256 105.868 373.722 109.582 374.312C109.833 374.342 109.827 374.762 109.558 374.757L109.551 374.754Z" fill="white"/>
</g>
</g>
<path d="M24 1.5H464C476.703 1.5 487 11.7975 487 24.5V365.5C487 378.203 476.703 388.5 464 388.5H24C11.2975 388.5 1 378.203 1 365.5V24.5C1 11.7975 11.2975 1.5 24 1.5Z" stroke="#D3C5BC" stroke-width="2"/>
<defs>
<linearGradient id="paint0_linear_72_309" x1="432.203" y1="248.153" x2="483.49" y2="266.823" gradientUnits="userSpaceOnUse">
<stop stop-color="#CB8E5B"/>
<stop offset="1" stop-color="#623A1C"/>
</linearGradient>
<linearGradient id="paint1_linear_72_309" x1="428.281" y1="246.725" x2="376.994" y2="228.055" gradientUnits="userSpaceOnUse">
<stop stop-color="#CB8E5B"/>
<stop offset="1" stop-color="#623A1C"/>
</linearGradient>
<clipPath id="clip0_72_309">
<path d="M0 24.5C0 11.2452 10.7452 0.5 24 0.5H464C477.255 0.5 488 11.2452 488 24.5V365.5C488 378.755 477.255 389.5 464 389.5H24C10.7452 389.5 0 378.755 0 365.5V24.5Z" fill="white"/>
</clipPath>
<clipPath id="clip1_72_309">
<rect width="550.368" height="352.518" fill="white" transform="translate(59.587 -64.7589) rotate(20.0033)"/>
</clipPath>
<clipPath id="clip2_72_309">
<rect width="162.935" height="102.021" fill="white" transform="translate(26.9924 308.837) rotate(20.5688)"/>
</clipPath>
</defs>
</svg>
