<svg width="489" height="451" viewBox="0 0 489 451" fill="none" xmlns="http://www.w3.org/2000/svg">
<g clip-path="url(#clip0_72_310)">
<path d="M0.976562 24.25C0.976562 10.9952 11.7217 0.25 24.9766 0.25H464.977C478.231 0.25 488.977 10.9952 488.977 24.25V426.25C488.977 439.505 478.231 450.25 464.977 450.25H24.9766C11.7217 450.25 0.976562 439.505 0.976562 426.25V24.25Z" fill="#FCF1E8"/>
<rect x="-1.30347" y="309.657" width="490.28" height="145.264" fill="white"/>
<g clip-path="url(#clip1_72_310)">
<path d="M1.09 306.595L-85.13 500.645" stroke="#F2E3D7" stroke-width="3" stroke-linejoin="round"/>
<path d="M55.2301 306.595L-11.83 500.645" stroke="#F2E3D7" stroke-width="3" stroke-linejoin="round"/>
<path d="M109.38 306.595L61.48 500.645" stroke="#F2E3D7" stroke-width="3" stroke-linejoin="round"/>
<path d="M163.52 306.595L134.78 500.645" stroke="#F2E3D7" stroke-width="3" stroke-linejoin="round"/>
<path d="M217.67 306.595L208.09 500.645" stroke="#F2E3D7" stroke-width="3" stroke-linejoin="round"/>
<path d="M271.81 306.595L281.39 500.645" stroke="#F2E3D7" stroke-width="3" stroke-linejoin="round"/>
<path d="M325.96 306.595L354.7 500.645" stroke="#F2E3D7" stroke-width="3" stroke-linejoin="round"/>
<path d="M380.1 306.595L428 500.645" stroke="#F2E3D7" stroke-width="3" stroke-linejoin="round"/>
<path d="M434.25 306.595L501.3 500.645" stroke="#F2E3D7" stroke-width="3" stroke-linejoin="round"/>
<path d="M488.39 306.595L574.61 500.645" stroke="#F2E3D7" stroke-width="3" stroke-linejoin="round"/>
<path d="M-230.42 335.635H709.47" stroke="#F2E3D7" stroke-width="3" stroke-linejoin="round"/>
<path d="M-230.42 417.485H709.47" stroke="#F2E3D7" stroke-width="3" stroke-linejoin="round"/>
<path d="M-230.42 373.915H709.47" stroke="#F2E3D7" stroke-width="3" stroke-linejoin="round"/>
</g>
<path d="M117.973 371.046H151.231V381.76H107.259C107.259 375.846 112.058 371.046 117.973 371.046Z" fill="white" stroke="#3A3027" stroke-width="6.1375" stroke-linejoin="round"/>
<path d="M140.402 371.046H173.659V381.76H129.687C129.687 375.846 134.487 371.046 140.402 371.046Z" fill="white" stroke="#3A3027" stroke-width="6.1375" stroke-linejoin="round"/>
<g clip-path="url(#clip2_72_310)">
<path d="M171.428 116.893L162.057 114.602C154.012 112.635 145.597 112.635 137.552 114.602L128.181 116.893C119.699 118.968 113.751 126.407 113.751 134.936V158.053L149.767 150.429L185.853 158.053V134.936C185.853 126.407 179.905 118.968 171.423 116.893H171.428Z" fill="#FB942C"/>
<path d="M171.428 116.893L162.057 114.602C154.012 112.635 145.597 112.635 137.552 114.602L128.181 116.893C119.699 118.968 113.751 126.407 113.751 134.936V158.053L149.767 150.429L185.853 158.053V134.936C185.853 126.407 179.905 118.968 171.423 116.893H171.428Z" stroke="#3A3027" stroke-width="6.04019" stroke-linejoin="round"/>
<path d="M149.771 112.514L158.996 118.653C166.651 123.749 171.233 132.205 171.233 141.244V159.973" stroke="#3A3027" stroke-width="1.29433" stroke-linejoin="round"/>
<path d="M149.771 112.514L140.546 118.653C132.891 123.749 128.31 132.205 128.31 141.244V159.973" stroke="#3A3027" stroke-width="1.29433" stroke-linejoin="round"/>
<path d="M190.598 160.223C166.996 141.114 132.622 141.114 109.019 160.223C106.454 162.294 105.964 165.581 107.733 167.247C109.506 168.921 112.557 168.658 114.707 166.928C135.018 150.485 164.604 150.485 184.916 166.928C187.061 168.658 190.116 168.921 191.89 167.247C193.659 165.581 193.168 162.298 190.603 160.223H190.598Z" fill="#FB942C"/>
<path d="M190.598 160.223C166.996 141.114 132.622 141.114 109.019 160.223C106.454 162.294 105.964 165.581 107.733 167.247C109.506 168.921 112.557 168.658 114.707 166.928C135.018 150.485 164.604 150.485 184.916 166.928C187.061 168.658 190.116 168.921 191.89 167.247C193.659 165.581 193.168 162.298 190.603 160.223H190.598Z" stroke="#3A3027" stroke-width="4.31442" stroke-linejoin="round"/>
</g>
<g clip-path="url(#clip3_72_310)">
<path d="M191.818 255.683H174.437L174.423 224.89L184.195 229.291C188.824 231.378 191.804 235.983 191.804 241.063L191.818 255.687V255.683Z" fill="#FB942C"/>
<mask id="mask0_72_310" style="mask-type:luminance" maskUnits="userSpaceOnUse" x="174" y="224" width="18" height="32">
<path d="M191.818 255.683H174.437L174.423 224.89L184.195 229.291C188.824 231.378 191.804 235.983 191.804 241.063L191.818 255.687V255.683Z" fill="white"/>
</mask>
<g mask="url(#mask0_72_310)">
<path d="M187.502 234.277H193.229V240.004C193.229 243.478 190.411 246.296 186.937 246.296H181.21V240.569C181.21 237.095 184.028 234.277 187.502 234.277Z" stroke="#FFDA00" stroke-width="2.37632" stroke-linejoin="round"/>
</g>
<path d="M191.818 255.683H174.437L174.423 224.89L184.195 229.291C188.824 231.377 191.804 235.983 191.804 241.063L191.818 255.687V255.683Z" stroke="#3A3027" stroke-width="6.65371" stroke-linejoin="round"/>
<path d="M107.796 255.683H125.176L125.19 224.89L115.419 229.291C110.79 231.378 107.81 235.983 107.81 241.063L107.796 255.687V255.683Z" fill="#FB942C"/>
<mask id="mask1_72_310" style="mask-type:luminance" maskUnits="userSpaceOnUse" x="107" y="224" width="19" height="32">
<path d="M107.796 255.683H125.176L125.19 224.89L115.419 229.291C110.79 231.378 107.81 235.983 107.81 241.063L107.796 255.687V255.683Z" fill="white"/>
</mask>
<g mask="url(#mask1_72_310)">
<path d="M118.404 246.291H112.677C109.203 246.291 106.384 243.473 106.384 239.999V234.272H112.111C115.585 234.272 118.404 237.09 118.404 240.564V246.291Z" stroke="#FFDA00" stroke-width="2.37632" stroke-linejoin="round"/>
</g>
<path d="M107.796 255.683H125.176L125.19 224.89L115.419 229.291C110.79 231.377 107.81 235.983 107.81 241.063L107.796 255.687V255.683Z" stroke="#3A3027" stroke-width="6.65371" stroke-linejoin="round"/>
<path d="M174.418 224.814L161.116 218.602L150.256 231.848L139.634 218.312L125.195 224.814V271.742C125.195 274.265 127.239 276.309 129.762 276.309H169.851C172.375 276.309 174.418 274.265 174.418 271.742V224.814Z" fill="#FB942C"/>
<mask id="mask2_72_310" style="mask-type:luminance" maskUnits="userSpaceOnUse" x="125" y="218" width="50" height="59">
<path d="M174.418 224.814L161.116 218.602L150.256 231.848L139.634 218.312L125.195 224.814V271.742C125.195 274.265 127.239 276.309 129.762 276.309H169.851C172.375 276.309 174.418 274.265 174.418 271.742V224.814Z" fill="white"/>
</mask>
<g mask="url(#mask2_72_310)">
<path d="M144.79 253.972H150.517V259.699C150.517 263.173 147.699 265.991 144.225 265.991H138.498V260.264C138.498 256.79 141.316 253.972 144.79 253.972Z" stroke="#FFDA00" stroke-width="2.37632" stroke-linejoin="round"/>
<path d="M126.673 264.689H132.4V270.416C132.4 273.89 129.582 276.708 126.108 276.708H120.381V270.981C120.381 267.507 123.199 264.689 126.673 264.689Z" stroke="#FFDA00" stroke-width="2.37632" stroke-linejoin="round"/>
<path d="M137.21 250.93H131.483C128.009 250.93 125.19 248.112 125.19 244.637V238.91H130.917C134.392 238.91 137.21 241.729 137.21 245.203V250.93Z" stroke="#FFDA00" stroke-width="2.37632" stroke-linejoin="round"/>
<path d="M155.75 233.369H161.477V239.096C161.477 242.57 158.659 245.388 155.184 245.388H149.457V239.661C149.457 236.187 152.276 233.369 155.75 233.369Z" stroke="#FFDA00" stroke-width="2.37632" stroke-linejoin="round"/>
<path d="M172.004 219.776H177.731V225.503C177.731 228.977 174.913 231.796 171.438 231.796H165.711V226.069C165.711 222.595 168.53 219.776 172.004 219.776Z" stroke="#FFDA00" stroke-width="2.37632" stroke-linejoin="round"/>
<path d="M148.174 230.332H142.447C138.973 230.332 136.155 227.514 136.155 224.039V218.312H141.882C145.356 218.312 148.174 221.131 148.174 224.605V230.332Z" stroke="#FFDA00" stroke-width="2.37632" stroke-linejoin="round"/>
<path d="M156.377 268.125H162.104V273.852C162.104 277.326 159.286 280.144 155.812 280.144H150.085V274.418C150.085 270.943 152.903 268.125 156.377 268.125Z" stroke="#FFDA00" stroke-width="2.37632" stroke-linejoin="round"/>
<path d="M170.654 263.467H164.927C161.453 263.467 158.635 260.649 158.635 257.175V251.448H164.362C167.836 251.448 170.654 254.266 170.654 257.74V263.467Z" stroke="#FFDA00" stroke-width="2.37632" stroke-linejoin="round"/>
</g>
<path d="M174.418 224.814L161.116 218.602L150.256 231.848L139.634 218.312L125.195 224.814V271.742C125.195 274.265 127.239 276.309 129.762 276.309H169.851C172.375 276.309 174.418 274.265 174.418 271.742V224.814Z" stroke="#3A3027" stroke-width="6.65371" stroke-linejoin="round"/>
<circle cx="149.805" cy="239.994" r="1.42597" fill="white"/>
<path d="M149.804 246.268V249.409" stroke="white" stroke-width="2.85159" stroke-linecap="round" stroke-linejoin="round"/>
<circle cx="149.805" cy="252.546" r="1.42597" fill="white"/>
<path d="M172.508 226.074L153.735 236.805L170.93 223.697L172.508 226.074Z" fill="#3A3027"/>
<path d="M128.679 223.697L145.879 236.805L127.106 226.074L128.679 223.697Z" fill="#3A3027"/>
</g>
<g clip-path="url(#clip4_72_310)">
<path d="M127.27 297.204H172.344" stroke="#0F7E7B" stroke-width="7.48117" stroke-linejoin="round"/>
<path d="M143.643 299.881H154.41C155.223 299.881 155.875 299.224 155.875 298.417V295.996C155.875 295.184 155.217 294.532 154.41 294.532H143.643" stroke="white" stroke-width="2.13748" stroke-miterlimit="10"/>
</g>
<g clip-path="url(#clip5_72_310)">
<path d="M130.745 313.63H168.873C171.514 313.63 173.659 315.776 173.659 318.416V346.259H125.959V318.416C125.959 315.776 128.105 313.63 130.745 313.63Z" fill="#17B4B2" stroke="#3A3027" stroke-width="6.53046" stroke-linejoin="round"/>
<path d="M146.539 347.849L149.804 323.481L153.07 347.849H146.539Z" fill="#3A3027"/>
</g>
<line x1="205.48" y1="108.607" x2="286.837" y2="108.607" stroke="#3A3027" stroke-width="3" stroke-dasharray="3 3"/>
<line x1="205.48" y1="165.841" x2="286.837" y2="165.841" stroke="#3A3027" stroke-width="3" stroke-dasharray="3 3"/>
<line x1="205.48" y1="348.024" x2="286.837" y2="348.024" stroke="#3A3027" stroke-width="3" stroke-dasharray="3 3"/>
<line x1="205.48" y1="306.945" x2="286.837" y2="306.945" stroke="#3A3027" stroke-width="3" stroke-dasharray="3 3"/>
<line x1="205.48" y1="216.812" x2="286.837" y2="216.812" stroke="#3A3027" stroke-width="3" stroke-dasharray="3 3"/>
<line x1="205.48" y1="374.899" x2="286.837" y2="374.899" stroke="#3A3027" stroke-width="3" stroke-dasharray="3 3"/>
<g clip-path="url(#clip6_72_310)">
<path opacity="0.3" d="M347.927 397.081C387.222 397.081 419.077 393.024 419.077 388.019C419.077 383.013 387.222 378.956 347.927 378.956C308.632 378.956 276.777 383.013 276.777 388.019C276.777 393.024 308.632 397.081 347.927 397.081Z" fill="#3A3027"/>
<path d="M421.542 186.238C423.813 176.721 407.825 164.752 385.832 159.505C363.839 154.257 344.17 157.718 341.899 167.235C339.628 176.751 355.616 188.72 377.609 193.968C399.602 199.215 419.272 195.755 421.542 186.238Z" fill="#D87A24" stroke="#3A3027" stroke-width="6.1375" stroke-linejoin="round"/>
<path d="M401.946 207.742H377.356V232.333H401.946V207.742Z" fill="#8A715D" stroke="#3A3027" stroke-width="5.11593" stroke-linejoin="round"/>
<path d="M293.903 232.333H318.494V207.742H293.903V232.333Z" fill="#8A715D" stroke="#3A3027" stroke-width="5.11593" stroke-linejoin="round"/>
<path d="M405.306 197.892C406.63 189.381 402.609 181.69 396.327 180.713C390.044 179.735 383.878 185.843 382.554 194.353C381.23 202.864 385.251 210.555 391.533 211.532C397.816 212.509 403.983 206.402 405.306 197.892Z" fill="#CF9D76" stroke="#3A3027" stroke-width="7.16311" stroke-linejoin="round"/>
<path d="M304.323 211.527C310.606 210.55 314.626 202.859 313.303 194.348C311.979 185.837 305.813 179.73 299.53 180.707C293.247 181.685 289.227 189.376 290.551 197.887C291.874 206.397 298.04 212.504 304.323 211.527Z" fill="#F5DFCD" stroke="#3A3027" stroke-width="7.16311" stroke-linejoin="round"/>
<path d="M374.417 294.21H393.125V317.666C393.125 326.584 385.885 333.82 376.971 333.82H374.421V294.21H374.417Z" fill="#EBC09B" stroke="#3A3027" stroke-width="7.16311" stroke-linejoin="round"/>
<path d="M393.141 295.341H374.433L374.417 262.197L384.932 266.932C389.918 269.178 393.121 274.136 393.121 279.6L393.137 295.341H393.141Z" fill="#FB942C"/>
<mask id="mask3_72_310" style="mask-type:luminance" maskUnits="userSpaceOnUse" x="374" y="262" width="20" height="34">
<path d="M393.141 295.341H374.433L374.417 262.197L384.932 266.932C389.918 269.178 393.121 274.136 393.121 279.6L393.137 295.341H393.141Z" fill="white"/>
</mask>
<g mask="url(#mask3_72_310)">
<path d="M388.495 272.303H394.657V278.465C394.657 282.203 391.621 285.239 387.883 285.239H381.722V279.077C381.722 275.34 384.758 272.303 388.495 272.303Z" stroke="#FFDA00" stroke-width="2.55797" stroke-linejoin="round"/>
</g>
<path d="M393.141 295.341H374.433L374.417 262.197L384.932 266.932C389.918 269.178 393.121 274.136 393.121 279.6L393.137 295.341H393.141Z" stroke="#3A3027" stroke-width="7.16311" stroke-linejoin="round"/>
<path d="M321.437 333.816H318.887C309.969 333.816 302.733 326.576 302.733 317.662V294.206H321.441V333.816H321.437Z" fill="#EBC09B" stroke="#3A3027" stroke-width="7.16311" stroke-linejoin="round"/>
<path d="M302.708 295.341H321.417L321.433 262.197L310.917 266.932C305.931 269.178 302.729 274.136 302.729 279.6L302.712 295.341H302.708Z" fill="#FB942C"/>
<mask id="mask4_72_310" style="mask-type:luminance" maskUnits="userSpaceOnUse" x="302" y="262" width="20" height="34">
<path d="M302.708 295.341H321.417L321.433 262.197L310.917 266.932C305.931 269.178 302.729 274.136 302.729 279.6L302.712 295.341H302.708Z" fill="white"/>
</mask>
<g mask="url(#mask4_72_310)">
<path d="M314.128 285.239H307.966C304.229 285.239 301.192 282.203 301.192 278.465V272.303H307.354C311.092 272.303 314.128 275.34 314.128 279.077V285.239Z" stroke="#FFDA00" stroke-width="2.55797" stroke-linejoin="round"/>
</g>
<path d="M302.708 295.341H321.417L321.433 262.197L310.917 266.932C305.931 269.178 302.729 274.136 302.729 279.6L302.712 295.341H302.708Z" stroke="#3A3027" stroke-width="7.16311" stroke-linejoin="round"/>
<path d="M327.019 317.568H368.83C371.725 317.568 374.076 319.92 374.076 322.814V353.347H321.774V322.814C321.774 319.92 324.125 317.568 327.019 317.568Z" fill="#17B4B2" stroke="#3A3027" stroke-width="7.16311" stroke-linejoin="round"/>
<path d="M374.417 262.12L348.407 249.979L321.433 262.12V312.627C321.433 315.343 323.634 317.544 326.35 317.544H369.499C372.215 317.544 374.417 315.343 374.417 312.627V262.12Z" fill="#FB942C"/>
<mask id="mask5_72_310" style="mask-type:luminance" maskUnits="userSpaceOnUse" x="321" y="249" width="54" height="69">
<path d="M374.417 262.12L348.407 249.979L321.433 262.12V312.627C321.433 315.343 323.634 317.544 326.35 317.544H369.499C372.215 317.544 374.417 315.343 374.417 312.627V262.12Z" fill="white"/>
</mask>
<g mask="url(#mask5_72_310)">
<path d="M342.525 293.501H348.687V299.663C348.687 303.4 345.651 306.437 341.913 306.437H335.751V300.275C335.751 296.537 338.788 293.501 342.525 293.501Z" stroke="#FFDA00" stroke-width="2.55797" stroke-linejoin="round"/>
<path d="M323.026 305.038H329.188V311.2C329.188 314.937 326.152 317.974 322.414 317.974H316.252V311.812C316.252 308.074 319.289 305.038 323.026 305.038Z" stroke="#FFDA00" stroke-width="2.55797" stroke-linejoin="round"/>
<path d="M334.369 290.229H328.207C324.469 290.229 321.433 287.193 321.433 283.455V277.294H327.595C331.332 277.294 334.369 280.33 334.369 284.068V290.229Z" stroke="#FFDA00" stroke-width="2.55797" stroke-linejoin="round"/>
<path d="M354.322 271.33H360.484V277.492C360.484 281.23 357.447 284.266 353.71 284.266H347.548V278.104C347.548 274.367 350.584 271.33 354.322 271.33Z" stroke="#FFDA00" stroke-width="2.55797" stroke-linejoin="round"/>
<path d="M371.814 256.7H377.976V262.862C377.976 266.6 374.939 269.636 371.202 269.636H365.04V263.474C365.04 259.737 368.076 256.7 371.814 256.7Z" stroke="#FFDA00" stroke-width="2.55797" stroke-linejoin="round"/>
<path d="M346.166 268.059H340.004C336.266 268.059 333.23 265.023 333.23 261.285V255.123H339.392C343.129 255.123 346.166 258.16 346.166 261.897V268.059Z" stroke="#FFDA00" stroke-width="2.55797" stroke-linejoin="round"/>
<path d="M354.999 308.739H361.161V314.901C361.161 318.639 358.124 321.675 354.387 321.675H348.225V315.513C348.225 311.775 351.261 308.739 354.999 308.739Z" stroke="#FFDA00" stroke-width="2.55797" stroke-linejoin="round"/>
<path d="M370.363 303.724H364.201C360.463 303.724 357.427 300.688 357.427 296.951V290.789H363.589C367.326 290.789 370.363 293.825 370.363 297.563V303.724Z" stroke="#FFDA00" stroke-width="2.55797" stroke-linejoin="round"/>
</g>
<path d="M374.417 262.12L348.407 249.979L321.433 262.12V312.627C321.433 315.343 323.634 317.544 326.35 317.544H369.499C372.215 317.544 374.417 315.343 374.417 312.627V262.12Z" stroke="#3A3027" stroke-width="7.16311" stroke-linejoin="round"/>
<path d="M360.099 257.551L347.925 245.378L335.751 257.551L347.925 272.721L360.099 257.551Z" fill="#C0A48C" stroke="#3A3027" stroke-width="2.55797" stroke-linejoin="round"/>
<circle cx="347.925" cy="278.461" r="1.53437" fill="white"/>
<path d="M347.925 285.215V288.592" stroke="white" stroke-width="3.06875" stroke-linecap="round" stroke-linejoin="round"/>
<circle cx="347.925" cy="291.964" r="1.53437" fill="white"/>
<path d="M372.357 263.478L352.153 275.027L370.663 260.92L372.357 263.478Z" fill="#3A3027"/>
<path d="M325.187 260.92L343.697 275.027L323.492 263.478L325.187 260.92Z" fill="#3A3027"/>
<path d="M344.345 355.095L347.925 328.372L351.504 355.095H344.345Z" fill="#3A3027"/>
<path d="M391.897 149.728V205.16C391.897 212.659 389.667 219.993 385.496 226.223L371.867 246.574C366.755 254.203 358.177 258.784 348.991 258.784H346.859C337.673 258.784 329.095 254.203 323.983 246.574L310.354 226.223C306.179 219.993 303.953 212.659 303.953 205.16V149.728C303.953 136.691 314.521 126.118 327.562 126.118H368.287C381.324 126.118 391.897 136.687 391.897 149.728Z" fill="#CF9D76"/>
<path d="M325.248 126.122H346.859V258.788L323.983 246.578L303.953 214.711V147.417C303.953 135.657 313.488 126.122 325.248 126.122Z" fill="#EFD0B4"/>
<path d="M368.591 211.804C375.845 211.804 381.726 205.924 381.726 198.67C381.726 191.416 375.845 185.535 368.591 185.535C361.337 185.535 355.457 191.416 355.457 198.67C355.457 205.924 361.337 211.804 368.591 211.804Z" fill="#EBC09B"/>
<path d="M392.497 190.449L376.675 170.962V160.762H392.497V190.449Z" fill="#8A715D"/>
<path d="M303.353 190.449L319.175 170.962V160.762H303.353V190.449Z" fill="#8A715D"/>
<path d="M327.259 211.804C334.512 211.804 340.393 205.924 340.393 198.67C340.393 191.416 334.512 185.535 327.259 185.535C320.005 185.535 314.124 191.416 314.124 198.67C314.124 205.924 320.005 211.804 327.259 211.804Z" fill="#EBC09B"/>
<path d="M376.675 144.275V204.998C376.675 220.341 372.118 235.337 363.577 248.086C360.236 253.076 354.626 256.068 348.622 256.068H347.228C341.224 256.068 335.613 253.072 332.273 248.086C323.736 235.337 319.175 220.341 319.175 204.998V144.275C319.175 135.75 326.087 128.838 334.612 128.838H361.238C369.763 128.838 376.675 135.75 376.675 144.275Z" fill="#EBC09B"/>
<path d="M381.722 231.858L370.229 247.413L369.909 218.716H389.651L381.722 231.858Z" fill="#B09077"/>
<path d="M314.128 231.858L325.621 247.413L325.937 218.716H306.199L314.128 231.858Z" fill="#B09077"/>
<path d="M367.639 216.916H328.211C327.186 216.916 326.35 217.747 326.35 218.777V231.242C326.35 243.156 336.011 252.817 347.925 252.817C359.839 252.817 369.499 243.156 369.499 231.242V218.777C369.499 217.751 368.668 216.916 367.639 216.916Z" stroke="#8A715D" stroke-width="7.16311" stroke-linejoin="round"/>
<path d="M340.628 239.289C343.936 235.815 349.388 235.312 353.397 237.801C354.006 238.19 354.614 238.628 355.222 239.289V239.646C352.858 239.779 350.284 239.812 347.925 239.824C346.165 239.812 344.22 239.792 342.452 239.731L340.628 239.642V239.285V239.289Z" fill="#CF9D76"/>
<path d="M391.897 149.732V205.164C391.897 210.807 390.64 216.352 388.24 221.404C387.446 223.066 386.533 224.679 385.5 226.224L371.867 246.574C366.755 254.207 358.177 258.788 348.991 258.788H346.863C337.677 258.788 329.099 254.203 323.987 246.574L310.354 226.224C309.762 225.336 309.203 224.424 308.692 223.491C305.591 217.901 303.957 211.593 303.957 205.164V149.732C303.957 136.695 314.525 126.122 327.562 126.122H368.291C381.328 126.122 391.897 136.695 391.897 149.732Z" stroke="#3A3027" stroke-width="8.61438" stroke-linejoin="round"/>
<path d="M358.441 188.912C361.793 185.02 367.781 184.327 371.992 187.21C372.637 187.655 373.282 188.154 373.93 188.912V189.322C371.421 189.476 368.693 189.512 366.187 189.524C364.323 189.512 362.255 189.488 360.378 189.419L358.441 189.318V188.908V188.912Z" fill="#3A3027"/>
<path d="M337.405 189.322C332.285 189.597 327.04 189.593 321.92 189.322V188.912C323.922 186.638 326.768 185.45 329.662 185.434C332.516 185.41 335.484 186.678 337.405 188.912V189.322Z" fill="#3A3027"/>
<path d="M373.926 187.582C372.767 182.921 365.206 182.503 361.562 184.185C360.094 184.838 358.789 185.912 358.44 187.582C358.104 185.766 359.494 184.019 360.99 183.123C364.12 181.262 368.243 181.267 371.372 183.123C372.868 184.019 374.258 185.766 373.922 187.582H373.926Z" fill="#3A3027"/>
<path d="M321.92 187.582C321.587 185.766 322.974 184.019 324.47 183.123C327.599 181.267 331.722 181.262 334.851 183.123C336.347 184.019 337.738 185.77 337.401 187.582C337.049 185.908 335.747 184.834 334.28 184.185C330.639 182.507 323.079 182.921 321.916 187.582H321.92Z" fill="#3A3027"/>
<path d="M358.7 172.912L376.93 174.444L376.675 177.505L358.185 179.029L358.7 172.912Z" fill="#72594B"/>
<path d="M339.039 179.029L320.549 177.505L320.29 174.444L338.524 172.912L339.039 179.029Z" fill="#72594B"/>
<path d="M326.35 317.568H369.499" stroke="#0F7E7B" stroke-width="7.16311" stroke-linejoin="round"/>
<path d="M368.591 353.352H347.925V378.956H368.591V353.352Z" fill="#EBC09B" stroke="#3A3027" stroke-width="7.16311" stroke-linejoin="round"/>
<path d="M327.258 378.951H347.925V353.347H327.258V378.951Z" fill="#EBC09B" stroke="#3A3027" stroke-width="7.16311" stroke-linejoin="round"/>
<path d="M391.897 387.327H347.925V376.613H381.182C387.097 376.613 391.897 381.412 391.897 387.327Z" fill="white" stroke="#3A3027" stroke-width="6.1375" stroke-linejoin="round"/>
<path d="M314.667 376.616H347.925V387.331H303.953C303.953 381.416 308.753 376.616 314.667 376.616Z" fill="white" stroke="#3A3027" stroke-width="6.1375" stroke-linejoin="round"/>
<path d="M342.026 320.13H352.335C353.11 320.13 353.738 319.502 353.738 318.728V316.413C353.738 315.639 353.11 315.01 352.335 315.01H342.026" stroke="white" stroke-width="2.04718" stroke-miterlimit="10"/>
<path d="M374.656 108.598L363.07 105.691C353.126 103.198 342.72 103.198 332.776 105.691L321.19 108.598C310.703 111.229 303.349 120.654 303.349 131.465V160.758H331.045V151.674C331.045 146.963 334.863 143.148 339.57 143.148H356.268C360.978 143.148 364.793 146.967 364.793 151.674V160.758H392.489V131.465C392.489 120.654 385.135 111.229 374.648 108.598H374.656Z" fill="#FB942C"/>
<path d="M374.656 108.598L363.07 105.691C353.126 103.198 342.72 103.198 332.776 105.691L321.19 108.598C310.703 111.229 303.349 120.654 303.349 131.465V160.758H331.045V151.674C331.045 146.963 334.863 143.148 339.57 143.148H356.268C360.978 143.148 364.793 146.967 364.793 151.674V160.758H392.489V131.465C392.489 120.654 385.135 111.229 374.648 108.598H374.656Z" stroke="#3A3027" stroke-width="7.16311" stroke-linejoin="round"/>
<path d="M366.56 153.19H329.289V162.473H366.56V153.19Z" fill="#FB942C" stroke="#3A3027" stroke-width="3.57953" stroke-linejoin="round"/>
<path d="M347.884 103.048L359.288 110.827C368.753 117.281 374.417 127.999 374.417 139.455V163.191" stroke="#3A3027" stroke-width="1.5364" stroke-linejoin="round"/>
<path d="M347.884 103.048L336.481 110.827C327.015 117.281 321.352 127.999 321.352 139.455V163.191" stroke="#3A3027" stroke-width="1.5364" stroke-linejoin="round"/>
<path d="M350.775 153.19H328.54C322.333 153.19 317.294 148.151 317.294 141.944V137.619H339.529C345.736 137.619 350.775 142.658 350.775 148.864V153.19Z" fill="#8A715D" stroke="#3A3027" stroke-width="3.57953" stroke-linejoin="round"/>
<path d="M339.752 198.281C337.162 200.871 337.162 205.071 339.752 207.661L341.536 209.445C345.063 212.972 350.783 212.972 354.31 209.445L356.093 207.661C358.684 205.071 358.684 200.871 356.093 198.281" fill="#EBC09B"/>
<path d="M339.752 198.281C337.778 201.443 338.512 205.136 341.414 207.207C341.905 207.637 342.732 208.387 343.206 208.743C345.655 210.58 349.125 210.815 351.784 209.291C353.025 208.61 354.237 207.333 355.315 206.433C357.528 204.422 357.788 200.924 356.097 198.281C357.561 199.18 358.639 200.863 358.911 202.744C359.203 204.625 358.672 206.7 357.419 208.298C356.892 208.987 356.264 209.639 355.724 210.264C353.839 212.518 350.876 213.884 347.925 213.88C344.974 213.88 342.01 212.518 340.129 210.26L339.298 209.319C337.6 207.6 336.538 205.095 336.947 202.74C337.219 200.859 338.293 199.18 339.756 198.276L339.752 198.281Z" fill="#3A3027"/>
<path d="M350.252 183.885C351.367 185.576 352.056 187.42 352.627 189.326C353.166 191.243 353.572 193.169 353.531 195.195C352.412 193.509 351.723 191.665 351.156 189.755C350.621 187.838 350.211 185.908 350.252 183.885Z" fill="#CF9D76"/>
<path d="M345.598 183.885C345.638 185.908 345.229 187.834 344.694 189.755C344.122 191.665 343.437 193.509 342.318 195.195C342.274 193.173 342.683 191.243 343.222 189.326C343.794 187.416 344.483 185.572 345.598 183.885Z" fill="#CF9D76"/>
<path d="M327.668 218.716L336.976 228.023C343 234.047 352.765 234.047 358.789 228.023L368.097 218.716H327.664H327.668Z" fill="white" stroke="#CA8B83" stroke-width="3.06875" stroke-linejoin="round"/>
</g>
<rect x="97.6245" y="28.0754" width="294.704" height="46.9606" rx="23.4803" fill="white"/>
<rect x="97.6245" y="28.0754" width="294.704" height="46.9606" rx="23.4803" stroke="#D39D63" stroke-width="2"/>
<circle cx="131.3" cy="51.7662" r="9.12586" fill="white"/>
<path d="M131.431 37.166C133.534 37.166 135.362 38.3296 136.282 40.0383C138.161 39.4706 140.287 39.9203 141.772 41.3818C143.257 42.8432 143.715 44.9398 143.137 46.7835C144.874 47.6885 146.057 49.4872 146.057 51.5557C146.057 53.6243 144.874 55.423 143.137 56.328C143.715 58.1773 143.257 60.2683 141.772 61.7297C140.287 63.1912 138.156 63.6409 136.282 63.0731C135.362 64.7819 133.534 65.9455 131.431 65.9455C129.329 65.9455 127.501 64.7819 126.581 63.0731C124.701 63.6409 122.576 63.1912 121.091 61.7297C119.605 60.2683 119.148 58.1716 119.725 56.328C117.988 55.423 116.806 53.6243 116.806 51.5557C116.806 49.4872 117.988 47.6885 119.725 46.7835C119.148 44.9342 119.605 42.8432 121.091 41.3818C122.576 39.9203 124.707 39.4706 126.581 40.0383C127.501 38.3296 129.329 37.166 131.431 37.166ZM137.887 48.9139C138.424 48.3855 138.424 47.5311 137.887 47.0084C137.35 46.4856 136.482 46.48 135.95 47.0084L129.609 53.2477L126.924 50.6058C126.387 50.0774 125.518 50.0774 124.987 50.6058C124.456 51.1342 124.45 51.9886 124.987 52.5113L128.643 56.1087C129.18 56.6371 130.049 56.6371 130.58 56.1087L137.887 48.9139Z" fill="#53A07A"/>
<path d="M161.586 59.0557V53.7873L156.551 44.1852H159.695L163.392 51.7904H162.606L166.281 44.1852H169.382L164.347 53.7873V59.0557H161.586ZM173.427 59.3106C172.365 59.3106 171.409 59.077 170.559 58.6096C169.709 58.1423 169.036 57.4908 168.541 56.6552C168.045 55.8196 167.797 54.8637 167.797 53.7873C167.797 52.6968 168.045 51.7409 168.541 50.9194C169.036 50.0839 169.709 49.4324 170.559 48.965C171.423 48.4977 172.379 48.264 173.427 48.264C174.489 48.264 175.445 48.4977 176.295 48.965C177.144 49.4324 177.817 50.0839 178.313 50.9194C178.808 51.7409 179.056 52.6968 179.056 53.7873C179.056 54.8637 178.808 55.8196 178.313 56.6552C177.817 57.4908 177.144 58.1423 176.295 58.6096C175.445 59.077 174.489 59.3106 173.427 59.3106ZM173.427 56.9314C173.937 56.9314 174.404 56.8181 174.829 56.5915C175.254 56.3507 175.587 55.9967 175.827 55.5293C176.082 55.0619 176.21 54.4813 176.21 53.7873C176.21 53.0934 176.082 52.5127 175.827 52.0454C175.572 51.578 175.232 51.231 174.808 51.0044C174.397 50.7637 173.944 50.6433 173.448 50.6433C172.938 50.6433 172.471 50.7637 172.046 51.0044C171.621 51.2452 171.281 51.5992 171.026 52.0666C170.771 52.5198 170.644 53.0934 170.644 53.7873C170.644 54.4813 170.764 55.0619 171.005 55.5293C171.26 55.9967 171.6 56.3507 172.025 56.5915C172.45 56.8181 172.917 56.9314 173.427 56.9314ZM184.116 59.3106C182.912 59.3106 181.956 58.8999 181.248 58.0785C180.554 57.2429 180.207 56.0321 180.207 54.4459V48.5189H182.969V54.191C182.969 55.0973 183.139 55.7913 183.479 56.2728C183.833 56.7402 184.343 56.9739 185.008 56.9739C185.759 56.9739 186.339 56.7119 186.75 56.1878C187.161 55.6497 187.366 54.9062 187.366 53.9573V48.5189H190.128V59.0557H187.366V57.5049C187.055 58.0573 186.63 58.4963 186.092 58.822C185.553 59.1478 184.895 59.3106 184.116 59.3106ZM191.85 59.0557V48.5189H194.612V50.1334C194.881 49.5953 195.228 49.1775 195.653 48.8801C196.078 48.5685 196.566 48.4127 197.119 48.4127H198.457V50.877H196.843C196.333 50.877 195.908 51.0115 195.568 51.2806C195.242 51.5497 195.002 51.9533 194.846 52.4915C194.69 53.0296 194.612 53.6953 194.612 54.4884V59.0557H191.85ZM213.848 59.3106C212.234 59.3106 210.853 58.9991 209.706 58.3759C208.573 57.7386 207.702 56.8535 207.093 55.7205C206.498 54.5733 206.2 53.2421 206.2 51.7267C206.2 50.1972 206.498 48.8447 207.093 47.6692C207.702 46.4937 208.558 45.5802 209.663 44.9288C210.782 44.2631 212.106 43.9303 213.636 43.9303C215.392 43.9303 216.843 44.3481 217.991 45.1837C219.138 46.0193 219.881 47.1735 220.221 48.6464H217.12C216.893 47.9666 216.489 47.4355 215.909 47.0531C215.328 46.6707 214.57 46.4795 213.636 46.4795C212.658 46.4795 211.823 46.692 211.129 47.1168C210.449 47.5417 209.925 48.1507 209.557 48.9438C209.189 49.7227 209.005 50.6574 209.005 51.7479C209.005 52.8243 209.196 53.7448 209.578 54.5096C209.961 55.2602 210.506 55.8409 211.214 56.2516C211.936 56.6623 212.814 56.8676 213.848 56.8676C215.08 56.8676 216.05 56.5207 216.758 55.8267C217.481 55.1327 217.849 54.1697 217.863 52.9376H213.721V50.8557H220.646V52.0454C220.646 53.6457 220.349 54.984 219.754 56.0604C219.173 57.1367 218.373 57.9511 217.353 58.5034C216.334 59.0416 215.165 59.3106 213.848 59.3106ZM225.398 59.3106C224.605 59.3106 223.918 59.169 223.337 58.8858C222.771 58.6025 222.339 58.2201 222.041 57.7386C221.744 57.2571 221.595 56.726 221.595 56.1454C221.595 55.0407 221.992 54.191 222.785 53.5961C223.578 52.9872 224.619 52.6827 225.908 52.6827C226.517 52.6827 227.041 52.7251 227.48 52.8101C227.919 52.8951 228.28 52.9872 228.563 53.0863V52.5764C228.563 51.84 228.351 51.3018 227.926 50.9619C227.515 50.622 226.977 50.4521 226.311 50.4521C225.844 50.4521 225.426 50.5512 225.058 50.7495C224.69 50.9336 224.456 51.2664 224.357 51.7479H221.744C221.829 50.9973 222.084 50.3671 222.509 49.8573C222.934 49.3333 223.472 48.9367 224.123 48.6676C224.789 48.3985 225.518 48.264 226.311 48.264C227.883 48.264 229.108 48.6393 229.986 49.3899C230.879 50.1405 231.325 51.2027 231.325 52.5764V54.9557C231.325 55.4939 231.353 55.8904 231.41 56.1454C231.481 56.4003 231.587 56.5631 231.728 56.634C231.87 56.7048 232.061 56.7402 232.302 56.7402H232.387V59.0557H231.792C231.041 59.0557 230.418 58.9566 229.923 58.7583C229.427 58.56 229.066 58.1706 228.839 57.5899C228.485 58.0856 228.018 58.4963 227.437 58.822C226.857 59.1478 226.177 59.3106 225.398 59.3106ZM226.014 57.2075C226.467 57.2075 226.849 57.1084 227.161 56.9101C227.487 56.6977 227.756 56.4144 227.968 56.0604C228.181 55.6922 228.329 55.2956 228.414 54.8707C228.117 54.7858 227.77 54.7079 227.373 54.6371C226.991 54.5521 226.602 54.5096 226.205 54.5096C225.653 54.5096 225.207 54.6371 224.867 54.892C224.541 55.1327 224.378 55.4726 224.378 55.9117C224.378 56.2941 224.52 56.6056 224.803 56.8464C225.1 57.0872 225.504 57.2075 226.014 57.2075ZM233.57 59.0557V48.5189H236.332V49.8148C236.671 49.3333 237.118 48.958 237.67 48.6889C238.222 48.4056 238.845 48.264 239.539 48.264C240.347 48.264 241.041 48.4269 241.621 48.7526C242.202 49.0642 242.655 49.5245 242.981 50.1334C243.377 49.5528 243.894 49.0996 244.532 48.7738C245.169 48.4339 245.877 48.264 246.656 48.264C248.03 48.264 249.085 48.6818 249.821 49.5174C250.558 50.3388 250.926 51.5426 250.926 53.1288V59.0557H248.185V53.3837C248.185 52.4773 248.008 51.7904 247.654 51.3231C247.314 50.8416 246.776 50.6008 246.04 50.6008C245.318 50.6008 244.737 50.8699 244.298 51.408C243.859 51.9321 243.639 52.6685 243.639 53.6174V59.0557H240.899V53.3837C240.899 52.4773 240.715 51.7904 240.347 51.3231C239.993 50.8416 239.454 50.6008 238.732 50.6008C238.024 50.6008 237.443 50.8699 236.99 51.408C236.551 51.9321 236.332 52.6685 236.332 53.6174V59.0557H233.57ZM257.775 59.3106C256.699 59.3106 255.75 59.084 254.928 58.6309C254.107 58.1635 253.463 57.5262 252.995 56.7189C252.528 55.8975 252.294 54.9486 252.294 53.8723C252.294 52.7818 252.521 51.8117 252.974 50.9619C253.441 50.1122 254.086 49.4536 254.907 48.9863C255.729 48.5048 256.685 48.264 257.775 48.264C258.823 48.264 259.744 48.4906 260.537 48.9438C261.33 49.397 261.946 50.0131 262.385 50.792C262.838 51.5709 263.065 52.4561 263.065 53.4474C263.065 53.5891 263.065 53.7448 263.065 53.9148C263.065 54.0847 263.051 54.2618 263.022 54.4459H254.291V52.7464H260.282C260.239 52.0666 259.984 51.5213 259.517 51.1106C259.05 50.6999 258.476 50.4946 257.796 50.4946C257.287 50.4946 256.819 50.6079 256.394 50.8345C255.969 51.0611 255.63 51.401 255.375 51.8542C255.134 52.2932 255.013 52.8597 255.013 53.5536V54.1485C255.013 54.7433 255.134 55.2602 255.375 55.6992C255.615 56.1383 255.941 56.4782 256.352 56.7189C256.763 56.9455 257.23 57.0588 257.754 57.0588C258.292 57.0588 258.745 56.9385 259.113 56.6977C259.482 56.4569 259.765 56.1383 259.963 55.7417H262.767C262.569 56.4074 262.236 57.0163 261.769 57.5687C261.316 58.1068 260.749 58.5317 260.069 58.8433C259.39 59.1549 258.625 59.3106 257.775 59.3106ZM263.806 62.7096V60.649H264.655C264.924 60.649 265.123 60.5782 265.25 60.4366C265.392 60.2949 265.463 60.0754 265.463 59.778V59.2044H263.954V55.9754H267.544V59.778C267.544 60.5994 267.297 61.2934 266.801 61.8599C266.319 62.4264 265.604 62.7096 264.655 62.7096H263.806ZM280.085 59.0557V53.7873L275.05 44.1852H278.194L281.891 51.7904H281.105L284.78 44.1852H287.881L282.847 53.7873V59.0557H280.085ZM291.926 59.3106C290.864 59.3106 289.908 59.077 289.058 58.6096C288.208 58.1423 287.536 57.4908 287.04 56.6552C286.544 55.8196 286.296 54.8637 286.296 53.7873C286.296 52.6968 286.544 51.7409 287.04 50.9194C287.536 50.0839 288.208 49.4324 289.058 48.965C289.922 48.4977 290.878 48.264 291.926 48.264C292.988 48.264 293.944 48.4977 294.794 48.965C295.644 49.4324 296.316 50.0839 296.812 50.9194C297.308 51.7409 297.555 52.6968 297.555 53.7873C297.555 54.8637 297.308 55.8196 296.812 56.6552C296.316 57.4908 295.644 58.1423 294.794 58.6096C293.944 59.077 292.988 59.3106 291.926 59.3106ZM291.926 56.9314C292.436 56.9314 292.903 56.8181 293.328 56.5915C293.753 56.3507 294.086 55.9967 294.326 55.5293C294.581 55.0619 294.709 54.4813 294.709 53.7873C294.709 53.0934 294.581 52.5127 294.326 52.0454C294.072 51.578 293.732 51.231 293.307 51.0044C292.896 50.7637 292.443 50.6433 291.947 50.6433C291.437 50.6433 290.97 50.7637 290.545 51.0044C290.12 51.2452 289.78 51.5992 289.525 52.0666C289.27 52.5198 289.143 53.0934 289.143 53.7873C289.143 54.4813 289.263 55.0619 289.504 55.5293C289.759 55.9967 290.099 56.3507 290.524 56.5915C290.949 56.8181 291.416 56.9314 291.926 56.9314ZM302.615 59.3106C301.411 59.3106 300.455 58.8999 299.747 58.0785C299.053 57.2429 298.706 56.0321 298.706 54.4459V48.5189H301.468V54.191C301.468 55.0973 301.638 55.7913 301.978 56.2728C302.332 56.7402 302.842 56.9739 303.507 56.9739C304.258 56.9739 304.839 56.7119 305.249 56.1878C305.66 55.6497 305.865 54.9062 305.865 53.9573V48.5189H308.627V59.0557H305.865V57.5049C305.554 58.0573 305.129 58.4963 304.591 58.822C304.053 59.1478 303.394 59.3106 302.615 59.3106ZM310.35 59.0557V48.5189H313.111V50.1334C313.38 49.5953 313.727 49.1775 314.152 48.8801C314.577 48.5685 315.066 48.4127 315.618 48.4127H316.956V50.877H315.342C314.832 50.877 314.407 51.0115 314.067 51.2806C313.741 51.5497 313.501 51.9533 313.345 52.4915C313.189 53.0296 313.111 53.6953 313.111 54.4884V59.0557H310.35ZM330.648 59.3106C329.954 59.3106 329.267 59.2186 328.587 59.0345C327.907 58.8362 327.284 58.5317 326.718 58.121C326.151 57.6961 325.677 57.158 325.294 56.5065C324.926 55.8409 324.707 55.0478 324.636 54.1272H327.185C327.298 54.8495 327.532 55.416 327.886 55.8267C328.254 56.2374 328.686 56.5277 329.182 56.6977C329.692 56.8535 330.195 56.9314 330.69 56.9314C331.243 56.9314 331.731 56.8464 332.156 56.6764C332.595 56.5065 332.935 56.2657 333.176 55.9542C333.431 55.6284 333.558 55.2531 333.558 54.8283C333.558 54.3892 333.438 53.9998 333.197 53.6599C332.956 53.3058 332.439 53.058 331.646 52.9163L329.118 52.449C327.9 52.2224 326.944 51.7409 326.25 51.0044C325.571 50.2538 325.231 49.3687 325.231 48.349C325.231 47.4143 325.464 46.6212 325.932 45.9697C326.399 45.3182 327.029 44.8155 327.822 44.4614C328.615 44.1073 329.486 43.9303 330.435 43.9303C331.427 43.9303 332.319 44.1003 333.112 44.4402C333.905 44.7801 334.55 45.3041 335.045 46.0122C335.541 46.7061 335.838 47.6055 335.937 48.7101H333.346C333.261 48.0728 333.07 47.5842 332.772 47.2443C332.489 46.8903 332.142 46.6424 331.731 46.5008C331.335 46.3592 330.924 46.2884 330.499 46.2884C330.103 46.2884 329.692 46.3521 329.267 46.4795C328.842 46.607 328.488 46.8194 328.205 47.1168C327.922 47.4001 327.78 47.7896 327.78 48.2852C327.78 48.7101 327.936 49.0925 328.247 49.4324C328.573 49.7581 329.09 49.9847 329.798 50.1122L332.135 50.5371C333.381 50.7637 334.358 51.2098 335.066 51.8754C335.789 52.5269 336.15 53.4828 336.15 54.7433C336.15 55.4939 335.987 56.1524 335.661 56.7189C335.35 57.2713 334.932 57.7457 334.408 58.1423C333.884 58.5246 333.296 58.815 332.645 59.0132C331.993 59.2115 331.328 59.3106 330.648 59.3106ZM341.901 59.0557C341.192 59.0557 340.591 58.9778 340.095 58.822C339.613 58.6521 339.252 58.3334 339.011 57.8661C338.771 57.3846 338.65 56.6977 338.65 55.8055V50.8345H336.845V48.5189H338.65V45.6935H341.412V48.5189H344.067V50.8345H341.412V55.4656C341.412 55.8196 341.447 56.0887 341.518 56.2728C341.589 56.4428 341.724 56.5561 341.922 56.6127C342.12 56.6694 342.389 56.6977 342.729 56.6977H344.004V59.0557H341.901ZM344.555 63.7293V61.5412H346.807C347.019 61.5412 347.196 61.5129 347.338 61.4562C347.479 61.4138 347.614 61.3075 347.741 61.1376C347.869 60.9676 348.003 60.7056 348.145 60.3516L349.058 58.3759L348.91 59.5868L344.321 48.5189H347.316L350.248 55.8904L353.307 48.5189H356.239L350.63 61.3075C350.404 61.8315 350.198 62.2493 350.014 62.5609C349.844 62.8866 349.674 63.1274 349.504 63.2832C349.334 63.4531 349.129 63.5664 348.888 63.6231C348.662 63.6939 348.364 63.7293 347.996 63.7293H344.555ZM357.276 59.0557V43.7604H360.038V59.0557H357.276ZM366.877 59.3106C365.8 59.3106 364.851 59.084 364.03 58.6309C363.208 58.1635 362.564 57.5262 362.097 56.7189C361.629 55.8975 361.396 54.9486 361.396 53.8723C361.396 52.7818 361.622 51.8117 362.075 50.9619C362.543 50.1122 363.187 49.4536 364.009 48.9863C364.83 48.5048 365.786 48.264 366.877 48.264C367.925 48.264 368.845 48.4906 369.638 48.9438C370.431 49.397 371.047 50.0131 371.486 50.792C371.94 51.5709 372.166 52.4561 372.166 53.4474C372.166 53.5891 372.166 53.7448 372.166 53.9148C372.166 54.0847 372.152 54.2618 372.124 54.4459H363.393V52.7464H369.383C369.341 52.0666 369.086 51.5213 368.618 51.1106C368.151 50.6999 367.578 50.4946 366.898 50.4946C366.388 50.4946 365.921 50.6079 365.496 50.8345C365.071 51.0611 364.731 51.401 364.476 51.8542C364.235 52.2932 364.115 52.8597 364.115 53.5536V54.1485C364.115 54.7433 364.235 55.2602 364.476 55.6992C364.717 56.1383 365.042 56.4782 365.453 56.7189C365.864 56.9455 366.331 57.0588 366.855 57.0588C367.393 57.0588 367.847 56.9385 368.215 56.6977C368.583 56.4569 368.866 56.1383 369.065 55.7417H371.869C371.67 56.4074 371.338 57.0163 370.87 57.5687C370.417 58.1068 369.851 58.5317 369.171 58.8433C368.491 59.1549 367.726 59.3106 366.877 59.3106Z" fill="#3A3027"/>
</g>
<path d="M24.9766 1.25H464.977C477.679 1.25 487.977 11.5475 487.977 24.25V426.25C487.977 438.953 477.679 449.25 464.977 449.25H24.9766C12.274 449.25 1.97656 438.953 1.97656 426.25V24.25C1.97656 11.5475 12.274 1.25 24.9766 1.25Z" stroke="#D3C5BC" stroke-width="2"/>
<defs>
<clipPath id="clip0_72_310">
<path d="M0.976562 24.25C0.976562 10.9952 11.7217 0.25 24.9766 0.25H464.977C478.231 0.25 488.977 10.9952 488.977 24.25V426.25C488.977 439.505 478.231 450.25 464.977 450.25H24.9766C11.7217 450.25 0.976562 439.505 0.976562 426.25V24.25Z" fill="white"/>
</clipPath>
<clipPath id="clip1_72_310">
<rect width="955.48" height="195.67" fill="white" transform="translate(-233 305.785)"/>
</clipPath>
<clipPath id="clip2_72_310">
<rect width="90.6758" height="60.4192" fill="white" transform="translate(104.469 110.107)"/>
</clipPath>
<clipPath id="clip3_72_310">
<rect width="90.6758" height="66.347" fill="white" transform="translate(104.469 214.986)"/>
</clipPath>
<clipPath id="clip4_72_310">
<rect width="45.0741" height="7.49186" fill="white" transform="translate(127.27 293.458)"/>
</clipPath>
<clipPath id="clip5_72_310">
<rect width="54.2261" height="39.1594" fill="white" transform="translate(122.694 310.365)"/>
</clipPath>
<clipPath id="clip6_72_310">
<rect width="155.817" height="298.333" fill="white" transform="translate(269.009 100.243)"/>
</clipPath>
</defs>
</svg>
