<svg width="116" height="117" viewBox="0 0 116 117" fill="none" xmlns="http://www.w3.org/2000/svg">
<rect y="0.291992" width="115.953" height="115.953" rx="12" fill="#53A07A"/>
<g clip-path="url(#clip0_72_1143)">
<path d="M75.625 72.167L86.875 60.917C88.3398 59.4521 88.3398 57.0732 86.875 55.6084L75.625 44.3584C74.1602 42.8936 71.7812 42.8936 70.3164 44.3584C68.8516 45.8232 68.8516 48.2021 70.3164 49.667L75.168 54.5186H40.7734L45.625 49.667C47.0898 48.2021 47.0898 45.8232 45.625 44.3584C44.1602 42.8936 41.7812 42.8936 40.3164 44.3584L29.0664 55.6084C27.6016 57.0732 27.6016 59.4521 29.0664 60.917L40.3164 72.167C41.7812 73.6318 44.1602 73.6318 45.625 72.167C47.0898 70.7021 47.0898 68.3232 45.625 66.8584L40.7852 62.0186H75.1797L70.3281 66.8701C68.8633 68.335 68.8633 70.7139 70.3281 72.1787C71.793 73.6436 74.1719 73.6436 75.6367 72.1787L75.625 72.167Z" fill="white"/>
</g>
<defs>
<clipPath id="clip0_72_1143">
<rect width="60" height="60" fill="white" transform="translate(27.9766 28.2686)"/>
</clipPath>
</defs>
</svg>
