<svg width="116" height="117" viewBox="0 0 116 117" fill="none" xmlns="http://www.w3.org/2000/svg">
<rect y="0.291992" width="115.953" height="115.953" rx="12" fill="#3A3027"/>
<g clip-path="url(#clip0_171_17)">
<path d="M65.75 34.75C65.75 32.6946 64.9335 30.7233 63.4801 29.2699C62.0267 27.8165 60.0554 27 58 27C55.9446 27 53.9733 27.8165 52.5199 29.2699C51.0665 30.7233 50.25 32.6946 50.25 34.75C50.25 36.8054 51.0665 38.7767 52.5199 40.2301C53.9733 41.6835 55.9446 42.5 58 42.5C60.0554 42.5 62.0267 41.6835 63.4801 40.2301C64.9335 38.7767 65.75 36.8054 65.75 34.75ZM54.125 46.375C49.8504 46.375 46.375 49.8504 46.375 54.125V59.9375C46.375 62.0809 48.1066 63.8125 50.25 63.8125H50.468L51.8121 75.8613C52.0301 77.823 53.6891 79.3125 55.6629 79.3125H60.3492C62.323 79.3125 63.982 77.823 64.2 75.8613L65.532 63.8125H65.75C67.8934 63.8125 69.625 62.0809 69.625 59.9375V54.125C69.625 49.8504 66.1496 46.375 61.875 46.375H54.125ZM43.0207 74.7352C44.5949 74.4445 45.6484 72.9309 45.3578 71.3566C45.0672 69.7824 43.5535 68.7289 41.9793 69.0195C38.0559 69.734 34.6047 70.7391 32.0496 72.0227C30.7781 72.6645 29.5914 73.4395 28.6832 74.3961C27.775 75.377 27 76.709 27 78.3438C27 80.9352 28.877 82.7152 30.5238 83.793C32.3039 84.9555 34.6773 85.8879 37.3535 86.6266C42.7664 88.116 50.0563 89 58 89C65.9437 89 73.2336 88.116 78.6344 86.6266C81.3105 85.8879 83.6961 84.9555 85.4641 83.793C87.123 82.7152 88.9879 80.9352 88.9879 78.3438C88.9879 76.709 88.2129 75.377 87.2926 74.3961C86.3844 73.4395 85.1977 72.6645 83.9262 72.0227C81.3832 70.7391 77.932 69.734 73.9965 69.0195C72.4223 68.7289 70.9086 69.7824 70.618 71.3566C70.3273 72.9309 71.3809 74.4445 72.9551 74.7352C76.6121 75.4012 79.4578 76.2852 81.3105 77.2176C81.698 77.4113 82.0129 77.593 82.2672 77.7625C82.7031 78.0531 82.7031 78.6344 82.2672 78.925C81.2016 79.6152 79.4699 80.3539 77.0602 81.0199C72.3254 82.3398 65.5684 83.1875 58 83.1875C50.4316 83.1875 43.6746 82.3398 38.9035 81.0199C36.4938 80.3539 34.7621 79.6152 33.6965 78.925C33.2605 78.6344 33.2605 78.0531 33.6965 77.7625C33.9508 77.593 34.2777 77.4113 34.6531 77.2176C36.5059 76.2852 39.3516 75.4133 43.0086 74.7352H43.0207Z" fill="#D39D63"/>
</g>
<defs>
<clipPath id="clip0_171_17">
<rect width="62" height="62" fill="white" transform="translate(27 27)"/>
</clipPath>
</defs>
</svg>
