<svg xmlns="http://www.w3.org/2000/svg" width="116" height="117" fill="none" viewBox="0 0 116 117"><rect width="115.953" height="115.953" y=".292" fill="#fff" rx="12"/><g clip-path="url(#clip0_72_1150)"><path fill="#2B6E4F" d="M58 27.7686C62.4562 27.7686 66.3312 30.2348 68.2809 33.8566C72.2648 32.6533 76.7695 33.6064 79.918 36.7041C83.0664 39.8018 84.0352 44.2457 82.8121 48.1535C86.4934 50.0717 89 53.8842 89 58.2686C89 62.6529 86.4934 66.4654 82.8121 68.3836C84.0352 72.3033 83.0664 76.7354 79.918 79.833C76.7695 82.9307 72.2527 83.8838 68.2809 82.6805C66.3312 86.3023 62.4562 88.7686 58 88.7686C53.5438 88.7686 49.6688 86.3023 47.7191 82.6805C43.7352 83.8838 39.2305 82.9307 36.082 79.833C32.9336 76.7354 31.9648 72.2914 33.1879 68.3836C29.5066 66.4654 27 62.6529 27 58.2686C27 53.8842 29.5066 50.0717 33.1879 48.1535C31.9648 44.2338 32.9336 39.8018 36.082 36.7041C39.2305 33.6064 43.7473 32.6533 47.7191 33.8566C49.6688 30.2348 53.5438 27.7686 58 27.7686ZM71.6836 52.6689C72.8219 51.549 72.8219 49.7381 71.6836 48.6301C70.5453 47.5221 68.7047 47.5102 67.5785 48.6301L54.1371 61.8547L48.4457 56.2551C47.3074 55.1352 45.4668 55.1352 44.3406 56.2551C43.2145 57.375 43.2023 59.1859 44.3406 60.2939L52.0906 67.9189C53.2289 69.0389 55.0695 69.0389 56.1957 67.9189L71.6836 52.6689Z"/></g><defs><clipPath id="clip0_72_1150"><rect width="62" height="61" fill="#fff" transform="translate(27 27.7686)"/></clipPath></defs></svg>