<svg xmlns="http://www.w3.org/2000/svg" width="116" height="117" fill="none" viewBox="0 0 116 117"><rect width="115.953" height="115.953" y=".292" fill="#D39D63" rx="12"/><g clip-path="url(#clip0_72_1136)"><path fill="#FCF1E8" d="M57.9766 28.2686C55.9023 28.2686 54.2266 29.9443 54.2266 32.0186V39.5186C54.2266 41.5928 55.9023 43.2686 57.9766 43.2686C60.0508 43.2686 61.7266 41.5928 61.7266 39.5186V36.085C72.3672 37.8662 80.4766 47.124 80.4766 58.2686C80.4766 70.6904 70.3984 80.7686 57.9766 80.7686C45.5547 80.7686 35.4766 70.6904 35.4766 58.2686C35.4766 51.9756 38.0547 46.2803 42.2266 42.2021C43.7031 40.749 43.7266 38.3818 42.2852 36.8936C40.8438 35.4053 38.4648 35.3936 36.9766 36.835C31.4336 42.2842 27.9766 49.8779 27.9766 58.2686C27.9766 74.8389 41.4063 88.2686 57.9766 88.2686C74.5469 88.2686 87.9766 74.8389 87.9766 58.2686C87.9766 41.6982 74.5469 28.2686 57.9766 28.2686ZM50.5938 46.9014C49.4922 45.7998 47.7109 45.7998 46.6211 46.9014C45.5312 48.0029 45.5195 49.7842 46.6211 50.874L55.9961 60.249C57.0977 61.3506 58.8789 61.3506 59.9688 60.249C61.0586 59.1475 61.0703 57.3662 59.9688 56.2764L50.5938 46.9014Z"/></g><defs><clipPath id="clip0_72_1136"><rect width="60" height="60" fill="#fff" transform="translate(27.9766 28.2686)"/></clipPath></defs></svg>